SplineFontDB: 3.0
FontName: Neuton-SC-Extralight
FullName: Neuton SC Extralight
FamilyName: Neuton SC
Weight: ExtraLight
Copyright: Copyright (c) 2010, 2011 Brian M Zick (http://21326.info/), \nwith Reserved Font Name 'Neuton SC'.\n\nThis Font Software is licensed under the SIL Open Font License, Version 1.1.\nThis license is available with a FAQ at: http://scripts.sil.org/OFL\n   WITHOUT WARRANTIES OR CONDITIONS OF ANY KIND, either express or implied.\n   See the License for the specific language governing permissions and\n   limitations under the License.
UComments: "Neuton is a dark, dutch-inspired, compact text serif, intended for use on screen. Neuton is Brian Zick's debut font, and includes text figures, an extended character set, and smooth, readable forms. Neuton works well in any size, as well as in print." 
Version: 1.46
ItalicAngle: 0
UnderlinePosition: -361
UnderlineWidth: 0
Ascent: 1638
Descent: 410
LayerCount: 2
Layer: 0 1 "Back"  1
Layer: 1 1 "Fore"  0
BaseHoriz: 0
FSType: 1
OS2Version: 1
OS2_WeightWidthSlopeOnly: 0
OS2_UseTypoMetrics: 0
CreationTime: 1304912001
ModificationTime: 1333038476
PfmFamily: 17
TTFWeight: 200
TTFWidth: 5
LineGap: 0
VLineGap: 0
Panose: 2 0 2 3 0 0 0 0 0 0
OS2TypoAscent: 2106
OS2TypoAOffset: 0
OS2TypoDescent: -485
OS2TypoDOffset: 0
OS2TypoLinegap: 0
OS2WinAscent: 2106
OS2WinAOffset: 0
OS2WinDescent: 485
OS2WinDOffset: 0
HheadAscent: 2106
HheadAOffset: 0
HheadDescent: -485
HheadDOffset: 0
OS2Vendor: 'PfEd'
Lookup: 3 0 0 "'salt' Stylistic Alternates"  {"Alternate Substitution in Latin lookup 0-1"  } ['salt' ('DFLT' <'dflt' > 'latn' <'dflt' > ) ]
MarkAttachClasses: 1
DEI: 91125
TtTable: prep
PUSHW_1
 511
SCANCTRL
PUSHB_1
 4
SCANTYPE
EndTTInstrs

StartChar: A
Encoding: 65 65 0
Width: 1288
VWidth: 0
Flags: MW
LayerCount: 2
Fore
SplineSet
444 534 m 1,0,-1
 837 534 l 1,1,-1
 644 1085 l 1,2,-1
 444 534 l 1,0,-1
52 0 m 1,3,-1
 57 42 l 1,4,-1
 199 72 l 1,5,-1
 637 1254 l 1,6,-1
 690 1268 l 1,7,-1
 1105 66 l 1,8,-1
 1237 47 l 1,9,-1
 1229 1 l 1,10,-1
 820 1 l 1,11,-1
 829 43 l 1,12,-1
 995 73 l 1,13,-1
 856 478 l 1,14,-1
 424 478 l 1,15,-1
 276 65 l 1,16,-1
 460 46 l 1,17,-1
 451 0 l 1,18,-1
 52 0 l 1,3,-1
EndSplineSet
Colour: ffffff
EndChar

StartChar: AE
Encoding: 198 198 1
Width: 1714
VWidth: 0
Flags: MW
LayerCount: 2
Fore
SplineSet
564 537 m 1,0,-1
 878 537 l 1,1,-1
 878 1093 l 1,2,-1
 564 537 l 1,0,-1
53 3 m 1,3,-1
 57 43 l 1,4,-1
 200 73 l 1,5,-1
 854 1180 l 1,6,-1
 621 1205 l 1,7,-1
 627 1244 l 1,8,-1
 1614 1244 l 1,9,-1
 1582 925 l 1,10,-1
 1538 931 l 1,11,-1
 1517 1193 l 1,12,-1
 983 1193 l 1,13,-1
 983 659 l 1,14,-1
 1325 659 l 1,15,-1
 1361 798 l 1,16,-1
 1410 806 l 1,17,-1
 1377 417 l 1,18,-1
 1330 408 l 1,19,-1
 1313 605 l 1,20,-1
 983 605 l 1,21,-1
 983 54 l 1,22,-1
 1547 54 l 1,23,-1
 1618 323 l 1,24,-1
 1660 313 l 1,25,-1
 1630 0 l 1,26,-1
 676 0 l 1,27,-1
 682 42 l 1,28,-1
 875 72 l 1,29,-1
 875 472 l 1,30,-1
 526 472 l 1,31,-1
 290 66 l 1,32,-1
 474 48 l 1,33,-1
 464 3 l 1,34,-1
 53 3 l 1,3,-1
EndSplineSet
Colour: ffffff
EndChar

StartChar: Aacute
Encoding: 193 193 2
Width: 1286
VWidth: 0
Flags: MW
LayerCount: 2
Fore
SplineSet
428 534 m 1,0,-1
 821 534 l 1,1,-1
 628 1085 l 1,2,-1
 428 534 l 1,0,-1
36 0 m 1,3,-1
 41 42 l 1,4,-1
 183 72 l 1,5,-1
 621 1254 l 1,6,-1
 674 1268 l 1,7,-1
 1089 66 l 1,8,-1
 1221 47 l 1,9,-1
 1213 1 l 1,10,-1
 804 1 l 1,11,-1
 813 43 l 1,12,-1
 979 73 l 1,13,-1
 840 478 l 1,14,-1
 408 478 l 1,15,-1
 260 65 l 1,16,-1
 444 46 l 1,17,-1
 435 0 l 1,18,-1
 36 0 l 1,3,-1
617 1376 m 1,19,-1
 749 1713 l 1,20,-1
 845 1674 l 1,21,-1
 662 1350 l 1,22,-1
 617 1376 l 1,19,-1
EndSplineSet
Colour: ffffff
EndChar

StartChar: Acircumflex
Encoding: 194 194 3
Width: 1287
VWidth: 0
Flags: MW
LayerCount: 2
Fore
SplineSet
428 534 m 1,0,-1
 821 534 l 1,1,-1
 628 1085 l 1,2,-1
 428 534 l 1,0,-1
36 0 m 1,3,-1
 41 42 l 1,4,-1
 183 72 l 1,5,-1
 621 1254 l 1,6,-1
 674 1268 l 1,7,-1
 1089 66 l 1,8,-1
 1221 47 l 1,9,-1
 1213 1 l 1,10,-1
 804 1 l 1,11,-1
 813 43 l 1,12,-1
 979 73 l 1,13,-1
 840 478 l 1,14,-1
 408 478 l 1,15,-1
 260 65 l 1,16,-1
 444 46 l 1,17,-1
 435 0 l 1,18,-1
 36 0 l 1,3,-1
457 1394 m 1,19,-1
 624 1575 l 1,20,-1
 678 1588 l 1,21,-1
 857 1402 l 1,22,-1
 825 1365 l 1,23,-1
 644 1500 l 1,24,-1
 635 1500 l 1,25,-1
 478 1364 l 1,26,-1
 457 1394 l 1,19,-1
EndSplineSet
Colour: ffffff
EndChar

StartChar: Adieresis
Encoding: 196 196 4
Width: 1287
VWidth: 0
Flags: MW
LayerCount: 2
Fore
SplineSet
721 1465 m 0,0,1
 721 1543 721 1543 775 1543 c 0,2,3
 833 1543 833 1543 833 1465 c 0,4,5
 833 1384 833 1384 776 1384 c 0,6,7
 721 1384 721 1384 721 1465 c 0,0,1
452 1465 m 0,8,9
 452 1543 452 1543 507 1543 c 0,10,11
 565 1543 565 1543 565 1465 c 0,12,13
 565 1424 565 1424 552.5 1404 c 128,-1,14
 540 1384 540 1384 509 1384 c 0,15,16
 452 1384 452 1384 452 1465 c 0,8,9
428 534 m 1,17,-1
 821 534 l 1,18,-1
 628 1085 l 1,19,-1
 428 534 l 1,17,-1
36 0 m 1,20,-1
 41 42 l 1,21,-1
 183 72 l 1,22,-1
 621 1254 l 1,23,-1
 674 1268 l 1,24,-1
 1089 66 l 1,25,-1
 1221 47 l 1,26,-1
 1213 1 l 1,27,-1
 804 1 l 1,28,-1
 813 43 l 1,29,-1
 979 73 l 1,30,-1
 840 478 l 1,31,-1
 408 478 l 1,32,-1
 260 65 l 1,33,-1
 444 46 l 1,34,-1
 435 0 l 1,35,-1
 36 0 l 1,20,-1
EndSplineSet
Colour: ffffff
EndChar

StartChar: Agrave
Encoding: 192 192 5
Width: 1286
VWidth: 0
Flags: MW
LayerCount: 2
Fore
SplineSet
428 534 m 1,0,-1
 821 534 l 1,1,-1
 628 1085 l 1,2,-1
 428 534 l 1,0,-1
36 0 m 1,3,-1
 41 42 l 1,4,-1
 183 72 l 1,5,-1
 621 1254 l 1,6,-1
 674 1268 l 1,7,-1
 1089 66 l 1,8,-1
 1221 47 l 1,9,-1
 1213 1 l 1,10,-1
 804 1 l 1,11,-1
 813 43 l 1,12,-1
 979 73 l 1,13,-1
 840 478 l 1,14,-1
 408 478 l 1,15,-1
 260 65 l 1,16,-1
 444 46 l 1,17,-1
 435 0 l 1,18,-1
 36 0 l 1,3,-1
454 1667 m 1,19,-1
 548 1704 l 1,20,-1
 681 1368 l 1,21,-1
 635 1341 l 1,22,-1
 454 1667 l 1,19,-1
EndSplineSet
Colour: ffffff
EndChar

StartChar: Aring
Encoding: 197 197 6
Width: 1286
VWidth: 0
Flags: MW
LayerCount: 2
Fore
SplineSet
428 534 m 1,0,-1
 821 534 l 1,1,-1
 628 1085 l 1,2,-1
 428 534 l 1,0,-1
36 0 m 1,3,-1
 41 42 l 1,4,-1
 183 72 l 1,5,-1
 621 1254 l 1,6,-1
 674 1268 l 1,7,-1
 1089 66 l 1,8,-1
 1221 47 l 1,9,-1
 1213 1 l 1,10,-1
 804 1 l 1,11,-1
 813 43 l 1,12,-1
 979 73 l 1,13,-1
 840 478 l 1,14,-1
 408 478 l 1,15,-1
 260 65 l 1,16,-1
 444 46 l 1,17,-1
 435 0 l 1,18,-1
 36 0 l 1,3,-1
557 1516 m 0,19,20
 557 1463 557 1463 583.5 1421.5 c 128,-1,21
 610 1380 610 1380 658 1380 c 0,22,23
 702 1380 702 1380 727 1411 c 128,-1,24
 752 1442 752 1442 752 1499 c 0,25,26
 752 1552 752 1552 723.5 1594 c 128,-1,27
 695 1636 695 1636 648 1636 c 0,28,29
 603 1636 603 1636 580 1601 c 128,-1,30
 557 1566 557 1566 557 1516 c 0,19,20
492 1505 m 0,31,32
 492 1575 492 1575 541 1625.5 c 128,-1,33
 590 1676 590 1676 660 1676 c 0,34,35
 732 1676 732 1676 775 1630.5 c 128,-1,36
 818 1585 818 1585 818 1514 c 128,-1,37
 818 1443 818 1443 770 1391 c 128,-1,38
 722 1339 722 1339 648 1339 c 0,39,40
 578 1339 578 1339 535 1384 c 128,-1,41
 492 1429 492 1429 492 1505 c 0,31,32
EndSplineSet
Colour: ffffff
EndChar

StartChar: Atilde
Encoding: 195 195 7
Width: 1288
VWidth: 0
Flags: MW
LayerCount: 2
Fore
SplineSet
452 1404 m 1,0,1
 463 1462 463 1462 486 1498 c 128,-1,2
 509 1534 509 1534 537 1546 c 128,-1,3
 565 1558 565 1558 594.5 1555 c 128,-1,4
 624 1552 624 1552 652 1536 c 2,5,-1
 724 1495 l 2,6,7
 744 1484 744 1484 757.5 1478 c 128,-1,8
 771 1472 771 1472 788 1467.5 c 128,-1,9
 805 1463 805 1463 817.5 1466 c 128,-1,10
 830 1469 830 1469 843.5 1478 c 128,-1,11
 857 1487 857 1487 868.5 1506.5 c 128,-1,12
 880 1526 880 1526 890 1556 c 1,13,-1
 922 1548 l 1,14,15
 908 1478 908 1478 878 1439 c 128,-1,16
 848 1400 848 1400 808 1396 c 128,-1,17
 768 1392 768 1392 722 1416 c 1,18,-1
 650 1456 l 2,19,20
 632 1466 632 1466 622.5 1471 c 128,-1,21
 613 1476 613 1476 597 1482 c 128,-1,22
 581 1488 581 1488 571.5 1487.5 c 128,-1,23
 562 1487 562 1487 548.5 1483.5 c 128,-1,24
 535 1480 535 1480 525 1469.5 c 128,-1,25
 515 1459 515 1459 504.5 1440.5 c 128,-1,26
 494 1422 494 1422 484 1396 c 1,27,-1
 452 1404 l 1,0,1
444 534 m 1,28,-1
 837 534 l 1,29,-1
 644 1085 l 1,30,-1
 444 534 l 1,28,-1
52 0 m 1,31,-1
 57 42 l 1,32,-1
 199 72 l 1,33,-1
 637 1254 l 1,34,-1
 690 1268 l 1,35,-1
 1105 66 l 1,36,-1
 1237 47 l 1,37,-1
 1229 1 l 1,38,-1
 820 1 l 1,39,-1
 829 43 l 1,40,-1
 995 73 l 1,41,-1
 856 478 l 1,42,-1
 424 478 l 1,43,-1
 276 65 l 1,44,-1
 460 46 l 1,45,-1
 451 0 l 1,46,-1
 52 0 l 1,31,-1
EndSplineSet
Colour: ffffff
EndChar

StartChar: B
Encoding: 66 66 8
Width: 1063
VWidth: 0
Flags: MW
LayerCount: 2
Fore
SplineSet
327 670 m 1,0,-1
 647 670 l 1,1,2
 802 748 802 748 802 933 c 0,3,4
 802 1071 802 1071 708.5 1141.5 c 128,-1,5
 615 1212 615 1212 449 1212 c 0,6,7
 354 1212 354 1212 327 1206 c 1,8,-1
 327 670 l 1,0,-1
327 54 m 1,9,-1
 473 54 l 2,10,11
 704 54 704 54 803.5 122 c 128,-1,12
 903 190 903 190 903 327 c 0,13,14
 903 380 903 380 882.5 431.5 c 128,-1,15
 862 483 862 483 824 525.5 c 128,-1,16
 786 568 786 568 723 594.5 c 128,-1,17
 660 621 660 621 583 621 c 2,18,-1
 327 621 l 1,19,-1
 327 54 l 1,9,-1
49 0 m 1,20,-1
 57 42 l 1,21,-1
 226 72 l 1,22,-1
 226 1153 l 1,23,-1
 54 1175 l 1,24,-1
 64 1211 l 1,25,26
 82 1214 82 1214 146 1224 c 128,-1,27
 210 1234 210 1234 235.5 1237.5 c 128,-1,28
 261 1241 261 1241 313 1247 c 128,-1,29
 365 1253 365 1253 410.5 1255 c 128,-1,30
 456 1257 456 1257 507 1257 c 0,31,32
 701 1257 701 1257 802.5 1175.5 c 128,-1,33
 904 1094 904 1094 904 947 c 0,34,35
 904 859 904 859 852 785 c 128,-1,36
 800 711 800 711 727 668 c 1,37,-1
 727 662 l 1,38,39
 846 643 846 643 922 563 c 128,-1,40
 998 483 998 483 998 353 c 0,41,42
 998 196 998 196 864 98 c 128,-1,43
 730 0 730 0 474 0 c 2,44,-1
 49 0 l 1,20,-1
EndSplineSet
Colour: ffffff
EndChar

StartChar: C
Encoding: 67 67 9
Width: 1061
VWidth: 0
Flags: MW
LayerCount: 2
Fore
SplineSet
54 607 m 0,0,1
 54 682 54 682 69.5 759 c 128,-1,2
 85 836 85 836 114.5 910.5 c 128,-1,3
 144 985 144 985 192 1050 c 128,-1,4
 240 1115 240 1115 300.5 1164.5 c 128,-1,5
 361 1214 361 1214 442.5 1242.5 c 128,-1,6
 524 1271 524 1271 617 1271 c 0,7,8
 824 1271 824 1271 957 1171 c 1,9,-1
 926 834 l 1,10,-1
 879 842 l 1,11,-1
 849 1101 l 1,12,13
 762 1215 762 1215 570 1215 c 0,14,15
 402 1215 402 1215 281 1053.5 c 128,-1,16
 160 892 160 892 160 643 c 0,17,18
 160 362 160 362 277.5 208 c 128,-1,19
 395 54 395 54 611 54 c 0,20,21
 718 54 718 54 819 109 c 128,-1,22
 920 164 920 164 989 243 c 1,23,-1
 1012 206 l 1,24,25
 987 168 987 168 945 129.5 c 128,-1,26
 903 91 903 91 846.5 55 c 128,-1,27
 790 19 790 19 716 -3.5 c 128,-1,28
 642 -26 642 -26 565 -26 c 0,29,30
 335 -26 335 -26 194.5 146.5 c 128,-1,31
 54 319 54 319 54 607 c 0,0,1
EndSplineSet
Colour: ffffff
EndChar

StartChar: Ccedilla
Encoding: 199 199 10
Width: 1061
VWidth: 0
Flags: MW
LayerCount: 2
Fore
SplineSet
33 607 m 0,0,1
 33 682 33 682 48.5 759 c 128,-1,2
 64 836 64 836 93.5 910.5 c 128,-1,3
 123 985 123 985 171 1050 c 128,-1,4
 219 1115 219 1115 279.5 1164.5 c 128,-1,5
 340 1214 340 1214 421.5 1242.5 c 128,-1,6
 503 1271 503 1271 596 1271 c 0,7,8
 803 1271 803 1271 936 1171 c 1,9,-1
 905 834 l 1,10,-1
 858 842 l 1,11,-1
 828 1101 l 1,12,13
 741 1215 741 1215 549 1215 c 0,14,15
 381 1215 381 1215 260 1053.5 c 128,-1,16
 139 892 139 892 139 643 c 0,17,18
 139 362 139 362 256.5 208 c 128,-1,19
 374 54 374 54 590 54 c 0,20,21
 697 54 697 54 798 109 c 128,-1,22
 899 164 899 164 968 243 c 1,23,-1
 991 206 l 1,24,25
 943 134 943 134 844.5 67 c 128,-1,26
 746 0 746 0 625 -19 c 1,27,-1
 586 -76 l 1,28,29
 675 -155 675 -155 675 -227 c 0,30,31
 675 -283 675 -283 623.5 -322 c 128,-1,32
 572 -361 572 -361 476 -390 c 1,33,-1
 465 -347 l 1,34,35
 508 -332 508 -332 545.5 -300.5 c 128,-1,36
 583 -269 583 -269 583 -247 c 0,37,38
 583 -224 583 -224 573.5 -203.5 c 128,-1,39
 564 -183 564 -183 555 -172.5 c 128,-1,40
 546 -162 546 -162 524.5 -143 c 128,-1,41
 503 -124 503 -124 497 -118 c 1,42,-1
 562 -26 l 1,43,44
 553 -26 553 -26 544 -26 c 0,45,46
 314 -26 314 -26 173.5 146.5 c 128,-1,47
 33 319 33 319 33 607 c 0,0,1
EndSplineSet
Colour: ffffff
EndChar

StartChar: D
Encoding: 68 68 11
Width: 1255
VWidth: 0
Flags: MW
LayerCount: 2
Fore
SplineSet
327 54 m 1,0,-1
 507 54 l 2,1,2
 777 54 777 54 934.5 198.5 c 128,-1,3
 1092 343 1092 343 1092 605 c 0,4,5
 1092 896 1092 896 935 1051.5 c 128,-1,6
 778 1207 778 1207 491 1207 c 0,7,8
 373 1207 373 1207 327 1188 c 1,9,-1
 327 54 l 1,0,-1
49 0 m 1,10,-1
 57 42 l 1,11,-1
 226 72 l 1,12,-1
 226 1153 l 1,13,-1
 54 1175 l 1,14,-1
 64 1211 l 1,15,16
 369 1259 369 1259 538 1259 c 0,17,18
 680 1259 680 1259 793 1227.5 c 128,-1,19
 906 1196 906 1196 981 1141 c 128,-1,20
 1056 1086 1056 1086 1106 1009 c 128,-1,21
 1156 932 1156 932 1178 844 c 128,-1,22
 1200 756 1200 756 1200 655 c 0,23,24
 1200 550 1200 550 1175 455.5 c 128,-1,25
 1150 361 1150 361 1094 277 c 128,-1,26
 1038 193 1038 193 955.5 132 c 128,-1,27
 873 71 873 71 751.5 35.5 c 128,-1,28
 630 0 630 0 480 0 c 2,29,-1
 49 0 l 1,10,-1
EndSplineSet
Colour: ffffff
EndChar

StartChar: E
Encoding: 69 69 12
Width: 1064
VWidth: 0
Flags: MW
LayerCount: 2
Fore
SplineSet
50 1202 m 1,0,-1
 57 1244 l 1,1,-1
 963 1244 l 1,2,-1
 932 925 l 1,3,-1
 886 931 l 1,4,-1
 867 1193 l 1,5,-1
 333 1193 l 1,6,-1
 333 659 l 1,7,-1
 668 659 l 1,8,-1
 705 798 l 1,9,-1
 759 806 l 1,10,-1
 726 417 l 1,11,-1
 675 408 l 1,12,-1
 659 605 l 1,13,-1
 333 605 l 1,14,-1
 333 54 l 1,15,-1
 895 54 l 1,16,-1
 969 323 l 1,17,-1
 1010 313 l 1,18,-1
 980 0 l 1,19,-1
 53 0 l 1,20,-1
 59 42 l 1,21,-1
 229 72 l 1,22,-1
 229 1175 l 1,23,-1
 50 1202 l 1,0,-1
EndSplineSet
Colour: ffffff
EndChar

StartChar: Eacute
Encoding: 201 201 13
Width: 1064
VWidth: 0
Flags: MW
LayerCount: 2
Fore
SplineSet
20 1202 m 1,0,-1
 27 1244 l 1,1,-1
 933 1244 l 1,2,-1
 902 925 l 1,3,-1
 856 931 l 1,4,-1
 837 1193 l 1,5,-1
 303 1193 l 1,6,-1
 303 659 l 1,7,-1
 638 659 l 1,8,-1
 675 798 l 1,9,-1
 729 806 l 1,10,-1
 696 417 l 1,11,-1
 645 408 l 1,12,-1
 629 605 l 1,13,-1
 303 605 l 1,14,-1
 303 54 l 1,15,-1
 865 54 l 1,16,-1
 939 323 l 1,17,-1
 980 313 l 1,18,-1
 950 0 l 1,19,-1
 23 0 l 1,20,-1
 29 42 l 1,21,-1
 199 72 l 1,22,-1
 199 1175 l 1,23,-1
 20 1202 l 1,0,-1
378 1376 m 1,24,-1
 510 1713 l 1,25,-1
 606 1674 l 1,26,-1
 423 1350 l 1,27,-1
 378 1376 l 1,24,-1
EndSplineSet
Colour: ffffff
EndChar

StartChar: Ecircumflex
Encoding: 202 202 14
Width: 1064
VWidth: 0
Flags: MW
LayerCount: 2
Fore
SplineSet
20 1202 m 1,0,-1
 27 1244 l 1,1,-1
 933 1244 l 1,2,-1
 902 925 l 1,3,-1
 856 931 l 1,4,-1
 837 1193 l 1,5,-1
 303 1193 l 1,6,-1
 303 659 l 1,7,-1
 638 659 l 1,8,-1
 675 798 l 1,9,-1
 729 806 l 1,10,-1
 696 417 l 1,11,-1
 645 408 l 1,12,-1
 629 605 l 1,13,-1
 303 605 l 1,14,-1
 303 54 l 1,15,-1
 865 54 l 1,16,-1
 939 323 l 1,17,-1
 980 313 l 1,18,-1
 950 0 l 1,19,-1
 23 0 l 1,20,-1
 29 42 l 1,21,-1
 199 72 l 1,22,-1
 199 1175 l 1,23,-1
 20 1202 l 1,0,-1
351 1394 m 1,24,-1
 518 1575 l 1,25,-1
 572 1588 l 1,26,-1
 751 1402 l 1,27,-1
 719 1365 l 1,28,-1
 538 1500 l 1,29,-1
 529 1500 l 1,30,-1
 372 1364 l 1,31,-1
 351 1394 l 1,24,-1
EndSplineSet
Colour: ffffff
EndChar

StartChar: Edieresis
Encoding: 203 203 15
Width: 1064
VWidth: 0
Flags: MW
LayerCount: 2
Fore
SplineSet
20 1202 m 1,0,-1
 27 1244 l 1,1,-1
 933 1244 l 1,2,-1
 902 925 l 1,3,-1
 856 931 l 1,4,-1
 837 1193 l 1,5,-1
 303 1193 l 1,6,-1
 303 659 l 1,7,-1
 638 659 l 1,8,-1
 675 798 l 1,9,-1
 729 806 l 1,10,-1
 696 417 l 1,11,-1
 645 408 l 1,12,-1
 629 605 l 1,13,-1
 303 605 l 1,14,-1
 303 54 l 1,15,-1
 865 54 l 1,16,-1
 939 323 l 1,17,-1
 980 313 l 1,18,-1
 950 0 l 1,19,-1
 23 0 l 1,20,-1
 29 42 l 1,21,-1
 199 72 l 1,22,-1
 199 1175 l 1,23,-1
 20 1202 l 1,0,-1
617 1454 m 0,24,25
 617 1532 617 1532 671 1532 c 0,26,27
 729 1532 729 1532 729 1454 c 0,28,29
 729 1373 729 1373 672 1373 c 0,30,31
 617 1373 617 1373 617 1454 c 0,24,25
348 1454 m 0,32,33
 348 1532 348 1532 403 1532 c 0,34,35
 461 1532 461 1532 461 1454 c 0,36,37
 461 1413 461 1413 448.5 1393 c 128,-1,38
 436 1373 436 1373 405 1373 c 0,39,40
 348 1373 348 1373 348 1454 c 0,32,33
EndSplineSet
Colour: ffffff
EndChar

StartChar: Egrave
Encoding: 200 200 16
Width: 1064
VWidth: 0
Flags: MW
LayerCount: 2
Fore
SplineSet
20 1202 m 1,0,-1
 27 1244 l 1,1,-1
 933 1244 l 1,2,-1
 902 925 l 1,3,-1
 856 931 l 1,4,-1
 837 1193 l 1,5,-1
 303 1193 l 1,6,-1
 303 659 l 1,7,-1
 638 659 l 1,8,-1
 675 798 l 1,9,-1
 729 806 l 1,10,-1
 696 417 l 1,11,-1
 645 408 l 1,12,-1
 629 605 l 1,13,-1
 303 605 l 1,14,-1
 303 54 l 1,15,-1
 865 54 l 1,16,-1
 939 323 l 1,17,-1
 980 313 l 1,18,-1
 950 0 l 1,19,-1
 23 0 l 1,20,-1
 29 42 l 1,21,-1
 199 72 l 1,22,-1
 199 1175 l 1,23,-1
 20 1202 l 1,0,-1
328 1667 m 1,24,-1
 422 1704 l 1,25,-1
 555 1368 l 1,26,-1
 509 1341 l 1,27,-1
 328 1667 l 1,24,-1
EndSplineSet
Colour: ffffff
EndChar

StartChar: Eth
Encoding: 208 208 17
Width: 1267
VWidth: 0
Flags: MW
LayerCount: 2
Fore
SplineSet
330 54 m 1,0,-1
 510 54 l 2,1,2
 776 54 776 54 937 202.5 c 128,-1,3
 1098 351 1098 351 1098 599 c 0,4,5
 1098 878 1098 878 944 1041.5 c 128,-1,6
 790 1205 790 1205 504 1205 c 0,7,8
 358 1205 358 1205 330 1201 c 1,9,-1
 330 672 l 1,10,-1
 617 691 l 1,11,-1
 609 631 l 1,12,-1
 330 612 l 1,13,-1
 330 54 l 1,0,-1
48 592 m 1,14,-1
 57 653 l 1,15,-1
 229 664 l 1,16,-1
 229 1153 l 1,17,-1
 57 1175 l 1,18,-1
 67 1211 l 1,19,20
 372 1259 372 1259 541 1259 c 0,21,22
 689 1259 689 1259 805.5 1225.5 c 128,-1,23
 922 1192 922 1192 997 1135.5 c 128,-1,24
 1072 1079 1072 1079 1121.5 1000 c 128,-1,25
 1171 921 1171 921 1191.5 836 c 128,-1,26
 1212 751 1212 751 1212 655 c 0,27,28
 1212 550 1212 550 1186 455.5 c 128,-1,29
 1160 361 1160 361 1102.5 277 c 128,-1,30
 1045 193 1045 193 961.5 132 c 128,-1,31
 878 71 878 71 755.5 35.5 c 128,-1,32
 633 0 633 0 483 0 c 2,33,-1
 52 0 l 1,34,-1
 60 42 l 1,35,-1
 229 72 l 1,36,-1
 229 605 l 1,37,-1
 48 592 l 1,14,-1
EndSplineSet
Colour: ffffff
EndChar

StartChar: Euro
Encoding: 8364 8364 18
Width: 896
VWidth: 0
Flags: MW
LayerCount: 2
Fore
SplineSet
42 469 m 1,0,-1
 49 534 l 1,1,-1
 182 534 l 1,2,3
 195 617 195 617 227.5 687.5 c 128,-1,4
 260 758 260 758 310.5 814 c 128,-1,5
 361 870 361 870 436 902 c 128,-1,6
 511 934 511 934 602 934 c 0,7,8
 739 934 739 934 826 874 c 1,9,-1
 795 627 l 1,10,-1
 748 635 l 1,11,-1
 738 804 l 1,12,13
 688 878 688 878 545 878 c 0,14,15
 452 878 452 878 384.5 789.5 c 128,-1,16
 317 701 317 701 305 534 c 1,17,-1
 645 534 l 1,18,-1
 633 469 l 1,19,-1
 302 469 l 1,20,21
 302 466 302 466 302 462 c 0,22,23
 302 422 302 422 305 385 c 1,24,-1
 612 385 l 1,25,-1
 599 318 l 1,26,-1
 314 318 l 1,27,28
 339 186 339 186 412 115 c 128,-1,29
 485 44 485 44 598 44 c 0,30,31
 733 44 733 44 838 139 c 1,32,-1
 861 102 l 1,33,34
 753 -26 753 -26 550 -26 c 0,35,36
 405 -26 405 -26 306.5 66 c 128,-1,37
 208 158 208 158 182 318 c 1,38,-1
 34 318 l 1,39,-1
 42 385 l 1,40,-1
 175 385 l 1,41,42
 174 405 174 405 174 426 c 0,43,44
 174 448 174 448 175 469 c 1,45,-1
 42 469 l 1,0,-1
EndSplineSet
Colour: ffffff
EndChar

StartChar: F
Encoding: 70 70 19
Width: 1017
VWidth: 0
Flags: MW
LayerCount: 2
Fore
SplineSet
50 1202 m 1,0,-1
 57 1244 l 1,1,-1
 963 1244 l 1,2,-1
 930 922 l 1,3,-1
 881 930 l 1,4,-1
 860 1193 l 1,5,-1
 330 1193 l 1,6,-1
 330 633 l 1,7,-1
 663 633 l 1,8,-1
 702 773 l 1,9,-1
 758 780 l 1,10,-1
 727 392 l 1,11,-1
 672 384 l 1,12,-1
 654 580 l 1,13,-1
 330 580 l 1,14,-1
 330 70 l 1,15,-1
 576 53 l 1,16,-1
 564 0 l 1,17,-1
 54 0 l 1,18,-1
 57 42 l 1,19,-1
 227 72 l 1,20,-1
 227 1175 l 1,21,-1
 50 1202 l 1,0,-1
EndSplineSet
Colour: ffffff
EndChar

StartChar: G
Encoding: 71 71 20
Width: 1219
VWidth: 0
Flags: MW
LayerCount: 2
Fore
SplineSet
54 604 m 0,0,1
 54 696 54 696 79 789.5 c 128,-1,2
 104 883 104 883 155 967.5 c 128,-1,3
 206 1052 206 1052 276 1118 c 128,-1,4
 346 1184 346 1184 443.5 1223 c 128,-1,5
 541 1262 541 1262 652 1262 c 0,6,7
 760 1262 760 1262 863 1239.5 c 128,-1,8
 966 1217 966 1217 1035 1170 c 1,9,-1
 1005 852 l 1,10,-1
 960 857 l 1,11,-1
 929 1093 l 1,12,13
 890 1139 890 1139 810 1171 c 128,-1,14
 730 1203 730 1203 619 1203 c 0,15,16
 413 1203 413 1203 290.5 1042 c 128,-1,17
 168 881 168 881 168 633 c 0,18,19
 168 542 168 542 184 460 c 128,-1,20
 200 378 200 378 237 301 c 128,-1,21
 274 224 274 224 329.5 168 c 128,-1,22
 385 112 385 112 471 78.5 c 128,-1,23
 557 45 557 45 664 45 c 0,24,25
 819 45 819 45 924 118 c 1,26,-1
 926 492 l 1,27,-1
 685 517 l 1,28,-1
 691 556 l 1,29,-1
 1171 556 l 1,30,-1
 1164 517 l 1,31,-1
 1030 496 l 1,32,-1
 1030 79 l 1,33,34
 935 22 935 22 827 1 c 128,-1,35
 719 -20 719 -20 560 -20 c 0,36,37
 457 -20 457 -20 364.5 24 c 128,-1,38
 272 68 272 68 203.5 147 c 128,-1,39
 135 226 135 226 94.5 344.5 c 128,-1,40
 54 463 54 463 54 604 c 0,0,1
EndSplineSet
Colour: ffffff
EndChar

StartChar: H
Encoding: 72 72 21
Width: 1392
VWidth: 0
Flags: MW
LayerCount: 2
Fore
SplineSet
49 1205 m 1,0,-1
 52 1244 l 1,1,-1
 508 1244 l 1,2,-1
 503 1205 l 1,3,-1
 334 1182 l 1,4,-1
 334 651 l 1,5,-1
 1052 651 l 1,6,-1
 1052 1180 l 1,7,-1
 868 1205 l 1,8,-1
 875 1244 l 1,9,-1
 1330 1244 l 1,10,-1
 1322 1205 l 1,11,-1
 1155 1182 l 1,12,-1
 1155 65 l 1,13,-1
 1338 46 l 1,14,-1
 1331 0 l 1,15,-1
 878 0 l 1,16,-1
 886 42 l 1,17,-1
 1052 72 l 1,18,-1
 1052 591 l 1,19,-1
 334 591 l 1,20,-1
 334 65 l 1,21,-1
 520 46 l 1,22,-1
 509 0 l 1,23,-1
 57 0 l 1,24,-1
 62 42 l 1,25,-1
 229 72 l 1,26,-1
 229 1180 l 1,27,-1
 49 1205 l 1,0,-1
EndSplineSet
Colour: ffffff
EndChar

StartChar: I
Encoding: 73 73 22
Width: 575
VWidth: 0
Flags: MW
LayerCount: 2
Fore
SplineSet
47 1205 m 1,0,-1
 53 1244 l 1,1,-1
 510 1244 l 1,2,-1
 503 1205 l 1,3,-1
 328 1182 l 1,4,-1
 328 65 l 1,5,-1
 521 46 l 1,6,-1
 512 0 l 1,7,-1
 57 0 l 1,8,-1
 62 42 l 1,9,-1
 220 72 l 1,10,-1
 220 1180 l 1,11,-1
 47 1205 l 1,0,-1
EndSplineSet
Colour: ffffff
EndChar

StartChar: Iacute
Encoding: 205 205 23
Width: 572
VWidth: 0
Flags: MW
LayerCount: 2
Fore
SplineSet
22 1205 m 1,0,-1
 28 1244 l 1,1,-1
 485 1244 l 1,2,-1
 478 1205 l 1,3,-1
 303 1182 l 1,4,-1
 303 65 l 1,5,-1
 496 46 l 1,6,-1
 487 0 l 1,7,-1
 32 0 l 1,8,-1
 37 42 l 1,9,-1
 195 72 l 1,10,-1
 195 1180 l 1,11,-1
 22 1205 l 1,0,-1
206 1376 m 1,12,-1
 338 1713 l 1,13,-1
 434 1674 l 1,14,-1
 251 1350 l 1,15,-1
 206 1376 l 1,12,-1
EndSplineSet
Colour: ffffff
EndChar

StartChar: Icircumflex
Encoding: 206 206 24
Width: 623
VWidth: 0
Flags: MW
LayerCount: 2
Fore
SplineSet
23 1205 m 1,0,-1
 29 1244 l 1,1,-1
 486 1244 l 1,2,-1
 479 1205 l 1,3,-1
 304 1182 l 1,4,-1
 304 65 l 1,5,-1
 497 46 l 1,6,-1
 488 0 l 1,7,-1
 33 0 l 1,8,-1
 38 42 l 1,9,-1
 196 72 l 1,10,-1
 196 1180 l 1,11,-1
 23 1205 l 1,0,-1
52 1394 m 1,12,-1
 219 1575 l 1,13,-1
 273 1588 l 1,14,-1
 452 1402 l 1,15,-1
 420 1365 l 1,16,-1
 239 1500 l 1,17,-1
 230 1500 l 1,18,-1
 73 1364 l 1,19,-1
 52 1394 l 1,12,-1
EndSplineSet
Colour: ffffff
EndChar

StartChar: Idieresis
Encoding: 207 207 25
Width: 588
VWidth: 0
Flags: MW
LayerCount: 2
Fore
SplineSet
23 1205 m 1,0,-1
 29 1244 l 1,1,-1
 486 1244 l 1,2,-1
 479 1205 l 1,3,-1
 304 1182 l 1,4,-1
 304 65 l 1,5,-1
 497 46 l 1,6,-1
 488 0 l 1,7,-1
 33 0 l 1,8,-1
 38 42 l 1,9,-1
 196 72 l 1,10,-1
 196 1180 l 1,11,-1
 23 1205 l 1,0,-1
336 1454 m 0,12,13
 336 1532 336 1532 390 1532 c 0,14,15
 448 1532 448 1532 448 1454 c 0,16,17
 448 1373 448 1373 391 1373 c 0,18,19
 336 1373 336 1373 336 1454 c 0,12,13
67 1454 m 0,20,21
 67 1532 67 1532 122 1532 c 0,22,23
 180 1532 180 1532 180 1454 c 0,24,25
 180 1413 180 1413 167.5 1393 c 128,-1,26
 155 1373 155 1373 124 1373 c 0,27,28
 67 1373 67 1373 67 1454 c 0,20,21
EndSplineSet
Colour: ffffff
EndChar

StartChar: Igrave
Encoding: 204 204 26
Width: 573
VWidth: 0
Flags: MW
LayerCount: 2
Fore
SplineSet
23 1205 m 1,0,-1
 29 1244 l 1,1,-1
 486 1244 l 1,2,-1
 479 1205 l 1,3,-1
 304 1182 l 1,4,-1
 304 65 l 1,5,-1
 497 46 l 1,6,-1
 488 0 l 1,7,-1
 33 0 l 1,8,-1
 38 42 l 1,9,-1
 196 72 l 1,10,-1
 196 1180 l 1,11,-1
 23 1205 l 1,0,-1
83 1667 m 1,12,-1
 177 1704 l 1,13,-1
 310 1368 l 1,14,-1
 264 1341 l 1,15,-1
 83 1667 l 1,12,-1
EndSplineSet
Colour: ffffff
EndChar

StartChar: J
Encoding: 74 74 27
Width: 629
VWidth: 0
Flags: MW
LayerCount: 2
Fore
SplineSet
44 -281 m 1,0,1
 177 -168 177 -168 236 -44 c 128,-1,2
 295 80 295 80 295 282 c 2,3,-1
 295 1180 l 1,4,-1
 115 1205 l 1,5,-1
 120 1244 l 1,6,-1
 579 1244 l 1,7,-1
 573 1205 l 1,8,-1
 406 1182 l 1,9,-1
 402 360 l 2,10,11
 401 212 401 212 384.5 113.5 c 128,-1,12
 368 15 368 15 325.5 -64 c 128,-1,13
 283 -143 283 -143 224.5 -199 c 128,-1,14
 166 -255 166 -255 66 -325 c 1,15,-1
 44 -281 l 1,0,1
EndSplineSet
Colour: ffffff
EndChar

StartChar: K
Encoding: 75 75 28
Width: 1205
VWidth: 0
Flags: MW
LayerCount: 2
Fore
SplineSet
383 619 m 1,0,1
 477 720 477 720 530 783 c 2,2,-1
 861 1180 l 1,3,-1
 688 1205 l 1,4,-1
 692 1244 l 1,5,-1
 1099 1244 l 1,6,-1
 1096 1205 l 1,7,-1
 943 1182 l 1,8,-1
 487 629 l 1,9,-1
 749 321 l 2,10,11
 865 185 865 185 938.5 126 c 128,-1,12
 1012 67 1012 67 1097 54 c 2,13,-1
 1151 46 l 1,14,-1
 1139 3 l 1,15,16
 1119.5 -3.5 l 130,-1,17
 1100 -10 1100 -10 1093 -12.5 c 128,-1,18
 1086 -15 1086 -15 1075.5 -17.5 c 128,-1,19
 1065 -20 1065 -20 1055 -21 c 128,-1,20
 1045 -22 1045 -22 1033 -22 c 0,21,22
 985 -22 985 -22 941.5 -4.5 c 128,-1,23
 898 13 898 13 852 53.5 c 128,-1,24
 806 94 806 94 774.5 129 c 128,-1,25
 743 164 743 164 688 230 c 1,26,-1
 385 604 l 1,27,-1
 383 619 l 1,0,1
48 1205 m 1,28,-1
 53 1244 l 1,29,-1
 502 1244 l 1,30,-1
 499 1205 l 1,31,-1
 329 1182 l 1,32,-1
 329 65 l 1,33,-1
 515 46 l 1,34,-1
 504 0 l 1,35,-1
 58 0 l 1,36,-1
 64 42 l 1,37,-1
 221 72 l 1,38,-1
 221 1180 l 1,39,-1
 48 1205 l 1,28,-1
EndSplineSet
Colour: ffffff
EndChar

StartChar: L
Encoding: 76 76 29
Width: 1039
VWidth: 0
Flags: MW
LayerCount: 2
Fore
SplineSet
52 0 m 1,0,-1
 57 42 l 1,1,-1
 226 72 l 1,2,-1
 226 1178 l 1,3,-1
 54 1203 l 1,4,-1
 58 1243 l 1,5,-1
 513 1243 l 1,6,-1
 509 1203 l 1,7,-1
 333 1182 l 1,8,-1
 333 54 l 1,9,-1
 863 54 l 1,10,-1
 940 338 l 1,11,-1
 984 330 l 1,12,-1
 968 0 l 1,13,-1
 52 0 l 1,0,-1
EndSplineSet
Colour: ffffff
EndChar

StartChar: M
Encoding: 77 77 30
Width: 1683
VWidth: 0
Flags: MW
LayerCount: 2
Fore
SplineSet
46 0 m 1,0,-1
 51 33 l 1,1,-1
 218 64 l 1,2,-1
 301 1175 l 1,3,-1
 117 1208 l 1,4,-1
 124 1244 l 1,5,-1
 443 1244 l 1,6,-1
 514 1056 l 1,7,-1
 828 227 l 1,8,-1
 1186 1099 l 1,9,-1
 1247 1244 l 1,10,-1
 1573 1244 l 1,11,-1
 1568 1208 l 1,12,-1
 1396 1178 l 1,13,-1
 1451 57 l 1,14,-1
 1631 40 l 1,15,-1
 1629 0 l 1,16,-1
 1167 0 l 1,17,-1
 1173 33 l 1,18,-1
 1344 64 l 1,19,-1
 1287 1169 l 1,20,-1
 822 60 l 1,21,-1
 772 50 l 1,22,-1
 364 1151 l 1,23,-1
 285 57 l 1,24,-1
 466 40 l 1,25,-1
 460 0 l 1,26,-1
 46 0 l 1,0,-1
EndSplineSet
Colour: ffffff
EndChar

StartChar: N
Encoding: 78 78 31
Width: 1346
VWidth: 0
Flags: MW
LayerCount: 2
Fore
SplineSet
47 1208 m 1,0,-1
 55 1244 l 1,1,-1
 353 1244 l 1,2,-1
 1069 189 l 1,3,-1
 1069 1180 l 1,4,-1
 886 1205 l 1,5,-1
 892 1244 l 1,6,-1
 1316 1244 l 1,7,-1
 1308 1205 l 1,8,-1
 1142 1182 l 1,9,-1
 1142 -7 l 1,10,-1
 1088 -18 l 1,11,-1
 306 1133 l 1,12,-1
 306 65 l 1,13,-1
 490 46 l 1,14,-1
 480 0 l 1,15,-1
 59 0 l 1,16,-1
 65 42 l 1,17,-1
 232 72 l 1,18,-1
 232 1175 l 1,19,-1
 47 1208 l 1,0,-1
EndSplineSet
Colour: ffffff
EndChar

StartChar: Ntilde
Encoding: 209 209 32
Width: 1346
VWidth: 0
Flags: MW
LayerCount: 2
Fore
SplineSet
418 1384 m 1,0,1
 429 1442 429 1442 452 1478 c 128,-1,2
 475 1514 475 1514 503 1526 c 128,-1,3
 531 1538 531 1538 559.5 1535 c 128,-1,4
 588 1532 588 1532 617 1516 c 2,5,-1
 690 1475 l 2,6,7
 710 1464 710 1464 723.5 1458 c 128,-1,8
 737 1452 737 1452 753.5 1447.5 c 128,-1,9
 770 1443 770 1443 782.5 1446 c 128,-1,10
 795 1449 795 1449 808.5 1458 c 128,-1,11
 822 1467 822 1467 833.5 1486.5 c 128,-1,12
 845 1506 845 1506 856 1536 c 1,13,-1
 888 1528 l 1,14,15
 874 1458 874 1458 844 1419 c 128,-1,16
 814 1380 814 1380 774.5 1376 c 128,-1,17
 735 1372 735 1372 688 1396 c 1,18,-1
 616 1436 l 2,19,20
 598 1446 598 1446 588.5 1451 c 128,-1,21
 579 1456 579 1456 563 1462 c 128,-1,22
 547 1468 547 1468 537 1467.5 c 128,-1,23
 527 1467 527 1467 513.5 1463.5 c 128,-1,24
 500 1460 500 1460 490.5 1449.5 c 128,-1,25
 481 1439 481 1439 470 1420.5 c 128,-1,26
 459 1402 459 1402 449 1376 c 1,27,-1
 418 1384 l 1,0,1
47 1208 m 1,28,-1
 55 1244 l 1,29,-1
 353 1244 l 1,30,-1
 1069 189 l 1,31,-1
 1069 1180 l 1,32,-1
 886 1205 l 1,33,-1
 892 1244 l 1,34,-1
 1316 1244 l 1,35,-1
 1308 1205 l 1,36,-1
 1142 1182 l 1,37,-1
 1142 -7 l 1,38,-1
 1088 -18 l 1,39,-1
 306 1133 l 1,40,-1
 306 65 l 1,41,-1
 490 46 l 1,42,-1
 480 0 l 1,43,-1
 59 0 l 1,44,-1
 65 42 l 1,45,-1
 232 72 l 1,46,-1
 232 1175 l 1,47,-1
 47 1208 l 1,28,-1
EndSplineSet
Colour: ffffff
EndChar

StartChar: O
Encoding: 79 79 33
Width: 1221
VWidth: 0
Flags: MW
LayerCount: 2
Fore
SplineSet
164 669 m 0,0,1
 164 486 164 486 219.5 344 c 128,-1,2
 275 202 275 202 385 119.5 c 128,-1,3
 495 37 495 37 645 37 c 0,4,5
 731 37 731 37 804 66.5 c 128,-1,6
 877 96 877 96 928.5 146.5 c 128,-1,7
 980 197 980 197 1016 265 c 128,-1,8
 1052 333 1052 333 1069.5 411 c 128,-1,9
 1087 489 1087 489 1087 573 c 0,10,11
 1087 862 1087 862 961 1040 c 128,-1,12
 835 1218 835 1218 621 1218 c 0,13,14
 509 1218 509 1218 419.5 1170 c 128,-1,15
 330 1122 330 1122 275.5 1042.5 c 128,-1,16
 221 963 221 963 192.5 867.5 c 128,-1,17
 164 772 164 772 164 669 c 0,0,1
54 620 m 0,18,19
 54 812 54 812 128.5 960 c 128,-1,20
 203 1108 203 1108 343 1191 c 128,-1,21
 483 1274 483 1274 669 1274 c 0,22,23
 837 1274 837 1274 957.5 1188.5 c 128,-1,24
 1078 1103 1078 1103 1136.5 958.5 c 128,-1,25
 1195 814 1195 814 1195 627 c 0,26,27
 1195 533 1195 533 1173 441.5 c 128,-1,28
 1151 350 1151 350 1103 265 c 128,-1,29
 1055 180 1055 180 986 115 c 128,-1,30
 917 50 917 50 816.5 11.5 c 128,-1,31
 716 -27 716 -27 597 -27 c 0,32,33
 436 -27 436 -27 311 61.5 c 128,-1,34
 186 150 186 150 120 296.5 c 128,-1,35
 54 443 54 443 54 620 c 0,18,19
EndSplineSet
Colour: ffffff
EndChar

StartChar: Oacute
Encoding: 211 211 34
Width: 1221
VWidth: 0
Flags: MW
LayerCount: 2
Fore
SplineSet
143 669 m 0,0,1
 143 486 143 486 198.5 344 c 128,-1,2
 254 202 254 202 364 119.5 c 128,-1,3
 474 37 474 37 624 37 c 0,4,5
 710 37 710 37 783 66.5 c 128,-1,6
 856 96 856 96 907.5 146.5 c 128,-1,7
 959 197 959 197 995 265 c 128,-1,8
 1031 333 1031 333 1048.5 411 c 128,-1,9
 1066 489 1066 489 1066 573 c 0,10,11
 1066 862 1066 862 940 1040 c 128,-1,12
 814 1218 814 1218 600 1218 c 0,13,14
 488 1218 488 1218 398.5 1170 c 128,-1,15
 309 1122 309 1122 254.5 1042.5 c 128,-1,16
 200 963 200 963 171.5 867.5 c 128,-1,17
 143 772 143 772 143 669 c 0,0,1
33 620 m 0,18,19
 33 812 33 812 107.5 960 c 128,-1,20
 182 1108 182 1108 322 1191 c 128,-1,21
 462 1274 462 1274 648 1274 c 0,22,23
 816 1274 816 1274 936.5 1188.5 c 128,-1,24
 1057 1103 1057 1103 1115.5 958.5 c 128,-1,25
 1174 814 1174 814 1174 627 c 0,26,27
 1174 533 1174 533 1152 441.5 c 128,-1,28
 1130 350 1130 350 1082 265 c 128,-1,29
 1034 180 1034 180 965 115 c 128,-1,30
 896 50 896 50 795.5 11.5 c 128,-1,31
 695 -27 695 -27 576 -27 c 0,32,33
 415 -27 415 -27 290 61.5 c 128,-1,34
 165 150 165 150 99 296.5 c 128,-1,35
 33 443 33 443 33 620 c 0,18,19
541 1376 m 1,36,-1
 673 1713 l 1,37,-1
 769 1674 l 1,38,-1
 586 1350 l 1,39,-1
 541 1376 l 1,36,-1
EndSplineSet
Colour: ffffff
EndChar

StartChar: Ocircumflex
Encoding: 212 212 35
Width: 1221
VWidth: 0
Flags: MW
LayerCount: 2
Fore
SplineSet
143 669 m 0,0,1
 143 486 143 486 198.5 344 c 128,-1,2
 254 202 254 202 364 119.5 c 128,-1,3
 474 37 474 37 624 37 c 0,4,5
 710 37 710 37 783 66.5 c 128,-1,6
 856 96 856 96 907.5 146.5 c 128,-1,7
 959 197 959 197 995 265 c 128,-1,8
 1031 333 1031 333 1048.5 411 c 128,-1,9
 1066 489 1066 489 1066 573 c 0,10,11
 1066 862 1066 862 940 1040 c 128,-1,12
 814 1218 814 1218 600 1218 c 0,13,14
 488 1218 488 1218 398.5 1170 c 128,-1,15
 309 1122 309 1122 254.5 1042.5 c 128,-1,16
 200 963 200 963 171.5 867.5 c 128,-1,17
 143 772 143 772 143 669 c 0,0,1
33 620 m 0,18,19
 33 812 33 812 107.5 960 c 128,-1,20
 182 1108 182 1108 322 1191 c 128,-1,21
 462 1274 462 1274 648 1274 c 0,22,23
 816 1274 816 1274 936.5 1188.5 c 128,-1,24
 1057 1103 1057 1103 1115.5 958.5 c 128,-1,25
 1174 814 1174 814 1174 627 c 0,26,27
 1174 533 1174 533 1152 441.5 c 128,-1,28
 1130 350 1130 350 1082 265 c 128,-1,29
 1034 180 1034 180 965 115 c 128,-1,30
 896 50 896 50 795.5 11.5 c 128,-1,31
 695 -27 695 -27 576 -27 c 0,32,33
 415 -27 415 -27 290 61.5 c 128,-1,34
 165 150 165 150 99 296.5 c 128,-1,35
 33 443 33 443 33 620 c 0,18,19
409 1394 m 1,36,-1
 576 1575 l 1,37,-1
 630 1588 l 1,38,-1
 809 1402 l 1,39,-1
 777 1365 l 1,40,-1
 596 1500 l 1,41,-1
 587 1500 l 1,42,-1
 430 1364 l 1,43,-1
 409 1394 l 1,36,-1
EndSplineSet
Colour: ffffff
EndChar

StartChar: Odieresis
Encoding: 214 214 36
Width: 1221
VWidth: 0
Flags: MW
LayerCount: 2
Fore
SplineSet
143 669 m 0,0,1
 143 486 143 486 198.5 344 c 128,-1,2
 254 202 254 202 364 119.5 c 128,-1,3
 474 37 474 37 624 37 c 0,4,5
 710 37 710 37 783 66.5 c 128,-1,6
 856 96 856 96 907.5 146.5 c 128,-1,7
 959 197 959 197 995 265 c 128,-1,8
 1031 333 1031 333 1048.5 411 c 128,-1,9
 1066 489 1066 489 1066 573 c 0,10,11
 1066 862 1066 862 940 1040 c 128,-1,12
 814 1218 814 1218 600 1218 c 0,13,14
 488 1218 488 1218 398.5 1170 c 128,-1,15
 309 1122 309 1122 254.5 1042.5 c 128,-1,16
 200 963 200 963 171.5 867.5 c 128,-1,17
 143 772 143 772 143 669 c 0,0,1
33 620 m 0,18,19
 33 812 33 812 107.5 960 c 128,-1,20
 182 1108 182 1108 322 1191 c 128,-1,21
 462 1274 462 1274 648 1274 c 0,22,23
 816 1274 816 1274 936.5 1188.5 c 128,-1,24
 1057 1103 1057 1103 1115.5 958.5 c 128,-1,25
 1174 814 1174 814 1174 627 c 0,26,27
 1174 533 1174 533 1152 441.5 c 128,-1,28
 1130 350 1130 350 1082 265 c 128,-1,29
 1034 180 1034 180 965 115 c 128,-1,30
 896 50 896 50 795.5 11.5 c 128,-1,31
 695 -27 695 -27 576 -27 c 0,32,33
 415 -27 415 -27 290 61.5 c 128,-1,34
 165 150 165 150 99 296.5 c 128,-1,35
 33 443 33 443 33 620 c 0,18,19
693 1454 m 0,36,37
 693 1532 693 1532 747 1532 c 0,38,39
 805 1532 805 1532 805 1454 c 0,40,41
 805 1373 805 1373 748 1373 c 0,42,43
 693 1373 693 1373 693 1454 c 0,36,37
424 1454 m 0,44,45
 424 1532 424 1532 479 1532 c 0,46,47
 537 1532 537 1532 537 1454 c 0,48,49
 537 1413 537 1413 524.5 1393 c 128,-1,50
 512 1373 512 1373 481 1373 c 0,51,52
 424 1373 424 1373 424 1454 c 0,44,45
EndSplineSet
Colour: ffffff
EndChar

StartChar: Ograve
Encoding: 210 210 37
Width: 1221
VWidth: 0
Flags: MW
LayerCount: 2
Fore
SplineSet
143 669 m 0,0,1
 143 486 143 486 198.5 344 c 128,-1,2
 254 202 254 202 364 119.5 c 128,-1,3
 474 37 474 37 624 37 c 0,4,5
 710 37 710 37 783 66.5 c 128,-1,6
 856 96 856 96 907.5 146.5 c 128,-1,7
 959 197 959 197 995 265 c 128,-1,8
 1031 333 1031 333 1048.5 411 c 128,-1,9
 1066 489 1066 489 1066 573 c 0,10,11
 1066 862 1066 862 940 1040 c 128,-1,12
 814 1218 814 1218 600 1218 c 0,13,14
 488 1218 488 1218 398.5 1170 c 128,-1,15
 309 1122 309 1122 254.5 1042.5 c 128,-1,16
 200 963 200 963 171.5 867.5 c 128,-1,17
 143 772 143 772 143 669 c 0,0,1
33 620 m 0,18,19
 33 812 33 812 107.5 960 c 128,-1,20
 182 1108 182 1108 322 1191 c 128,-1,21
 462 1274 462 1274 648 1274 c 0,22,23
 816 1274 816 1274 936.5 1188.5 c 128,-1,24
 1057 1103 1057 1103 1115.5 958.5 c 128,-1,25
 1174 814 1174 814 1174 627 c 0,26,27
 1174 533 1174 533 1152 441.5 c 128,-1,28
 1130 350 1130 350 1082 265 c 128,-1,29
 1034 180 1034 180 965 115 c 128,-1,30
 896 50 896 50 795.5 11.5 c 128,-1,31
 695 -27 695 -27 576 -27 c 0,32,33
 415 -27 415 -27 290 61.5 c 128,-1,34
 165 150 165 150 99 296.5 c 128,-1,35
 33 443 33 443 33 620 c 0,18,19
410 1667 m 1,36,-1
 504 1704 l 1,37,-1
 637 1368 l 1,38,-1
 591 1341 l 1,39,-1
 410 1667 l 1,36,-1
EndSplineSet
Colour: ffffff
EndChar

StartChar: Oslash
Encoding: 216 216 38
Width: 1283
VWidth: 0
Flags: MW
LayerCount: 2
Fore
SplineSet
84 620 m 0,0,1
 84 912 84 912 244.5 1093 c 128,-1,2
 405 1274 405 1274 674 1274 c 0,3,4
 930 1274 930 1274 1069 1083 c 1,5,-1
 1148 1161 l 1,6,-1
 1236 1127 l 1,7,-1
 1108 1022 l 1,8,9
 1195 861 1195 861 1195 627 c 0,10,11
 1195 533 1195 533 1173 441.5 c 128,-1,12
 1151 350 1151 350 1103.5 265 c 128,-1,13
 1056 180 1056 180 988.5 115 c 128,-1,14
 921 50 921 50 822 11.5 c 128,-1,15
 723 -27 723 -27 605 -27 c 0,16,17
 484 -27 484 -27 384 27.5 c 128,-1,18
 284 82 284 82 213 180 c 1,19,-1
 130 92 l 1,20,-1
 46 127 l 1,21,-1
 176 240 l 1,22,23
 84 406 84 406 84 620 c 0,0,1
289 261 m 1,24,25
 349 154 349 154 441.5 95.5 c 128,-1,26
 534 37 534 37 653 37 c 0,27,28
 737 37 737 37 809 69.5 c 128,-1,29
 881 102 881 102 931.5 156 c 128,-1,30
 982 210 982 210 1017.5 279.5 c 128,-1,31
 1053 349 1053 349 1070 424 c 128,-1,32
 1087 499 1087 499 1087 573 c 0,33,34
 1087 791 1087 791 1014 950 c 1,35,-1
 289 261 l 1,24,25
265 308 m 1,36,-1
 991 995 l 1,37,38
 931 1102 931 1102 837.5 1160 c 128,-1,39
 744 1218 744 1218 626 1218 c 0,40,41
 541 1218 541 1218 469 1187 c 128,-1,42
 397 1156 397 1156 347 1103.5 c 128,-1,43
 297 1051 297 1051 262 981.5 c 128,-1,44
 227 912 227 912 210.5 835.5 c 128,-1,45
 194 759 194 759 194 679 c 0,46,47
 194 465 194 465 265 308 c 1,36,-1
EndSplineSet
Colour: ffffff
EndChar

StartChar: Otilde
Encoding: 213 213 39
Width: 1221
VWidth: 0
Flags: MW
LayerCount: 2
Fore
SplineSet
432 1404 m 1,0,1
 443 1462 443 1462 465.5 1498 c 128,-1,2
 488 1534 488 1534 516 1546 c 128,-1,3
 544 1558 544 1558 573 1555 c 128,-1,4
 602 1552 602 1552 630 1536 c 2,5,-1
 704 1495 l 2,6,7
 724 1484 724 1484 737 1478 c 128,-1,8
 750 1472 750 1472 767 1467.5 c 128,-1,9
 784 1463 784 1463 796.5 1466 c 128,-1,10
 809 1469 809 1469 822.5 1478 c 128,-1,11
 836 1487 836 1487 848 1506.5 c 128,-1,12
 860 1526 860 1526 870 1556 c 1,13,-1
 902 1548 l 1,14,15
 888 1478 888 1478 857.5 1439 c 128,-1,16
 827 1400 827 1400 787.5 1396 c 128,-1,17
 748 1392 748 1392 702 1416 c 1,18,-1
 630 1456 l 2,19,20
 612 1466 612 1466 602 1471 c 128,-1,21
 592 1476 592 1476 576 1482 c 128,-1,22
 560 1488 560 1488 550.5 1487.5 c 128,-1,23
 541 1487 541 1487 527.5 1483.5 c 128,-1,24
 514 1480 514 1480 504 1469.5 c 128,-1,25
 494 1459 494 1459 483 1440.5 c 128,-1,26
 472 1422 472 1422 462 1396 c 1,27,-1
 432 1404 l 1,0,1
164 669 m 0,28,29
 164 486 164 486 219.5 344 c 128,-1,30
 275 202 275 202 385 119.5 c 128,-1,31
 495 37 495 37 645 37 c 0,32,33
 731 37 731 37 804 66.5 c 128,-1,34
 877 96 877 96 928.5 146.5 c 128,-1,35
 980 197 980 197 1016 265 c 128,-1,36
 1052 333 1052 333 1069.5 411 c 128,-1,37
 1087 489 1087 489 1087 573 c 0,38,39
 1087 862 1087 862 961 1040 c 128,-1,40
 835 1218 835 1218 621 1218 c 0,41,42
 509 1218 509 1218 419.5 1170 c 128,-1,43
 330 1122 330 1122 275.5 1042.5 c 128,-1,44
 221 963 221 963 192.5 867.5 c 128,-1,45
 164 772 164 772 164 669 c 0,28,29
54 620 m 0,46,47
 54 812 54 812 128.5 960 c 128,-1,48
 203 1108 203 1108 343 1191 c 128,-1,49
 483 1274 483 1274 669 1274 c 0,50,51
 837 1274 837 1274 957.5 1188.5 c 128,-1,52
 1078 1103 1078 1103 1136.5 958.5 c 128,-1,53
 1195 814 1195 814 1195 627 c 0,54,55
 1195 533 1195 533 1173 441.5 c 128,-1,56
 1151 350 1151 350 1103 265 c 128,-1,57
 1055 180 1055 180 986 115 c 128,-1,58
 917 50 917 50 816.5 11.5 c 128,-1,59
 716 -27 716 -27 597 -27 c 0,60,61
 436 -27 436 -27 311 61.5 c 128,-1,62
 186 150 186 150 120 296.5 c 128,-1,63
 54 443 54 443 54 620 c 0,46,47
EndSplineSet
Colour: ffffff
EndChar

StartChar: P
Encoding: 80 80 40
Width: 999
VWidth: 0
Flags: MW
LayerCount: 2
Fore
SplineSet
50 0 m 1,0,-1
 55 42 l 1,1,-1
 213 72 l 1,2,-1
 213 1153 l 1,3,-1
 51 1175 l 1,4,-1
 60 1211 l 1,5,6
 85 1215 85 1215 150.5 1226 c 128,-1,7
 216 1237 216 1237 249.5 1241.5 c 128,-1,8
 283 1246 283 1246 343 1251 c 128,-1,9
 403 1256 403 1256 464 1256 c 0,10,11
 945 1256 945 1256 945 885 c 0,12,13
 945 763 945 763 875.5 664.5 c 128,-1,14
 806 566 806 566 696.5 514 c 128,-1,15
 587 462 587 462 462 462 c 0,16,17
 426 462 426 462 412 464 c 1,18,-1
 402 506 l 1,19,-1
 456 509 l 1,20,21
 556 513 556 513 630.5 542 c 128,-1,22
 705 571 705 571 748.5 619 c 128,-1,23
 792 667 792 667 813 725.5 c 128,-1,24
 834 784 834 784 834 853 c 0,25,26
 834 1016 834 1016 731.5 1114 c 128,-1,27
 629 1212 629 1212 433 1212 c 1,28,-1
 323 1206 l 1,29,-1
 323 66 l 1,30,-1
 557 46 l 1,31,-1
 549 0 l 1,32,-1
 50 0 l 1,0,-1
EndSplineSet
Colour: ffffff
EndChar

StartChar: Q
Encoding: 81 81 41
Width: 1218
VWidth: 0
Flags: MW
LayerCount: 2
Fore
SplineSet
158 660 m 0,0,1
 158 389 158 389 303.5 210.5 c 128,-1,2
 449 32 449 32 667 27 c 1,3,4
 847 65 847 65 968 214 c 128,-1,5
 1089 363 1089 363 1089 593 c 0,6,7
 1089 880 1089 880 956.5 1049 c 128,-1,8
 824 1218 824 1218 601 1218 c 0,9,10
 459 1218 459 1218 358 1145.5 c 128,-1,11
 257 1073 257 1073 207.5 948.5 c 128,-1,12
 158 824 158 824 158 660 c 0,0,1
54 615 m 0,13,14
 54 805 54 805 123.5 953.5 c 128,-1,15
 193 1102 193 1102 328.5 1188 c 128,-1,16
 464 1274 464 1274 646 1274 c 0,17,18
 757 1274 757 1274 848 1242 c 128,-1,19
 939 1210 939 1210 1002.5 1153 c 128,-1,20
 1066 1096 1066 1096 1109 1016 c 128,-1,21
 1152 936 1152 936 1172.5 841 c 128,-1,22
 1193 746 1193 746 1193 637 c 0,23,24
 1193 399 1193 399 1061 218.5 c 128,-1,25
 929 38 929 38 710 -12 c 1,26,27
 743 -84 743 -84 781 -136 c 128,-1,28
 819 -188 819 -188 857 -219.5 c 128,-1,29
 895 -251 895 -251 944.5 -271 c 128,-1,30
 994 -291 994 -291 1039.5 -299.5 c 128,-1,31
 1085 -308 1085 -308 1149 -313 c 1,32,-1
 1140 -358 l 1,33,34
 1108 -375 1108 -375 1007 -375 c 0,35,36
 873 -375 873 -375 781 -274 c 128,-1,37
 689 -173 689 -173 660 -22 c 1,38,39
 634 -25 634 -25 580 -25 c 0,40,41
 439 -25 439 -25 318 60.5 c 128,-1,42
 197 146 197 146 125.5 294 c 128,-1,43
 54 442 54 442 54 615 c 0,13,14
EndSplineSet
Colour: ffffff
EndChar

StartChar: R
Encoding: 82 82 42
Width: 1164
VWidth: 0
Flags: MW
LayerCount: 2
Back
SplineSet
30 0 m 5,0,-1
 41 74 l 1,1,-1
 208 121 l 1,2,-1
 208 1100 l 1,3,-1
 37 1130 l 1,4,-1
 47 1207 l 1,5,6
 341 1253 341 1253 503 1253 c 0,7,8
 619 1253 619 1253 707.5 1237 c 0
 796 1221 796 1221 864.5 1185.5 c 0
 933 1150 933 1150 969 1089 c 0
 1005 1028 1005 1028 1005 943 c 0,9,10
 1005 841 1005 841 929 744 c 0
 853 647 853 647 718 599 c 1,11,-1
 718 598 l 1,12,-1
 898 349 l 2,13,14
 943 287 943 287 963 260.5 c 0
 983 234 983 234 1015 195.5 c 0
 1047 157 1047 157 1069.5 140 c 0
 1092 123 1092 123 1123 105.5 c 0
 1154 88 1154 88 1191 77 c 2,15,-1
 1224 67 l 1,16,-1
 1209 -1 l 1,17,18
 1152 -21 1152 -21 1089 -21 c 0,19,20
 978 -21 978 -21 891.5 51.5 c 0
 805 124 805 124 733 253 c 2,21,-1
 574 537 l 1,22,-1
 400 537 l 1,23,-1
 400 126 l 1,24,-1
 588 83 l 1,25,-1
 578 0 l 1,26,-1
 30 0 l 5,0,-1
400 628 m 5,27,-1
 598 628 l 1,28,29
 682 656 682 656 740 722 c 0
 798 788 798 788 798 887 c 0,30,31
 798 1013 798 1013 724 1091 c 0
 650 1169 650 1169 520 1169 c 1,32,33
 400 1164 l 1,34,-1
 400 628 l 5,27,-1
EndSplineSet
Fore
SplineSet
316 587 m 1,0,-1
 613 587 l 1,1,2
 700 615 700 615 758.5 699.5 c 128,-1,3
 817 784 817 784 817 883 c 0,4,5
 817 1041 817 1041 716 1124 c 128,-1,6
 615 1207 615 1207 437 1207 c 1,7,-1
 316 1202 l 1,8,-1
 316 587 l 1,0,-1
50 0 m 1,9,-1
 57 42 l 1,10,-1
 213 72 l 1,11,-1
 213 1153 l 1,12,-1
 53 1174 l 1,13,-1
 62 1210 l 1,14,15
 329 1253 329 1253 487 1253 c 0,16,17
 610 1253 610 1253 708 1215.5 c 128,-1,18
 806 1178 806 1178 866.5 1099 c 128,-1,19
 927 1020 927 1020 927 910 c 0,20,21
 927 695 927 695 686 570 c 1,22,-1
 686 569 l 1,23,-1
 849 323 l 2,24,25
 941 184 941 184 1005.5 128 c 128,-1,26
 1070 72 1070 72 1135 50 c 2,27,-1
 1183 34 l 1,28,-1
 1177 -3 l 1,29,30
 1134 -18 1134 -18 1084 -18 c 0,31,32
 991 -18 991 -18 923 40.5 c 128,-1,33
 855 99 855 99 773 238 c 2,34,-1
 600 531 l 1,35,-1
 316 531 l 1,36,-1
 316 65 l 1,37,-1
 527 46 l 1,38,-1
 517 0 l 1,39,-1
 50 0 l 1,9,-1
EndSplineSet
Colour: ffffff
EndChar

StartChar: S
Encoding: 83 83 43
Width: 838
VWidth: 0
Flags: MW
LayerCount: 2
Back
SplineSet
56 122 m 5,0,-1
 69 389 l 1,1,-1
 171 375 l 1,2,-1
 210 187 l 1,3,4
 239 141 239 141 294.5 109 c 0
 350 77 350 77 416 77 c 0,5,6
 473 77 473 77 524.5 97.5 c 0
 576 118 576 118 614.5 167.5 c 0
 653 217 653 217 653 287 c 0,7,8
 653 339 653 339 621.5 383.5 c 0
 590 428 590 428 539.5 461 c 0
 489 494 489 494 427.5 526 c 0
 366 558 366 558 305 594.5 c 0
 244 631 244 631 193.5 673.5 c 0
 143 716 143 716 111.5 778.5 c 0
 80 841 80 841 80 916 c 0,9,10
 80 1025 80 1025 137 1107 c 0
 194 1189 194 1189 281 1229 c 0
 368 1269 368 1269 469 1269 c 0,11,12
 631 1269 631 1269 751 1169 c 1,13,14
 729 887 l 1,15,-1
 630 899 l 1,16,-1
 605 1090 l 1,17,18
 589 1122 589 1122 539.5 1153.5 c 0
 490 1185 490 1185 435 1185 c 0,19,20
 355 1185 355 1185 304 1137 c 0
 253 1089 253 1089 253 995 c 0,21,22
 253 937 253 937 285 889.5 c 0
 317 842 317 842 368.5 807.5 c 0
 420 773 420 773 482.5 741 c 0
 545 709 545 709 607.5 673 c 0
 670 637 670 637 721.5 595.5 c 0
 773 554 773 554 805 492 c 0
 837 430 837 430 837 354 c 0,23,24
 837 243 837 243 773 155 c 0
 709 67 709 67 608 21.5 c 0
 507 -24 507 -24 392 -24 c 0,25,26
 288 -24 288 -24 197.5 17.5 c 0
 107 59 107 59 56 122 c 5,0,-1
EndSplineSet
Fore
SplineSet
51 86 m 1,0,-1
 74 391 l 1,1,-1
 129 383 l 1,2,-1
 147 144 l 1,3,4
 181 95 181 95 261.5 66 c 128,-1,5
 342 37 342 37 433 37 c 0,6,7
 545 37 545 37 624 96.5 c 128,-1,8
 703 156 703 156 703 262 c 0,9,10
 703 322 703 322 669.5 375.5 c 128,-1,11
 636 429 636 429 583 470 c 128,-1,12
 530 511 530 511 465.5 551 c 128,-1,13
 401 591 401 591 337 632.5 c 128,-1,14
 273 674 273 674 220 719.5 c 128,-1,15
 167 765 167 765 133.5 826.5 c 128,-1,16
 100 888 100 888 100 959 c 0,17,18
 100 1054 100 1054 153 1127 c 128,-1,19
 206 1200 206 1200 285 1235.5 c 128,-1,20
 364 1271 364 1271 452 1271 c 128,-1,21
 540 1271 540 1271 622 1248 c 128,-1,22
 704 1225 704 1225 754 1181 c 1,23,-1
 731 861 l 1,24,-1
 675 868 l 1,25,-1
 658 1111 l 1,26,27
 628 1155 628 1155 558 1184.5 c 128,-1,28
 488 1214 488 1214 416 1214 c 0,29,30
 325 1214 325 1214 261.5 1157.5 c 128,-1,31
 198 1101 198 1101 198 1006 c 0,32,33
 198 942 198 942 232 885 c 128,-1,34
 266 828 266 828 320 785 c 128,-1,35
 374 742 374 742 439.5 700.5 c 128,-1,36
 505 659 505 659 571 618 c 128,-1,37
 637 577 637 577 691 533 c 128,-1,38
 745 489 745 489 779 431 c 128,-1,39
 813 373 813 373 813 308 c 0,40,41
 813 163 813 163 695 68.5 c 128,-1,42
 577 -26 577 -26 381 -26 c 0,43,44
 277 -26 277 -26 189.5 5.5 c 128,-1,45
 102 37 102 37 51 86 c 1,0,-1
EndSplineSet
Colour: ffffff
EndChar

StartChar: T
Encoding: 84 84 44
Width: 1136
VWidth: 0
Flags: MW
LayerCount: 2
Fore
SplineSet
49 1244 m 1,0,-1
 1082 1244 l 1,1,-1
 1047 912 l 1,2,-1
 997 918 l 1,3,-1
 980 1193 l 1,4,-1
 609 1193 l 1,5,-1
 609 73 l 1,6,-1
 786 46 l 1,7,-1
 775 0 l 1,8,-1
 322 0 l 1,9,-1
 327 42 l 1,10,-1
 502 72 l 1,11,-1
 502 1193 l 1,12,-1
 146 1193 l 1,13,-1
 111 914 l 1,14,-1
 59 922 l 1,15,-1
 49 1244 l 1,0,-1
EndSplineSet
Colour: ffffff
EndChar

StartChar: Thorn
Encoding: 222 222 45
Width: 1008
VWidth: 0
Flags: MW
LayerCount: 2
Fore
SplineSet
49 1205 m 1,0,-1
 54 1244 l 1,1,-1
 512 1244 l 1,2,-1
 507 1205 l 1,3,-1
 329 1182 l 1,4,-1
 329 1021 l 1,5,6
 371 1024 371 1024 470 1024 c 0,7,8
 573 1024 573 1024 659 1002.5 c 128,-1,9
 745 981 745 981 812 938 c 128,-1,10
 879 895 879 895 916.5 824 c 128,-1,11
 954 753 954 753 954 660 c 0,12,13
 954 539 954 539 885 443.5 c 128,-1,14
 816 348 816 348 706.5 298 c 128,-1,15
 597 248 597 248 471 248 c 0,16,17
 429 248 429 248 418 250 c 1,18,-1
 408 293 l 1,19,-1
 462 296 l 1,20,21
 559 300 559 300 631.5 329 c 128,-1,22
 704 358 704 358 746.5 406 c 128,-1,23
 789 454 789 454 809.5 512.5 c 128,-1,24
 830 571 830 571 830 640 c 0,25,26
 830 706 830 706 805.5 766 c 128,-1,27
 781 826 781 826 734 874 c 128,-1,28
 687 922 687 922 610.5 950.5 c 128,-1,29
 534 979 534 979 439 979 c 1,30,-1
 329 972 l 1,31,-1
 329 66 l 1,32,-1
 563 46 l 1,33,-1
 555 0 l 1,34,-1
 56 0 l 1,35,-1
 61 42 l 1,36,-1
 219 72 l 1,37,-1
 222 1180 l 1,38,-1
 49 1205 l 1,0,-1
EndSplineSet
Colour: ffffff
EndChar

StartChar: U
Encoding: 85 85 46
Width: 1357
VWidth: 0
Flags: MW
LayerCount: 2
Back
SplineSet
42 1168 m 5,0,-1
 55 1244 l 1,1,-1
 597 1244 l 1,2,-1
 588 1168 l 1,3,-1
 419 1130 l 1,4,-1
 419 510 l 2,5,6
 419 304 419 304 512.5 204.5 c 0
 606 105 606 105 767 105 c 0,7,8
 923 105 923 105 1007 198 c 0
 1091 291 1091 291 1092 482 c 2,9,-1
 1095 1126 l 1,10,-1
 912 1168 l 1,11,-1
 922 1244 l 1,12,-1
 1400 1244 l 1,13,-1
 1389 1168 l 1,14,-1
 1223 1130 l 1,15,-1
 1218 515 l 2,16,17
 1216 241 1216 241 1095 107 c 0
 974 -27 974 -27 717 -27 c 0,18,19
 640 -27 640 -27 576.5 -16.5 c 0
 513 -6 513 -6 445.5 26.5 c 0
 378 59 378 59 331.5 112 c 0
 285 165 285 165 255.5 256 c 0
 226 347 226 347 226 469 c 2,20,-1
 226 1126 l 1,21,-1
 42 1168 l 5,0,-1
EndSplineSet
Fore
SplineSet
46 1205 m 1,0,-1
 50 1244 l 1,1,-1
 504 1244 l 1,2,-1
 500 1205 l 1,3,-1
 331 1182 l 1,4,-1
 331 485 l 2,5,6
 331 362 331 362 359 274.5 c 128,-1,7
 387 187 387 187 440.5 137 c 128,-1,8
 494 87 494 87 563 64.5 c 128,-1,9
 632 42 632 42 723 42 c 0,10,11
 1093 42 1093 42 1093 449 c 2,12,-1
 1093 1180 l 1,13,-1
 907 1205 l 1,14,-1
 912 1244 l 1,15,-1
 1337 1244 l 1,16,-1
 1329 1205 l 1,17,-1
 1163 1182 l 1,18,-1
 1160 490 l 2,19,20
 1158 225 1158 225 1048 99 c 128,-1,21
 938 -27 938 -27 690 -27 c 0,22,23
 611 -27 611 -27 547.5 -15 c 128,-1,24
 484 -3 484 -3 422.5 29 c 128,-1,25
 361 61 361 61 319.5 113.5 c 128,-1,26
 278 166 278 166 252.5 252 c 128,-1,27
 227 338 227 338 227 452 c 2,28,-1
 227 1180 l 1,29,-1
 46 1205 l 1,0,-1
EndSplineSet
Colour: ffffff
EndChar

StartChar: Uacute
Encoding: 218 218 47
Width: 1356
VWidth: 0
Flags: MW
LayerCount: 2
Fore
SplineSet
54 1205 m 1,0,-1
 58 1244 l 1,1,-1
 512 1244 l 1,2,-1
 508 1205 l 1,3,-1
 339 1182 l 1,4,-1
 339 485 l 2,5,6
 339 362 339 362 367 274.5 c 128,-1,7
 395 187 395 187 448.5 137 c 128,-1,8
 502 87 502 87 571 64.5 c 128,-1,9
 640 42 640 42 731 42 c 0,10,11
 1101 42 1101 42 1101 449 c 2,12,-1
 1101 1180 l 1,13,-1
 915 1205 l 1,14,-1
 920 1244 l 1,15,-1
 1345 1244 l 1,16,-1
 1337 1205 l 1,17,-1
 1171 1182 l 1,18,-1
 1168 490 l 2,19,20
 1166 225 1166 225 1056 99 c 128,-1,21
 946 -27 946 -27 698 -27 c 0,22,23
 619 -27 619 -27 555.5 -15 c 128,-1,24
 492 -3 492 -3 430.5 29 c 128,-1,25
 369 61 369 61 327.5 113.5 c 128,-1,26
 286 166 286 166 260.5 252 c 128,-1,27
 235 338 235 338 235 452 c 2,28,-1
 235 1180 l 1,29,-1
 54 1205 l 1,0,-1
627 1376 m 1,30,-1
 759 1713 l 1,31,-1
 855 1674 l 1,32,-1
 672 1350 l 1,33,-1
 627 1376 l 1,30,-1
EndSplineSet
Colour: ffffff
EndChar

StartChar: Ucircumflex
Encoding: 219 219 48
Width: 1356
VWidth: 0
Flags: MW
LayerCount: 2
Fore
SplineSet
54 1205 m 1,0,-1
 58 1244 l 1,1,-1
 512 1244 l 1,2,-1
 508 1205 l 1,3,-1
 339 1182 l 1,4,-1
 339 485 l 2,5,6
 339 362 339 362 367 274.5 c 128,-1,7
 395 187 395 187 448.5 137 c 128,-1,8
 502 87 502 87 571 64.5 c 128,-1,9
 640 42 640 42 731 42 c 0,10,11
 1101 42 1101 42 1101 449 c 2,12,-1
 1101 1180 l 1,13,-1
 915 1205 l 1,14,-1
 920 1244 l 1,15,-1
 1345 1244 l 1,16,-1
 1337 1205 l 1,17,-1
 1171 1182 l 1,18,-1
 1168 490 l 2,19,20
 1166 225 1166 225 1056 99 c 128,-1,21
 946 -27 946 -27 698 -27 c 0,22,23
 619 -27 619 -27 555.5 -15 c 128,-1,24
 492 -3 492 -3 430.5 29 c 128,-1,25
 369 61 369 61 327.5 113.5 c 128,-1,26
 286 166 286 166 260.5 252 c 128,-1,27
 235 338 235 338 235 452 c 2,28,-1
 235 1180 l 1,29,-1
 54 1205 l 1,0,-1
494 1394 m 1,30,-1
 661 1575 l 1,31,-1
 715 1588 l 1,32,-1
 894 1402 l 1,33,-1
 862 1365 l 1,34,-1
 681 1500 l 1,35,-1
 672 1500 l 1,36,-1
 515 1364 l 1,37,-1
 494 1394 l 1,30,-1
EndSplineSet
Colour: ffffff
EndChar

StartChar: Udieresis
Encoding: 220 220 49
Width: 1357
VWidth: 0
Flags: MW
LayerCount: 2
Fore
SplineSet
54 1205 m 1,0,-1
 58 1244 l 1,1,-1
 512 1244 l 1,2,-1
 508 1205 l 1,3,-1
 339 1182 l 1,4,-1
 339 485 l 2,5,6
 339 362 339 362 367 274.5 c 128,-1,7
 395 187 395 187 448.5 137 c 128,-1,8
 502 87 502 87 571 64.5 c 128,-1,9
 640 42 640 42 731 42 c 0,10,11
 1101 42 1101 42 1101 449 c 2,12,-1
 1101 1180 l 1,13,-1
 915 1205 l 1,14,-1
 920 1244 l 1,15,-1
 1345 1244 l 1,16,-1
 1337 1205 l 1,17,-1
 1171 1182 l 1,18,-1
 1168 490 l 2,19,20
 1166 225 1166 225 1056 99 c 128,-1,21
 946 -27 946 -27 698 -27 c 0,22,23
 619 -27 619 -27 555.5 -15 c 128,-1,24
 492 -3 492 -3 430.5 29 c 128,-1,25
 369 61 369 61 327.5 113.5 c 128,-1,26
 286 166 286 166 260.5 252 c 128,-1,27
 235 338 235 338 235 452 c 2,28,-1
 235 1180 l 1,29,-1
 54 1205 l 1,0,-1
762 1454 m 0,30,31
 762 1532 762 1532 816 1532 c 0,32,33
 874 1532 874 1532 874 1454 c 0,34,35
 874 1373 874 1373 817 1373 c 0,36,37
 762 1373 762 1373 762 1454 c 0,30,31
493 1454 m 0,38,39
 493 1532 493 1532 548 1532 c 0,40,41
 606 1532 606 1532 606 1454 c 0,42,43
 606 1413 606 1413 593.5 1393 c 128,-1,44
 581 1373 581 1373 550 1373 c 0,45,46
 493 1373 493 1373 493 1454 c 0,38,39
EndSplineSet
Colour: ffffff
EndChar

StartChar: Ugrave
Encoding: 217 217 50
Width: 1356
VWidth: 0
Flags: MW
LayerCount: 2
Fore
SplineSet
54 1205 m 1,0,-1
 58 1244 l 1,1,-1
 512 1244 l 1,2,-1
 508 1205 l 1,3,-1
 339 1182 l 1,4,-1
 339 485 l 2,5,6
 339 362 339 362 367 274.5 c 128,-1,7
 395 187 395 187 448.5 137 c 128,-1,8
 502 87 502 87 571 64.5 c 128,-1,9
 640 42 640 42 731 42 c 0,10,11
 1101 42 1101 42 1101 449 c 2,12,-1
 1101 1180 l 1,13,-1
 915 1205 l 1,14,-1
 920 1244 l 1,15,-1
 1345 1244 l 1,16,-1
 1337 1205 l 1,17,-1
 1171 1182 l 1,18,-1
 1168 490 l 2,19,20
 1166 225 1166 225 1056 99 c 128,-1,21
 946 -27 946 -27 698 -27 c 0,22,23
 619 -27 619 -27 555.5 -15 c 128,-1,24
 492 -3 492 -3 430.5 29 c 128,-1,25
 369 61 369 61 327.5 113.5 c 128,-1,26
 286 166 286 166 260.5 252 c 128,-1,27
 235 338 235 338 235 452 c 2,28,-1
 235 1180 l 1,29,-1
 54 1205 l 1,0,-1
515 1667 m 1,30,-1
 609 1704 l 1,31,-1
 742 1368 l 1,32,-1
 696 1341 l 1,33,-1
 515 1667 l 1,30,-1
EndSplineSet
Colour: ffffff
EndChar

StartChar: V
Encoding: 86 86 51
Width: 1285
VWidth: 0
Flags: MW
LayerCount: 2
Fore
SplineSet
37 1208 m 1,0,-1
 41 1244 l 1,1,-1
 465 1244 l 1,2,-1
 461 1208 l 1,3,-1
 293 1182 l 1,4,-1
 649 160 l 1,5,-1
 1036 1178 l 1,6,-1
 850 1208 l 1,7,-1
 853 1244 l 1,8,-1
 1243 1244 l 1,9,-1
 1239 1208 l 1,10,-1
 1110 1182 l 1,11,-1
 659 -11 l 1,12,-1
 608 -26 l 1,13,-1
 184 1178 l 1,14,-1
 37 1208 l 1,0,-1
EndSplineSet
Colour: ffffff
EndChar

StartChar: W
Encoding: 87 87 52
Width: 1769
VWidth: 0
Flags: MW
LayerCount: 2
Fore
SplineSet
16 1207 m 1,0,-1
 23 1244 l 1,1,-1
 416 1244 l 1,2,-1
 413 1212 l 1,3,-1
 248 1182 l 1,4,-1
 564 178 l 1,5,-1
 873 1202 l 1,6,-1
 919 1208 l 1,7,-1
 1222 178 l 1,8,-1
 1566 1175 l 1,9,-1
 1379 1210 l 1,10,-1
 1384 1244 l 1,11,-1
 1767 1244 l 1,12,-1
 1764 1208 l 1,13,-1
 1646 1178 l 1,14,-1
 1232 -13 l 1,15,-1
 1167 -26 l 1,16,-1
 879 990 l 1,17,-1
 574 -13 l 1,18,-1
 503 -25 l 1,19,-1
 138 1178 l 1,20,-1
 16 1207 l 1,0,-1
EndSplineSet
Colour: ffffff
EndChar

StartChar: X
Encoding: 88 88 53
Width: 1305
VWidth: 0
Flags: MW
LayerCount: 2
Fore
SplineSet
50 0 m 1,0,-1
 56 36 l 1,1,-1
 180 64 l 1,2,-1
 593 630 l 1,3,-1
 207 1184 l 1,4,-1
 71 1212 l 1,5,-1
 75 1244 l 1,6,-1
 495 1244 l 1,7,-1
 490 1212 l 1,8,-1
 334 1182 l 1,9,-1
 667 699 l 1,10,-1
 1023 1184 l 1,11,-1
 851 1207 l 1,12,-1
 856 1244 l 1,13,-1
 1224 1244 l 1,14,-1
 1224 1208 l 1,15,-1
 1098 1187 l 1,16,-1
 703 653 l 1,17,-1
 1116 53 l 1,18,-1
 1243 36 l 1,19,-1
 1236 0 l 1,20,-1
 821 0 l 1,21,-1
 825 27 l 1,22,-1
 988 60 l 1,23,-1
 634 576 l 1,24,-1
 259 60 l 1,25,-1
 424 42 l 1,26,-1
 416 0 l 1,27,-1
 50 0 l 1,0,-1
EndSplineSet
Colour: ffffff
EndChar

StartChar: Y
Encoding: 89 89 54
Width: 1182
VWidth: 0
Flags: MW
LayerCount: 2
Fore
SplineSet
48 1207 m 1,0,-1
 52 1243 l 1,1,-1
 469 1243 l 1,2,-1
 465 1207 l 1,3,-1
 299 1181 l 1,4,-1
 612 571 l 1,5,-1
 922 1178 l 1,6,-1
 737 1208 l 1,7,-1
 739 1244 l 1,8,-1
 1129 1244 l 1,9,-1
 1126 1208 l 1,10,-1
 997 1182 l 1,11,-1
 648 489 l 1,12,-1
 648 67 l 1,13,-1
 829 46 l 1,14,-1
 821 0 l 1,15,-1
 361 0 l 1,16,-1
 367 42 l 1,17,-1
 542 72 l 1,18,-1
 542 489 l 1,19,-1
 187 1177 l 1,20,-1
 48 1207 l 1,0,-1
EndSplineSet
Colour: ffffff
EndChar

StartChar: Yacute
Encoding: 221 221 55
Width: 1180
VWidth: 0
Flags: MW
LayerCount: 2
Fore
SplineSet
54 1207 m 1,0,-1
 58 1243 l 1,1,-1
 475 1243 l 1,2,-1
 471 1207 l 1,3,-1
 305 1181 l 1,4,-1
 618 571 l 1,5,-1
 928 1178 l 1,6,-1
 743 1208 l 1,7,-1
 745 1244 l 1,8,-1
 1135 1244 l 1,9,-1
 1132 1208 l 1,10,-1
 1003 1182 l 1,11,-1
 654 489 l 1,12,-1
 654 67 l 1,13,-1
 835 46 l 1,14,-1
 827 0 l 1,15,-1
 367 0 l 1,16,-1
 373 42 l 1,17,-1
 548 72 l 1,18,-1
 548 489 l 1,19,-1
 193 1177 l 1,20,-1
 54 1207 l 1,0,-1
514 1376 m 1,21,-1
 646 1713 l 1,22,-1
 742 1674 l 1,23,-1
 559 1350 l 1,24,-1
 514 1376 l 1,21,-1
EndSplineSet
Colour: ffffff
EndChar

StartChar: Z
Encoding: 90 90 56
Width: 1057
VWidth: 0
Flags: MW
LayerCount: 2
Fore
SplineSet
51 37 m 1,0,-1
 853 1189 l 1,1,-1
 197 1189 l 1,2,-1
 139 903 l 1,3,-1
 99 914 l 1,4,-1
 98 1244 l 1,5,-1
 984 1244 l 1,6,-1
 989 1207 l 1,7,-1
 184 58 l 1,8,-1
 871 58 l 1,9,-1
 957 342 l 1,10,-1
 1001 335 l 1,11,-1
 971 0 l 1,12,-1
 56 0 l 1,13,-1
 51 37 l 1,0,-1
EndSplineSet
Colour: ffffff
EndChar

StartChar: a
Encoding: 97 97 57
Width: 986
VWidth: 0
Flags: MW
LayerCount: 2
Fore
SplineSet
41 0 m 1,0,-1
 46 42 l 1,1,-1
 158 72 l 1,2,-1
 475 920 l 1,3,-1
 528 934 l 1,4,-1
 839 66 l 1,5,-1
 941 47 l 1,6,-1
 933 1 l 1,7,-1
 584 1 l 1,8,-1
 593 43 l 1,9,-1
 729 73 l 1,10,-1
 645 306 l 1,11,-1
 319 306 l 1,12,-1
 235 65 l 1,13,-1
 389 46 l 1,14,-1
 380 0 l 1,15,-1
 41 0 l 1,0,-1
339 362 m 1,16,-1
 625 362 l 1,17,-1
 480 764 l 1,18,-1
 339 362 l 1,16,-1
EndSplineSet
Colour: ffffff
EndChar

StartChar: aacute
Encoding: 225 225 58
Width: 812
VWidth: 0
Flags: MW
LayerCount: 2
Fore
SplineSet
444 1007 m 1,0,-1
 576 1344 l 1,1,-1
 672 1305 l 1,2,-1
 489 981 l 1,3,-1
 444 1007 l 1,0,-1
7 0 m 1,4,-1
 12 42 l 1,5,-1
 124 72 l 1,6,-1
 441 920 l 1,7,-1
 494 934 l 1,8,-1
 805 66 l 1,9,-1
 907 47 l 1,10,-1
 899 1 l 1,11,-1
 550 1 l 1,12,-1
 559 43 l 1,13,-1
 695 73 l 1,14,-1
 611 306 l 1,15,-1
 285 306 l 1,16,-1
 201 65 l 1,17,-1
 355 46 l 1,18,-1
 346 0 l 1,19,-1
 7 0 l 1,4,-1
305 362 m 1,20,-1
 591 362 l 1,21,-1
 446 764 l 1,22,-1
 305 362 l 1,20,-1
EndSplineSet
Colour: ffffff
EndChar

StartChar: acircumflex
Encoding: 226 226 59
Width: 812
VWidth: 0
Flags: MW
LayerCount: 2
Fore
SplineSet
288 1011 m 1,0,-1
 455 1192 l 1,1,-1
 509 1205 l 1,2,-1
 688 1019 l 1,3,-1
 656 982 l 1,4,-1
 475 1117 l 1,5,-1
 466 1117 l 1,6,-1
 309 981 l 1,7,-1
 288 1011 l 1,0,-1
8 0 m 1,8,-1
 13 42 l 1,9,-1
 125 72 l 1,10,-1
 442 920 l 1,11,-1
 495 934 l 1,12,-1
 806 66 l 1,13,-1
 908 47 l 1,14,-1
 900 1 l 1,15,-1
 551 1 l 1,16,-1
 560 43 l 1,17,-1
 696 73 l 1,18,-1
 612 306 l 1,19,-1
 286 306 l 1,20,-1
 202 65 l 1,21,-1
 356 46 l 1,22,-1
 347 0 l 1,23,-1
 8 0 l 1,8,-1
306 362 m 1,24,-1
 592 362 l 1,25,-1
 447 764 l 1,26,-1
 306 362 l 1,24,-1
EndSplineSet
Colour: ffffff
EndChar

StartChar: acute
Encoding: 180 180 60
Width: 385
VWidth: 0
Flags: MW
LayerCount: 2
Fore
SplineSet
79 1370 m 1,0,-1
 211 1707 l 1,1,-1
 307 1668 l 1,2,-1
 124 1344 l 1,3,-1
 79 1370 l 1,0,-1
EndSplineSet
Colour: ffffff
EndChar

StartChar: adieresis
Encoding: 228 228 61
Width: 812
VWidth: 0
Flags: MW
LayerCount: 2
Fore
SplineSet
548 1063 m 0,0,1
 548 1141 548 1141 602 1141 c 0,2,3
 660 1141 660 1141 660 1063 c 0,4,5
 660 982 660 982 603 982 c 0,6,7
 548 982 548 982 548 1063 c 0,0,1
279 1063 m 0,8,9
 279 1141 279 1141 334 1141 c 0,10,11
 392 1141 392 1141 392 1063 c 0,12,13
 392 1022 392 1022 379.5 1002 c 128,-1,14
 367 982 367 982 336 982 c 0,15,16
 279 982 279 982 279 1063 c 0,8,9
8 0 m 1,17,-1
 13 42 l 1,18,-1
 125 72 l 1,19,-1
 442 920 l 1,20,-1
 495 934 l 1,21,-1
 806 66 l 1,22,-1
 908 47 l 1,23,-1
 900 1 l 1,24,-1
 551 1 l 1,25,-1
 560 43 l 1,26,-1
 696 73 l 1,27,-1
 612 306 l 1,28,-1
 286 306 l 1,29,-1
 202 65 l 1,30,-1
 356 46 l 1,31,-1
 347 0 l 1,32,-1
 8 0 l 1,17,-1
306 362 m 1,33,-1
 592 362 l 1,34,-1
 447 764 l 1,35,-1
 306 362 l 1,33,-1
EndSplineSet
Colour: ffffff
EndChar

StartChar: ae
Encoding: 230 230 62
Width: 1714
VWidth: 0
Flags: MW
LayerCount: 2
Fore
SplineSet
499 398 m 1,0,-1
 737 398 l 1,1,-1
 740 763 l 1,2,-1
 499 398 l 1,0,-1
73 3 m 1,3,-1
 77 43 l 1,4,-1
 190 73 l 1,5,-1
 716 850 l 1,6,-1
 533 875 l 1,7,-1
 539 914 l 1,8,-1
 1299 914 l 1,9,-1
 1268 645 l 1,10,-1
 1222 651 l 1,11,-1
 1213 863 l 1,12,-1
 845 863 l 1,13,-1
 845 477 l 1,14,-1
 1096 477 l 1,15,-1
 1124 566 l 1,16,-1
 1178 574 l 1,17,-1
 1145 305 l 1,18,-1
 1094 296 l 1,19,-1
 1087 423 l 1,20,-1
 845 423 l 1,21,-1
 845 54 l 1,22,-1
 1239 54 l 1,23,-1
 1293 273 l 1,24,-1
 1334 263 l 1,25,-1
 1314 0 l 1,26,-1
 568 0 l 1,27,-1
 574 42 l 1,28,-1
 738 72 l 1,29,-1
 738 338 l 1,30,-1
 460 338 l 1,31,-1
 280 66 l 1,32,-1
 434 48 l 1,33,-1
 424 3 l 1,34,-1
 73 3 l 1,3,-1
EndSplineSet
Colour: ffffff
EndChar

StartChar: agrave
Encoding: 224 224 63
Width: 812
VWidth: 0
Flags: MW
LayerCount: 2
Fore
SplineSet
274 1302 m 1,0,-1
 368 1339 l 1,1,-1
 501 1003 l 1,2,-1
 455 976 l 1,3,-1
 274 1302 l 1,0,-1
7 0 m 1,4,-1
 12 42 l 1,5,-1
 124 72 l 1,6,-1
 441 920 l 1,7,-1
 494 934 l 1,8,-1
 805 66 l 1,9,-1
 907 47 l 1,10,-1
 899 1 l 1,11,-1
 550 1 l 1,12,-1
 559 43 l 1,13,-1
 695 73 l 1,14,-1
 611 306 l 1,15,-1
 285 306 l 1,16,-1
 201 65 l 1,17,-1
 355 46 l 1,18,-1
 346 0 l 1,19,-1
 7 0 l 1,4,-1
305 362 m 1,20,-1
 591 362 l 1,21,-1
 446 764 l 1,22,-1
 305 362 l 1,20,-1
EndSplineSet
Colour: ffffff
EndChar

StartChar: ampersand
Encoding: 38 38 64
Width: 974
VWidth: 0
Flags: MW
LayerCount: 2
Fore
SplineSet
310 427 m 1,0,1
 240 379 240 379 202 330 c 128,-1,2
 164 281 164 281 164 216 c 0,3,4
 164 137 164 137 209.5 92 c 128,-1,5
 255 47 255 47 332 47 c 0,6,7
 448 47 448 47 554 157 c 1,8,-1
 310 427 l 1,0,1
594 112 m 1,9,10
 531 47 531 47 458 13.5 c 128,-1,11
 385 -20 385 -20 291 -20 c 0,12,13
 227 -20 227 -20 178.5 -2 c 128,-1,14
 130 16 130 16 103 45.5 c 128,-1,15
 76 75 76 75 63 109 c 128,-1,16
 50 143 50 143 50 180 c 0,17,18
 50 208 50 208 57.5 234 c 128,-1,19
 65 260 65 260 75 280.5 c 128,-1,20
 85 301 85 301 105 323 c 128,-1,21
 125 345 125 345 141 360.5 c 128,-1,22
 157 376 157 376 185 396 c 128,-1,23
 213 416 213 416 231 428 c 128,-1,24
 249 440 249 440 281 460 c 1,25,26
 151 608 151 608 151 713 c 0,27,28
 151 798 151 798 222.5 866 c 128,-1,29
 294 934 294 934 388 934 c 0,30,31
 488 934 488 934 546.5 882 c 128,-1,32
 605 830 605 830 605 752 c 0,33,34
 605 715 605 715 593 681 c 128,-1,35
 581 647 581 647 563.5 622 c 128,-1,36
 546 597 546 597 515.5 570 c 128,-1,37
 485 543 485 543 460.5 525.5 c 128,-1,38
 436 508 436 508 398 484 c 1,39,40
 404 477 404 477 412 468 c 2,41,-1
 594 269 l 2,42,43
 608 253 608 253 621 240 c 1,44,45
 674 315 674 315 725 420 c 1,46,-1
 601 450 l 1,47,-1
 604 483 l 1,48,-1
 945 483 l 1,49,-1
 941 450 l 1,50,-1
 800 423 l 1,51,52
 717 272 717 272 663 196 c 1,53,54
 733 124 733 124 778.5 94 c 128,-1,55
 824 64 824 64 880 47 c 1,56,-1
 927 34 l 1,57,-1
 921 -3 l 1,58,59
 872 -20 872 -20 826 -20 c 0,60,61
 713 -20 713 -20 597 109 c 2,62,-1
 594 112 l 1,9,10
368 517 m 1,63,64
 436 565 436 565 473.5 614 c 128,-1,65
 511 663 511 663 511 726 c 0,66,67
 511 789 511 789 473 834.5 c 128,-1,68
 435 880 435 880 369 880 c 0,69,70
 311 880 311 880 275 847 c 128,-1,71
 239 814 239 814 239 758 c 128,-1,72
 239 702 239 702 271.5 646 c 128,-1,73
 304 590 304 590 368 517 c 1,63,64
EndSplineSet
Colour: ffffff
EndChar

StartChar: aring
Encoding: 229 229 65
Width: 812
VWidth: 0
Flags: MW
LayerCount: 2
Fore
SplineSet
368 1150 m 0,0,1
 368 1097 368 1097 394.5 1055.5 c 128,-1,2
 421 1014 421 1014 469 1014 c 0,3,4
 513 1014 513 1014 538 1045 c 128,-1,5
 563 1076 563 1076 563 1133 c 0,6,7
 563 1186 563 1186 534.5 1228 c 128,-1,8
 506 1270 506 1270 459 1270 c 0,9,10
 414 1270 414 1270 391 1235 c 128,-1,11
 368 1200 368 1200 368 1150 c 0,0,1
303 1139 m 0,12,13
 303 1209 303 1209 352 1259.5 c 128,-1,14
 401 1310 401 1310 471 1310 c 0,15,16
 543 1310 543 1310 586 1264.5 c 128,-1,17
 629 1219 629 1219 629 1148 c 128,-1,18
 629 1077 629 1077 581 1025 c 128,-1,19
 533 973 533 973 459 973 c 0,20,21
 389 973 389 973 346 1018 c 128,-1,22
 303 1063 303 1063 303 1139 c 0,12,13
7 0 m 1,23,-1
 12 42 l 1,24,-1
 124 72 l 1,25,-1
 441 920 l 1,26,-1
 494 934 l 1,27,-1
 805 66 l 1,28,-1
 907 47 l 1,29,-1
 899 1 l 1,30,-1
 550 1 l 1,31,-1
 559 43 l 1,32,-1
 695 73 l 1,33,-1
 611 306 l 1,34,-1
 285 306 l 1,35,-1
 201 65 l 1,36,-1
 355 46 l 1,37,-1
 346 0 l 1,38,-1
 7 0 l 1,23,-1
305 362 m 1,39,-1
 591 362 l 1,40,-1
 446 764 l 1,41,-1
 305 362 l 1,39,-1
EndSplineSet
Colour: ffffff
EndChar

StartChar: asciicircum
Encoding: 94 94 66
Width: 743
VWidth: 0
Flags: MW
LayerCount: 2
Fore
SplineSet
51 826 m 1,0,-1
 339 1238 l 1,1,-1
 395 1251 l 1,2,-1
 689 824 l 1,3,-1
 650 796 l 1,4,-1
 366 1123 l 1,5,-1
 357 1123 l 1,6,-1
 84 802 l 1,7,-1
 51 826 l 1,0,-1
EndSplineSet
Colour: ffffff
EndChar

StartChar: asciitilde
Encoding: 126 126 67
Width: 901
VWidth: 0
Flags: MW
LayerCount: 2
Fore
SplineSet
58 422 m 1,0,1
 61 432 61 432 66 448 c 128,-1,2
 71 464 71 464 91.5 502.5 c 128,-1,3
 112 541 112 541 137 568 c 128,-1,4
 162 595 162 595 205 611 c 128,-1,5
 248 627 248 627 297 614 c 2,6,-1
 646 516 l 2,7,8
 674 508 674 508 700 516 c 128,-1,9
 726 524 726 524 743 541 c 128,-1,10
 760 558 760 558 773 575 c 128,-1,11
 786 592 786 592 792 606 c 2,12,-1
 798 620 l 1,13,-1
 844 619 l 1,14,15
 841 609 841 609 835.5 592.5 c 128,-1,16
 830 576 830 576 808.5 536 c 128,-1,17
 787 496 787 496 761 467.5 c 128,-1,18
 735 439 735 439 691.5 422.5 c 128,-1,19
 648 406 648 406 598 419 c 2,20,-1
 250 516 l 2,21,22
 224 523 224 523 199 514.5 c 128,-1,23
 174 506 174 506 156.5 489 c 128,-1,24
 139 472 139 472 125 454 c 128,-1,25
 111 436 111 436 104 422 c 2,26,-1
 97 408 l 1,27,-1
 58 422 l 1,0,1
EndSplineSet
Colour: ffffff
EndChar

StartChar: asterisk
Encoding: 42 42 68
Width: 796
VWidth: 0
Flags: MW
LayerCount: 2
Fore
SplineSet
47 990 m 1,0,-1
 89 1093 l 1,1,-1
 373 970 l 1,2,-1
 345 1289 l 1,3,-1
 454 1280 l 1,4,-1
 429 973 l 1,5,-1
 722 1097 l 1,6,-1
 747 990 l 1,7,-1
 447 923 l 1,8,-1
 654 680 l 1,9,-1
 562 623 l 1,10,-1
 405 893 l 1,11,-1
 236 616 l 1,12,-1
 153 684 l 1,13,-1
 357 919 l 1,14,-1
 47 990 l 1,0,-1
EndSplineSet
Colour: ffffff
EndChar

StartChar: at
Encoding: 64 64 69
Width: 1291
VWidth: 0
Flags: MW
LayerCount: 2
Fore
SplineSet
442 369 m 0,0,1
 442 258 442 258 464.5 198 c 128,-1,2
 487 138 487 138 526 138 c 0,3,4
 564 138 564 138 629 174.5 c 128,-1,5
 694 211 694 211 723 243 c 1,6,-1
 778 714 l 1,7,8
 745 725 745 725 663 725 c 0,9,10
 569 725 569 725 505.5 624.5 c 128,-1,11
 442 524 442 524 442 369 c 0,0,1
56 333 m 0,12,13
 56 468 56 468 102.5 595 c 128,-1,14
 149 722 149 722 233 822.5 c 128,-1,15
 317 923 317 923 445 983.5 c 128,-1,16
 573 1044 573 1044 725 1044 c 0,17,18
 865 1044 865 1044 982 984 c 128,-1,19
 1099 924 1099 924 1168 815.5 c 128,-1,20
 1237 707 1237 707 1237 573 c 0,21,22
 1237 438 1237 438 1177.5 323 c 128,-1,23
 1118 208 1118 208 1010 138.5 c 128,-1,24
 902 69 902 69 768 69 c 0,25,26
 743 69 743 69 731 84.5 c 128,-1,27
 719 100 719 100 719 123.5 c 128,-1,28
 719 147 719 147 720 174 c 0,29,30
 721 183 721 183 721 188 c 1,31,-1
 712 188 l 1,32,33
 680 140 680 140 617 100 c 128,-1,34
 554 60 554 60 500 60 c 0,35,36
 430 60 430 60 391.5 128.5 c 128,-1,37
 353 197 353 197 353 325 c 0,38,39
 353 427 353 427 386 516.5 c 128,-1,40
 419 606 419 606 471.5 664.5 c 128,-1,41
 524 723 524 723 588.5 756.5 c 128,-1,42
 653 790 653 790 717 790 c 0,43,44
 776 790 776 790 856 772 c 1,45,-1
 871 752 l 1,46,-1
 829 385 l 2,47,48
 826 361 826 361 821 319 c 0,49,50
 807 221 807 221 809 178.5 c 128,-1,51
 811 136 811 136 840 136 c 0,52,53
 899 136 899 136 954 163 c 128,-1,54
 1009 190 1009 190 1054 240 c 128,-1,55
 1099 290 1099 290 1126 368 c 128,-1,56
 1153 446 1153 446 1153 540 c 0,57,58
 1153 639 1153 639 1113.5 724.5 c 128,-1,59
 1074 810 1074 810 1008.5 866.5 c 128,-1,60
 943 923 943 923 859.5 955.5 c 128,-1,61
 776 988 776 988 687 988 c 0,62,63
 533 988 533 988 409 906.5 c 128,-1,64
 285 825 285 825 215.5 681 c 128,-1,65
 146 537 146 537 146 358 c 0,66,67
 146 121 146 121 284.5 -21 c 128,-1,68
 423 -163 423 -163 665 -163 c 0,69,70
 766 -163 766 -163 877.5 -121.5 c 128,-1,71
 989 -80 989 -80 1032 -43 c 1,72,-1
 1053 -82 l 1,73,74
 1010 -113 1010 -113 978.5 -132.5 c 128,-1,75
 947 -152 947 -152 893.5 -177 c 128,-1,76
 840 -202 840 -202 773 -214.5 c 128,-1,77
 706 -227 706 -227 628 -227 c 0,78,79
 512 -227 512 -227 409.5 -190 c 128,-1,80
 307 -153 307 -153 228 -84.5 c 128,-1,81
 149 -16 149 -16 102.5 92 c 128,-1,82
 56 200 56 200 56 333 c 0,12,13
EndSplineSet
Colour: ffffff
EndChar

StartChar: atilde
Encoding: 227 227 70
Width: 986
VWidth: 0
Flags: MW
LayerCount: 2
Fore
SplineSet
290 1064 m 1,0,1
 301 1122 301 1122 324 1158 c 128,-1,2
 347 1194 347 1194 375.5 1205.5 c 128,-1,3
 404 1217 404 1217 432.5 1214.5 c 128,-1,4
 461 1212 461 1212 490 1196 c 2,5,-1
 562 1155 l 2,6,7
 582 1144 582 1144 595.5 1138 c 128,-1,8
 609 1132 609 1132 625.5 1127 c 128,-1,9
 642 1122 642 1122 654.5 1125.5 c 128,-1,10
 667 1129 667 1129 680.5 1138 c 128,-1,11
 694 1147 694 1147 705.5 1166.5 c 128,-1,12
 717 1186 717 1186 728 1216 c 1,13,-1
 760 1208 l 1,14,15
 739 1103 739 1103 683.5 1069 c 128,-1,16
 628 1035 628 1035 560 1076 c 1,17,-1
 488 1116 l 2,18,19
 462 1130 462 1130 449 1136 c 128,-1,20
 436 1142 436 1142 415 1146 c 128,-1,21
 394 1150 394 1150 380.5 1142.5 c 128,-1,22
 367 1135 367 1135 351 1114 c 128,-1,23
 335 1093 335 1093 322 1056 c 1,24,-1
 290 1064 l 1,0,1
41 0 m 1,25,-1
 46 42 l 1,26,-1
 158 72 l 1,27,-1
 475 920 l 1,28,-1
 528 934 l 1,29,-1
 839 66 l 1,30,-1
 941 47 l 1,31,-1
 933 1 l 1,32,-1
 584 1 l 1,33,-1
 593 43 l 1,34,-1
 729 73 l 1,35,-1
 645 306 l 1,36,-1
 319 306 l 1,37,-1
 235 65 l 1,38,-1
 389 46 l 1,39,-1
 380 0 l 1,40,-1
 41 0 l 1,25,-1
339 362 m 1,41,-1
 625 362 l 1,42,-1
 480 764 l 1,43,-1
 339 362 l 1,41,-1
EndSplineSet
Colour: ffffff
EndChar

StartChar: b
Encoding: 98 98 71
Width: 837
VWidth: 0
Flags: MW
LayerCount: 2
Fore
SplineSet
293 500 m 1,0,-1
 516 500 l 1,1,2
 542 514 542 514 557.5 525.5 c 128,-1,3
 573 537 573 537 591.5 558.5 c 128,-1,4
 610 580 610 580 618.5 613 c 128,-1,5
 627 646 627 646 627 692 c 0,6,7
 627 791 627 791 550.5 842 c 128,-1,8
 474 893 474 893 338 893 c 0,9,10
 303 893 303 893 293 887 c 1,11,-1
 293 500 l 1,0,-1
293 54 m 1,12,-1
 402 54 l 2,13,14
 513 54 513 54 578.5 80 c 128,-1,15
 644 106 644 106 668 149 c 128,-1,16
 692 192 692 192 692 259 c 0,17,18
 692 293 692 293 680.5 325 c 128,-1,19
 669 357 669 357 644 386 c 128,-1,20
 619 415 619 415 572 433 c 128,-1,21
 525 451 525 451 462 451 c 2,22,-1
 293 451 l 1,23,-1
 293 54 l 1,12,-1
45 0 m 1,24,-1
 53 42 l 1,25,-1
 192 72 l 1,26,-1
 192 850 l 1,27,-1
 50 866 l 1,28,-1
 60 902 l 1,29,30
 270 938 270 938 396 938 c 0,31,32
 557 938 557 938 643 880 c 128,-1,33
 729 822 729 822 729 726 c 0,34,35
 729 647 729 647 688 589 c 128,-1,36
 647 531 647 531 576 498 c 1,37,-1
 576 492 l 1,38,39
 675 480 675 480 736.5 418.5 c 128,-1,40
 798 357 798 357 798 282 c 0,41,42
 798 0 798 0 363 0 c 2,43,-1
 45 0 l 1,24,-1
EndSplineSet
Colour: ffffff
EndChar

StartChar: backslash
Encoding: 92 92 72
Width: 627
VWidth: 0
Flags: MW
LayerCount: 2
Fore
SplineSet
43 1244 m 1,0,-1
 126 1241 l 1,1,-1
 587 -358 l 1,2,-1
 508 -354 l 1,3,-1
 43 1244 l 1,0,-1
EndSplineSet
Colour: ffffff
EndChar

StartChar: bar
Encoding: 124 124 73
Width: 226
VWidth: 0
Flags: MW
LayerCount: 2
Fore
SplineSet
75 -368 m 1,0,-1
 75 1260 l 1,1,-1
 151 1248 l 1,2,-1
 151 -380 l 1,3,-1
 75 -368 l 1,0,-1
EndSplineSet
Colour: ffffff
EndChar

StartChar: braceleft
Encoding: 123 123 74
Width: 614
VWidth: 0
Flags: MW
LayerCount: 2
Fore
SplineSet
575 -378 m 1,0,-1
 473 -378 l 2,1,2
 389 -378 389 -378 338.5 -336.5 c 128,-1,3
 288 -295 288 -295 270 -228 c 128,-1,4
 252 -161 252 -161 247.5 -79.5 c 128,-1,5
 243 2 243 2 242.5 84.5 c 128,-1,6
 242 167 242 167 234 237 c 128,-1,7
 226 307 226 307 193.5 354 c 128,-1,8
 161 401 161 401 101 408 c 2,9,-1
 48 414 l 1,10,-1
 48 463 l 1,11,-1
 97 470 l 2,12,13
 145 476 145 476 175.5 506.5 c 128,-1,14
 206 537 206 537 218.5 584 c 128,-1,15
 231 631 231 631 236 690 c 128,-1,16
 241 749 241 749 241.5 813 c 128,-1,17
 242 877 242 877 244 940 c 128,-1,18
 246 1003 246 1003 257.5 1060 c 128,-1,19
 269 1117 269 1117 291 1161 c 128,-1,20
 313 1205 313 1205 358 1230.5 c 128,-1,21
 403 1256 403 1256 468 1256 c 2,22,-1
 571 1256 l 1,23,-1
 563 1207 l 1,24,-1
 457 1200 l 2,25,26
 413 1198 413 1198 390 1159 c 128,-1,27
 367 1120 367 1120 361 1059 c 128,-1,28
 355 998 355 998 354.5 923 c 128,-1,29
 354 848 354 848 348.5 770.5 c 128,-1,30
 343 693 343 693 328 626 c 128,-1,31
 313 559 313 559 272 508.5 c 128,-1,32
 231 458 231 458 164 441 c 1,33,-1
 164 437 l 1,34,35
 231 426 231 426 272 379 c 128,-1,36
 313 332 313 332 328.5 265 c 128,-1,37
 344 198 344 198 349.5 119 c 128,-1,38
 355 40 355 40 356.5 -37 c 128,-1,39
 358 -114 358 -114 365 -177.5 c 128,-1,40
 372 -241 372 -241 397 -281 c 128,-1,41
 422 -321 422 -321 468 -323 c 2,42,-1
 569 -329 l 1,43,-1
 575 -378 l 1,0,-1
EndSplineSet
Colour: ffffff
EndChar

StartChar: braceright
Encoding: 125 125 75
Width: 614
VWidth: 0
Flags: MW
LayerCount: 2
Fore
SplineSet
42 -378 m 1,0,-1
 48 -329 l 1,1,-1
 149 -323 l 2,2,3
 195 -321 195 -321 220 -281 c 128,-1,4
 245 -241 245 -241 252 -177.5 c 128,-1,5
 259 -114 259 -114 260.5 -37 c 128,-1,6
 262 40 262 40 267.5 119 c 128,-1,7
 273 198 273 198 288.5 265 c 128,-1,8
 304 332 304 332 345 379 c 128,-1,9
 386 426 386 426 453 437 c 1,10,-1
 453 441 l 1,11,12
 386 458 386 458 345 508.5 c 128,-1,13
 304 559 304 559 289 626 c 128,-1,14
 274 693 274 693 268.5 770.5 c 128,-1,15
 263 848 263 848 262.5 923 c 128,-1,16
 262 998 262 998 256 1059 c 128,-1,17
 250 1120 250 1120 227 1159 c 128,-1,18
 204 1198 204 1198 160 1200 c 2,19,-1
 54 1207 l 1,20,-1
 46 1256 l 1,21,-1
 149 1256 l 2,22,23
 214 1256 214 1256 259 1230.5 c 128,-1,24
 304 1205 304 1205 326 1161 c 128,-1,25
 348 1117 348 1117 359.5 1060 c 128,-1,26
 371 1003 371 1003 373 940 c 128,-1,27
 375 877 375 877 375.5 813 c 128,-1,28
 376 749 376 749 381 690 c 128,-1,29
 386 631 386 631 398.5 584 c 128,-1,30
 411 537 411 537 441.5 506.5 c 128,-1,31
 472 476 472 476 520 470 c 2,32,-1
 569 463 l 1,33,-1
 569 414 l 1,34,-1
 516 408 l 2,35,36
 456 401 456 401 423.5 354 c 128,-1,37
 391 307 391 307 383 237 c 128,-1,38
 375 167 375 167 374.5 84.5 c 128,-1,39
 374 2 374 2 369.5 -79.5 c 128,-1,40
 365 -161 365 -161 347 -228 c 128,-1,41
 329 -295 329 -295 278.5 -336.5 c 128,-1,42
 228 -378 228 -378 144 -378 c 2,43,-1
 42 -378 l 1,0,-1
EndSplineSet
Colour: ffffff
EndChar

StartChar: bracketleft
Encoding: 91 91 76
Width: 485
VWidth: 0
Flags: MW
LayerCount: 2
Fore
SplineSet
447 -333 m 1,0,-1
 441 -374 l 1,1,-1
 79 -374 l 1,2,-1
 79 1256 l 1,3,-1
 441 1256 l 1,4,-1
 444 1203 l 1,5,-1
 189 1182 l 1,6,-1
 189 -312 l 1,7,-1
 447 -333 l 1,0,-1
EndSplineSet
Colour: ffffff
EndChar

StartChar: bracketright
Encoding: 93 93 77
Width: 485
VWidth: 0
Flags: MW
LayerCount: 2
Fore
SplineSet
42 -333 m 1,0,-1
 300 -312 l 1,1,-1
 300 1182 l 1,2,-1
 45 1203 l 1,3,-1
 48 1256 l 1,4,-1
 410 1256 l 1,5,-1
 410 -374 l 1,6,-1
 48 -374 l 1,7,-1
 42 -333 l 1,0,-1
EndSplineSet
Colour: ffffff
EndChar

StartChar: brokenbar
Encoding: 166 166 78
Width: 215
VWidth: 0
Flags: MW
LayerCount: 2
Fore
SplineSet
73 535 m 1,0,-1
 73 1253 l 1,1,-1
 141 1248 l 1,2,-1
 138 529 l 1,3,-1
 73 535 l 1,0,-1
73 -374 m 1,4,-1
 73 414 l 1,5,-1
 142 410 l 1,6,-1
 142 -380 l 1,7,-1
 73 -374 l 1,4,-1
EndSplineSet
Colour: ffffff
EndChar

StartChar: c
Encoding: 99 99 79
Width: 789
VWidth: 0
Flags: MW
LayerCount: 2
Fore
SplineSet
47 426 m 0,0,1
 47 524 47 524 74 613.5 c 128,-1,2
 101 703 101 703 153.5 775.5 c 128,-1,3
 206 848 206 848 291.5 891 c 128,-1,4
 377 934 377 934 485 934 c 0,5,6
 622 934 622 934 709 874 c 1,7,-1
 678 627 l 1,8,-1
 631 635 l 1,9,-1
 621 804 l 1,10,11
 564 878 564 878 438 878 c 0,12,13
 316 878 316 878 234.5 770.5 c 128,-1,14
 153 663 153 663 153 462 c 0,15,16
 153 262 153 262 236 152 c 128,-1,17
 319 42 319 42 471 42 c 0,18,19
 545 42 545 42 614.5 67.5 c 128,-1,20
 684 93 684 93 731 129 c 1,21,-1
 754 102 l 1,22,23
 711 54 711 54 621.5 14 c 128,-1,24
 532 -26 532 -26 423 -26 c 0,25,26
 254 -26 254 -26 150.5 97.5 c 128,-1,27
 47 221 47 221 47 426 c 0,0,1
EndSplineSet
Colour: ffffff
EndChar

StartChar: ccedilla
Encoding: 231 231 80
Width: 743
VWidth: 0
Flags: MW
LayerCount: 2
Fore
SplineSet
321 -347 m 1,0,1
 364 -332 364 -332 401.5 -300.5 c 128,-1,2
 439 -269 439 -269 439 -247 c 0,3,4
 439 -224 439 -224 429.5 -203.5 c 128,-1,5
 420 -183 420 -183 411 -172.5 c 128,-1,6
 402 -162 402 -162 380.5 -143 c 128,-1,7
 359 -124 359 -124 353 -118 c 1,8,-1
 418 -26 l 1,9,10
 409 -26 409 -26 400 -26 c 0,11,12
 231 -26 231 -26 127.5 97.5 c 128,-1,13
 24 221 24 221 24 426 c 0,14,15
 24 524 24 524 51 613.5 c 128,-1,16
 78 703 78 703 130.5 775.5 c 128,-1,17
 183 848 183 848 268.5 891 c 128,-1,18
 354 934 354 934 462 934 c 0,19,20
 599 934 599 934 686 874 c 1,21,-1
 655 627 l 1,22,-1
 608 635 l 1,23,-1
 598 804 l 1,24,25
 541 878 541 878 415 878 c 0,26,27
 293 878 293 878 211.5 770.5 c 128,-1,28
 130 663 130 663 130 462 c 0,29,30
 130 262 130 262 213 152 c 128,-1,31
 296 42 296 42 448 42 c 0,32,33
 522 42 522 42 591.5 67.5 c 128,-1,34
 661 93 661 93 708 129 c 1,35,-1
 731 102 l 1,36,37
 697 65 697 65 630.5 29.5 c 128,-1,38
 564 -6 564 -6 481 -19 c 1,39,-1
 442 -76 l 1,40,41
 531 -155 531 -155 531 -227 c 0,42,43
 531 -283 531 -283 479.5 -322 c 128,-1,44
 428 -361 428 -361 332 -390 c 1,45,-1
 321 -347 l 1,0,1
EndSplineSet
Colour: ffffff
EndChar

StartChar: cedilla
Encoding: 184 184 81
Width: 328
VWidth: 0
Flags: MW
LayerCount: 2
Fore
SplineSet
56 -347 m 1,0,1
 99 -332 99 -332 136.5 -300.5 c 128,-1,2
 174 -269 174 -269 174 -247 c 0,3,4
 174 -224 174 -224 164.5 -203.5 c 128,-1,5
 155 -183 155 -183 146 -172.5 c 128,-1,6
 137 -162 137 -162 115.5 -143 c 128,-1,7
 94 -124 94 -124 88 -118 c 1,8,-1
 173 3 l 1,9,-1
 232 3 l 1,10,-1
 177 -76 l 1,11,12
 266 -155 266 -155 266 -227 c 0,13,14
 266 -283 266 -283 214.5 -322 c 128,-1,15
 163 -361 163 -361 67 -390 c 1,16,-1
 56 -347 l 1,0,1
EndSplineSet
Colour: ffffff
EndChar

StartChar: cent
Encoding: 162 162 82
Width: 735
VWidth: 0
Flags: MW
LayerCount: 2
Back
SplineSet
113.135 349.123 m 4,0,1
 113.135 537.88 113.135 537.88 203.028 653.808 c 0
 292.92 769.736 292.92 769.736 433.802 769.736 c 0,2,3
 485.502 769.736 485.502 769.736 523.799 756.947 c 0
 562.096 744.158 562.096 744.158 582.741 722.498 c 0
 603.385 700.838 603.385 700.838 612.988 676.629 c 0
 622.591 652.42 622.591 652.42 622.591 625.367 c 0,4,5
 622.591 594.109 622.591 594.109 610.16 574.574 c 0
 597.729 555.039 597.729 555.039 567.76 545.549 c 1,6,7
 536.873 636.58 536.873 636.58 497.587 677.478 c 0
 458.3 718.375 458.3 718.375 392.851 718.375 c 0,8,9
 312.277 718.375 312.277 718.375 255.392 632.773 c 0
 198.507 547.172 198.507 547.172 198.507 398.403 c 0,10,11
 198.507 216.447 198.507 216.447 265.71 128.699 c 0
 332.913 40.9512 332.913 40.9512 442.824 40.9512 c 0,12,13
 501.923 40.9512 501.923 40.9512 555.54 65.0656 c 0
 609.158 89.1801 609.158 89.1801 644.108 123.547 c 1,14,-1
 659.378 95.0898 l 1,15,16
 626.933 45.3402 626.933 45.3402 554.391 10.1764 c 0
 481.848 -24.9873 481.848 -24.9873 401.179 -24.9873 c 0,17,18
 309.535 -24.9873 309.535 -24.9873 243.095 26.4126 c 0
 176.656 77.8124 176.656 77.8124 144.895 161.22 c 0
 113.135 244.627 113.135 244.627 113.135 349.123 c 4,0,1
345.652 954.363 m 1,19,-1
 436.577 968.938 l 1,20,-1
 415.756 739.197 l 1,21,-1
 372.722 739.197 l 1,22,-1
 345.652 954.363 l 1,19,-1
354.676 -228.353 m 1,23,-1
 376.886 0 l 1,24,-1
 418.531 0 l 1,25,-1
 446.989 -214.472 l 1,26,-1
 354.676 -228.353 l 1,23,-1
EndSplineSet
Fore
SplineSet
327 1115 m 1,0,-1
 433 1133 l 1,1,-1
 412 899 l 1,2,3
 421 899 421 899 430 899 c 0,4,5
 546 899 546 899 598.5 849.5 c 128,-1,6
 651 800 651 800 651 731 c 0,7,8
 651 658 651 658 586 638 c 1,9,10
 550 744 550 744 504 792 c 128,-1,11
 458 840 458 840 382 840 c 0,12,13
 288 840 288 840 221.5 739.5 c 128,-1,14
 155 639 155 639 155 465 c 0,15,16
 155 252 155 252 233 149.5 c 128,-1,17
 311 47 311 47 440 47 c 0,18,19
 509 47 509 47 571.5 75.5 c 128,-1,20
 634 104 634 104 675 144 c 1,21,-1
 693 111 l 1,22,23
 658 57 658 57 581 17 c 128,-1,24
 504 -23 504 -23 416 -28 c 1,25,-1
 445 -250 l 1,26,-1
 337 -267 l 1,27,-1
 361 -28 l 1,28,29
 263 -20 263 -20 192.5 42 c 128,-1,30
 122 104 122 104 88.5 198 c 128,-1,31
 55 292 55 292 55 408 c 0,32,33
 55 602 55 602 137.5 731.5 c 128,-1,34
 220 861 220 861 355 891 c 1,35,-1
 327 1115 l 1,0,-1
EndSplineSet
Colour: ffffff
EndChar

StartChar: circumflex
Encoding: 710 710 83
Width: 558
VWidth: 0
Flags: MW
LayerCount: 2
Fore
SplineSet
79 1388 m 1,0,-1
 246 1569 l 1,1,-1
 300 1582 l 1,2,-1
 479 1396 l 1,3,-1
 447 1359 l 1,4,-1
 266 1494 l 1,5,-1
 257 1494 l 1,6,-1
 100 1358 l 1,7,-1
 79 1388 l 1,0,-1
EndSplineSet
Colour: ffffff
EndChar

StartChar: colon
Encoding: 58 58 84
Width: 258
VWidth: 0
Flags: MW
LayerCount: 2
Fore
SplineSet
68 103 m 0,0,1
 68 200 68 200 131 200 c 128,-1,2
 194 200 194 200 194 103 c 0,3,4
 194 0 194 0 131 0 c 128,-1,5
 68 0 68 0 68 103 c 0,0,1
65 734 m 0,6,7
 65 829 65 829 128 829 c 0,8,9
 190 829 190 829 190 734 c 0,10,11
 190 682 190 682 176 656.5 c 128,-1,12
 162 631 162 631 129 631 c 0,13,14
 65 631 65 631 65 734 c 0,6,7
EndSplineSet
Colour: ffffff
EndChar

StartChar: comma
Encoding: 44 44 85
Width: 394
VWidth: 0
Flags: MW
LayerCount: 2
Fore
SplineSet
54 -236 m 1,0,1
 155 -196 155 -196 193.5 -146.5 c 128,-1,2
 232 -97 232 -97 232 -30 c 0,3,4
 232 34 232 34 200.5 73 c 128,-1,5
 169 112 169 112 123 112 c 0,6,7
 105 112 105 112 96 108 c 1,8,9
 93 117 93 117 93 127 c 0,10,11
 93 168 93 168 119.5 193 c 128,-1,12
 146 218 146 218 189 218 c 0,13,14
 249 218 249 218 290.5 163 c 128,-1,15
 332 108 332 108 332 9 c 0,16,17
 332 -29 332 -29 319 -67 c 128,-1,18
 306 -105 306 -105 278 -145.5 c 128,-1,19
 250 -186 250 -186 195.5 -221.5 c 128,-1,20
 141 -257 141 -257 66 -281 c 1,21,-1
 54 -236 l 1,0,1
EndSplineSet
Colour: ffffff
EndChar

StartChar: copyright
Encoding: 169 169 86
Width: 1326
VWidth: 0
Flags: MW
LayerCount: 2
Fore
SplineSet
371 610 m 0,0,1
 371 790 371 790 456.5 897 c 128,-1,2
 542 1004 542 1004 678 1004 c 0,3,4
 773 1004 773 1004 816 963 c 128,-1,5
 859 922 859 922 859 865 c 0,6,7
 859 804 859 804 806 788 c 1,8,9
 776 875 776 875 738.5 914 c 128,-1,10
 701 953 701 953 639 953 c 0,11,12
 561 953 561 953 507 876 c 128,-1,13
 453 799 453 799 453 657 c 0,14,15
 453 323 453 323 686 323 c 0,16,17
 742 323 742 323 794 347 c 128,-1,18
 846 371 846 371 879 404 c 1,19,-1
 894 377 l 1,20,21
 864 329 864 329 794.5 295.5 c 128,-1,22
 725 262 725 262 647 262 c 0,23,24
 515 262 515 262 443 359.5 c 128,-1,25
 371 457 371 457 371 610 c 0,0,1
121 631 m 0,26,27
 121 460 121 460 188 323 c 128,-1,28
 255 186 255 186 376 108.5 c 128,-1,29
 497 31 497 31 651 31 c 0,30,31
 890 31 890 31 1047.5 196.5 c 128,-1,32
 1205 362 1205 362 1205 613 c 0,33,34
 1205 787 1205 787 1133.5 927.5 c 128,-1,35
 1062 1068 1062 1068 935.5 1147 c 128,-1,36
 809 1226 809 1226 653 1226 c 0,37,38
 499 1226 499 1226 377.5 1149 c 128,-1,39
 256 1072 256 1072 188.5 936 c 128,-1,40
 121 800 121 800 121 631 c 0,26,27
53 620 m 0,41,42
 53 766 53 766 99 890.5 c 128,-1,43
 145 1015 145 1015 225 1100 c 128,-1,44
 305 1185 305 1185 415 1233 c 128,-1,45
 525 1281 525 1281 651 1281 c 0,46,47
 933 1281 933 1281 1101.5 1100 c 128,-1,48
 1270 919 1270 919 1270 623 c 0,49,50
 1270 329 1270 329 1099.5 151 c 128,-1,51
 929 -27 929 -27 642 -27 c 0,52,53
 370 -27 370 -27 211.5 149.5 c 128,-1,54
 53 326 53 326 53 620 c 0,41,42
EndSplineSet
Colour: ffffff
EndChar

StartChar: currency
Encoding: 164 164 87
Width: 700
VWidth: 0
Flags: MW
LayerCount: 2
Fore
SplineSet
161 496 m 0,0,1
 161 403 161 403 212 345.5 c 128,-1,2
 263 288 263 288 346 288 c 0,3,4
 433 288 433 288 486.5 344 c 128,-1,5
 540 400 540 400 540 489 c 0,6,7
 540 584 540 584 486 642 c 128,-1,8
 432 700 432 700 344 700 c 0,9,10
 261 700 261 700 211 643.5 c 128,-1,11
 161 587 161 587 161 496 c 0,0,1
52 734 m 1,12,-1
 102 782 l 1,13,-1
 180 693 l 1,14,15
 216 723 216 723 265.5 747.5 c 128,-1,16
 315 772 315 772 349 772 c 0,17,18
 386 772 386 772 437 749.5 c 128,-1,19
 488 727 488 727 524 701 c 1,20,-1
 602 783 l 1,21,-1
 644 730 l 1,22,-1
 560 656 l 1,23,24
 578 625 578 625 595.5 575 c 128,-1,25
 613 525 613 525 613 493 c 0,26,27
 613 457 613 457 594 407 c 128,-1,28
 575 357 575 357 553 327 c 1,29,-1
 646 241 l 1,30,-1
 594 193 l 1,31,-1
 515 283 l 1,32,33
 475 259 475 259 425 239.5 c 128,-1,34
 375 220 375 220 343 220 c 0,35,36
 315 220 315 220 271 238 c 128,-1,37
 227 256 227 256 191 278 c 1,38,-1
 113 190 l 1,39,-1
 64 239 l 1,40,-1
 148 317 l 1,41,42
 125 352 125 352 106 403.5 c 128,-1,43
 87 455 87 455 87 492 c 0,44,45
 87 524 87 524 105 570.5 c 128,-1,46
 123 617 123 617 143 647 c 1,47,-1
 52 734 l 1,12,-1
EndSplineSet
Colour: ffffff
EndChar

StartChar: d
Encoding: 100 100 88
Width: 937
VWidth: 0
Flags: MW
LayerCount: 2
Fore
SplineSet
292 54 m 1,0,-1
 381 54 l 2,1,2
 584 54 584 54 690.5 161.5 c 128,-1,3
 797 269 797 269 797 461 c 0,4,5
 797 664 797 664 689.5 772 c 128,-1,6
 582 880 582 880 385 880 c 0,7,8
 368 880 368 880 292 876 c 1,9,-1
 292 54 l 1,0,-1
44 0 m 1,10,-1
 52 42 l 1,11,-1
 191 72 l 1,12,-1
 191 838 l 1,13,-1
 49 860 l 1,14,-1
 59 896 l 1,15,16
 289 934 289 934 422 934 c 0,17,18
 511 934 511 934 583.5 917 c 128,-1,19
 656 900 656 900 707 869 c 128,-1,20
 758 838 758 838 795 798 c 128,-1,21
 832 758 832 758 853 707.5 c 128,-1,22
 874 657 874 657 884 605.5 c 128,-1,23
 894 554 894 554 894 497 c 0,24,25
 894 335 894 335 819 221 c 128,-1,26
 744 107 744 107 620 53.5 c 128,-1,27
 496 0 496 0 334 0 c 2,28,-1
 44 0 l 1,10,-1
EndSplineSet
Colour: ffffff
EndChar

StartChar: dagger
Encoding: 8224 8224 89
Width: 772
VWidth: 0
Flags: MW
LayerCount: 2
Fore
SplineSet
43 734 m 1,0,-1
 52 810 l 1,1,-1
 349 803 l 1,2,-1
 339 1256 l 1,3,-1
 433 1244 l 1,4,-1
 422 803 l 1,5,-1
 728 810 l 1,6,-1
 721 730 l 1,7,-1
 422 740 l 1,8,-1
 439 -363 l 1,9,-1
 333 -351 l 1,10,-1
 349 742 l 1,11,-1
 43 734 l 1,0,-1
EndSplineSet
Colour: ffffff
EndChar

StartChar: daggerdbl
Encoding: 8225 8225 90
Width: 780
VWidth: 0
Flags: MW
LayerCount: 2
Fore
SplineSet
45 734 m 1,0,-1
 54 809 l 1,1,-1
 350 802 l 1,2,-1
 340 1256 l 1,3,-1
 434 1244 l 1,4,-1
 423 802 l 1,5,-1
 728 809 l 1,6,-1
 720 729 l 1,7,-1
 423 739 l 1,8,-1
 415 429 l 1,9,-1
 423 154 l 1,10,-1
 734 162 l 1,11,-1
 728 87 l 1,12,-1
 423 97 l 1,13,-1
 429 -363 l 1,14,-1
 337 -353 l 1,15,-1
 347 97 l 1,16,-1
 61 87 l 1,17,-1
 66 169 l 1,18,-1
 347 157 l 1,19,-1
 353 498 l 1,20,-1
 350 740 l 1,21,-1
 45 734 l 1,0,-1
EndSplineSet
Colour: ffffff
EndChar

StartChar: degree
Encoding: 176 176 91
Width: 483
VWidth: 0
Flags: MW
LayerCount: 2
Fore
SplineSet
120 1129 m 0,0,1
 120 1053 120 1053 153.5 1010 c 128,-1,2
 187 967 187 967 244 967 c 0,3,4
 291 967 291 967 326 1006 c 128,-1,5
 361 1045 361 1045 361 1105 c 0,6,7
 361 1176 361 1176 327 1220.5 c 128,-1,8
 293 1265 293 1265 238 1265 c 128,-1,9
 183 1265 183 1265 151.5 1228.5 c 128,-1,10
 120 1192 120 1192 120 1129 c 0,0,1
59 1107 m 0,11,12
 59 1186 59 1186 115.5 1245 c 128,-1,13
 172 1304 172 1304 252 1304 c 0,14,15
 337 1304 337 1304 380 1258 c 128,-1,16
 423 1212 423 1212 423 1128 c 0,17,18
 423 1043 423 1043 366 985.5 c 128,-1,19
 309 928 309 928 228 928 c 0,20,21
 150 928 150 928 104.5 974.5 c 128,-1,22
 59 1021 59 1021 59 1107 c 0,11,12
EndSplineSet
Colour: ffffff
EndChar

StartChar: dieresis
Encoding: 168 168 92
Width: 541
VWidth: 0
Flags: MW
LayerCount: 2
Fore
SplineSet
349 1465 m 0,0,1
 349 1543 349 1543 403 1543 c 0,2,3
 461 1543 461 1543 461 1465 c 0,4,5
 461 1384 461 1384 404 1384 c 0,6,7
 349 1384 349 1384 349 1465 c 0,0,1
80 1465 m 0,8,9
 80 1543 80 1543 135 1543 c 0,10,11
 193 1543 193 1543 193 1465 c 0,12,13
 193 1424 193 1424 180.5 1404 c 128,-1,14
 168 1384 168 1384 137 1384 c 0,15,16
 80 1384 80 1384 80 1465 c 0,8,9
EndSplineSet
Colour: ffffff
EndChar

StartChar: divide
Encoding: 247 247 93
Width: 929
VWidth: 0
Flags: MW
LayerCount: 2
Fore
SplineSet
397 789 m 0,0,1
 397 885 397 885 457 885 c 0,2,3
 524 885 524 885 524 789 c 0,4,5
 524 685 524 685 459 685 c 0,6,7
 397 685 397 685 397 789 c 0,0,1
397 224 m 0,8,9
 397 272 397 272 411 294.5 c 128,-1,10
 425 317 425 317 457 317 c 0,11,12
 524 317 524 317 524 224 c 0,13,14
 524 120 524 120 459 120 c 0,15,16
 397 120 397 120 397 224 c 0,8,9
53 476 m 1,17,-1
 65 541 l 1,18,-1
 877 541 l 1,19,-1
 866 476 l 1,20,-1
 53 476 l 1,17,-1
EndSplineSet
Colour: ffffff
EndChar

StartChar: dollar
Encoding: 36 36 94
Width: 641
VWidth: 0
Flags: MW
LayerCount: 2
Fore
SplineSet
44 134 m 0,0,1
 44 211 44 211 122 217 c 1,2,3
 159 15 159 15 343 15 c 0,4,5
 417 15 417 15 463 53.5 c 128,-1,6
 509 92 509 92 509 152 c 0,7,8
 509 187 509 187 486 221 c 128,-1,9
 463 255 463 255 427 283.5 c 128,-1,10
 391 312 391 312 346.5 341 c 128,-1,11
 302 370 302 370 258 402.5 c 128,-1,12
 214 435 214 435 178 470 c 128,-1,13
 142 505 142 505 119 552 c 128,-1,14
 96 599 96 599 96 652 c 0,15,16
 96 736 96 736 151.5 804 c 128,-1,17
 207 872 207 872 296 892 c 1,18,-1
 280 1042 l 1,19,-1
 392 1060 l 1,20,-1
 381 898 l 1,21,22
 469 892 469 892 524.5 844 c 128,-1,23
 580 796 580 796 580 736 c 0,24,25
 580 663 580 663 504 656 c 1,26,27
 486 747 486 747 436.5 799 c 128,-1,28
 387 851 387 851 325 851 c 0,29,30
 260 851 260 851 220.5 811.5 c 128,-1,31
 181 772 181 772 181 698 c 0,32,33
 181 653 181 653 204 612 c 128,-1,34
 227 571 227 571 264 539.5 c 128,-1,35
 301 508 301 508 345.5 478 c 128,-1,36
 390 448 390 448 434.5 417.5 c 128,-1,37
 479 387 479 387 516 356 c 128,-1,38
 553 325 553 325 576 284.5 c 128,-1,39
 599 244 599 244 599 199 c 0,40,41
 599 116 599 116 540.5 53.5 c 128,-1,42
 482 -9 482 -9 382 -28 c 1,43,44
 387 -103 387 -103 392 -179 c 1,45,-1
 277 -197 l 1,46,-1
 288 -36 l 1,47,48
 186 -33 186 -33 115 14.5 c 128,-1,49
 44 62 44 62 44 134 c 0,0,1
EndSplineSet
Colour: ffffff
EndChar

StartChar: dotaccent
Encoding: 729 729 95
Width: 286
VWidth: 0
Flags: MW
LayerCount: 2
Fore
SplineSet
80 1479 m 0,0,1
 80 1576 80 1576 143 1576 c 128,-1,2
 206 1576 206 1576 206 1479 c 0,3,4
 206 1376 206 1376 143 1376 c 128,-1,5
 80 1376 80 1376 80 1479 c 0,0,1
EndSplineSet
Colour: ffffff
EndChar

StartChar: e
Encoding: 101 101 96
Width: 864
VWidth: 0
Flags: MW
LayerCount: 2
Fore
SplineSet
50 872 m 1,0,-1
 57 914 l 1,1,-1
 790 914 l 1,2,-1
 759 645 l 1,3,-1
 713 651 l 1,4,-1
 704 863 l 1,5,-1
 303 863 l 1,6,-1
 303 477 l 1,7,-1
 587 477 l 1,8,-1
 615 566 l 1,9,-1
 669 574 l 1,10,-1
 636 305 l 1,11,-1
 585 296 l 1,12,-1
 578 423 l 1,13,-1
 303 423 l 1,14,-1
 303 54 l 1,15,-1
 730 54 l 1,16,-1
 784 273 l 1,17,-1
 825 263 l 1,18,-1
 805 0 l 1,19,-1
 53 0 l 1,20,-1
 59 42 l 1,21,-1
 199 72 l 1,22,-1
 199 845 l 1,23,-1
 50 872 l 1,0,-1
EndSplineSet
Colour: ffffff
EndChar

StartChar: eacute
Encoding: 233 233 97
Width: 740
VWidth: 0
Flags: MW
LayerCount: 2
Fore
SplineSet
384 1005 m 1,0,-1
 516 1342 l 1,1,-1
 612 1303 l 1,2,-1
 429 979 l 1,3,-1
 384 1005 l 1,0,-1
27 872 m 1,4,-1
 34 914 l 1,5,-1
 767 914 l 1,6,-1
 736 645 l 1,7,-1
 690 651 l 1,8,-1
 681 863 l 1,9,-1
 280 863 l 1,10,-1
 280 477 l 1,11,-1
 564 477 l 1,12,-1
 592 566 l 1,13,-1
 646 574 l 1,14,-1
 613 305 l 1,15,-1
 562 296 l 1,16,-1
 555 423 l 1,17,-1
 280 423 l 1,18,-1
 280 54 l 1,19,-1
 707 54 l 1,20,-1
 761 273 l 1,21,-1
 802 263 l 1,22,-1
 782 0 l 1,23,-1
 30 0 l 1,24,-1
 36 42 l 1,25,-1
 176 72 l 1,26,-1
 176 845 l 1,27,-1
 27 872 l 1,4,-1
EndSplineSet
Colour: ffffff
EndChar

StartChar: ecircumflex
Encoding: 234 234 98
Width: 740
VWidth: 0
Flags: MW
LayerCount: 2
Fore
SplineSet
240 1011 m 1,0,-1
 407 1192 l 1,1,-1
 461 1205 l 1,2,-1
 640 1019 l 1,3,-1
 608 982 l 1,4,-1
 427 1117 l 1,5,-1
 418 1117 l 1,6,-1
 261 981 l 1,7,-1
 240 1011 l 1,0,-1
27 872 m 1,8,-1
 34 914 l 1,9,-1
 767 914 l 1,10,-1
 736 645 l 1,11,-1
 690 651 l 1,12,-1
 681 863 l 1,13,-1
 280 863 l 1,14,-1
 280 477 l 1,15,-1
 564 477 l 1,16,-1
 592 566 l 1,17,-1
 646 574 l 1,18,-1
 613 305 l 1,19,-1
 562 296 l 1,20,-1
 555 423 l 1,21,-1
 280 423 l 1,22,-1
 280 54 l 1,23,-1
 707 54 l 1,24,-1
 761 273 l 1,25,-1
 802 263 l 1,26,-1
 782 0 l 1,27,-1
 30 0 l 1,28,-1
 36 42 l 1,29,-1
 176 72 l 1,30,-1
 176 845 l 1,31,-1
 27 872 l 1,8,-1
EndSplineSet
Colour: ffffff
EndChar

StartChar: edieresis
Encoding: 235 235 99
Width: 740
VWidth: 0
Flags: MW
LayerCount: 2
Fore
SplineSet
506 1062 m 0,0,1
 506 1140 506 1140 560 1140 c 0,2,3
 618 1140 618 1140 618 1062 c 0,4,5
 618 981 618 981 561 981 c 0,6,7
 506 981 506 981 506 1062 c 0,0,1
237 1062 m 0,8,9
 237 1140 237 1140 292 1140 c 0,10,11
 350 1140 350 1140 350 1062 c 0,12,13
 350 1021 350 1021 337.5 1001 c 128,-1,14
 325 981 325 981 294 981 c 0,15,16
 237 981 237 981 237 1062 c 0,8,9
27 872 m 1,17,-1
 34 914 l 1,18,-1
 767 914 l 1,19,-1
 736 645 l 1,20,-1
 690 651 l 1,21,-1
 681 863 l 1,22,-1
 280 863 l 1,23,-1
 280 477 l 1,24,-1
 564 477 l 1,25,-1
 592 566 l 1,26,-1
 646 574 l 1,27,-1
 613 305 l 1,28,-1
 562 296 l 1,29,-1
 555 423 l 1,30,-1
 280 423 l 1,31,-1
 280 54 l 1,32,-1
 707 54 l 1,33,-1
 761 273 l 1,34,-1
 802 263 l 1,35,-1
 782 0 l 1,36,-1
 30 0 l 1,37,-1
 36 42 l 1,38,-1
 176 72 l 1,39,-1
 176 845 l 1,40,-1
 27 872 l 1,17,-1
EndSplineSet
Colour: ffffff
EndChar

StartChar: egrave
Encoding: 232 232 100
Width: 740
VWidth: 0
Flags: MW
LayerCount: 2
Fore
SplineSet
248 1305 m 1,0,-1
 342 1342 l 1,1,-1
 475 1006 l 1,2,-1
 429 979 l 1,3,-1
 248 1305 l 1,0,-1
27 872 m 1,4,-1
 34 914 l 1,5,-1
 767 914 l 1,6,-1
 736 645 l 1,7,-1
 690 651 l 1,8,-1
 681 863 l 1,9,-1
 280 863 l 1,10,-1
 280 477 l 1,11,-1
 564 477 l 1,12,-1
 592 566 l 1,13,-1
 646 574 l 1,14,-1
 613 305 l 1,15,-1
 562 296 l 1,16,-1
 555 423 l 1,17,-1
 280 423 l 1,18,-1
 280 54 l 1,19,-1
 707 54 l 1,20,-1
 761 273 l 1,21,-1
 802 263 l 1,22,-1
 782 0 l 1,23,-1
 30 0 l 1,24,-1
 36 42 l 1,25,-1
 176 72 l 1,26,-1
 176 845 l 1,27,-1
 27 872 l 1,4,-1
EndSplineSet
Colour: ffffff
EndChar

StartChar: eight
Encoding: 56 56 101
Width: 776
VWidth: 0
Flags: MW
LayerCount: 2
Fore
SplineSet
171 975 m 0,0,1
 171 877 171 877 234.5 806.5 c 128,-1,2
 298 736 298 736 468 628 c 1,3,4
 597 741 597 741 597 891 c 0,5,6
 597 1001 597 1001 528 1078 c 128,-1,7
 459 1155 459 1155 363 1155 c 0,8,9
 278 1155 278 1155 224.5 1104.5 c 128,-1,10
 171 1054 171 1054 171 975 c 0,0,1
151 319 m 0,11,12
 151 254 151 254 177 198 c 128,-1,13
 203 142 203 142 242 107 c 128,-1,14
 281 72 281 72 325.5 52.5 c 128,-1,15
 370 33 370 33 409 33 c 0,16,17
 518 33 518 33 580.5 88.5 c 128,-1,18
 643 144 643 144 643 230 c 0,19,20
 643 320 643 320 574 392.5 c 128,-1,21
 505 465 505 465 296 596 c 1,22,23
 224 540 224 540 187.5 476.5 c 128,-1,24
 151 413 151 413 151 319 c 0,11,12
50 281 m 0,25,26
 50 458 50 458 257 621 c 1,27,-1
 257 626 l 1,28,29
 96 744 96 744 96 914 c 0,30,31
 96 1037 96 1037 178.5 1119.5 c 128,-1,32
 261 1202 261 1202 402 1202 c 0,33,34
 526 1202 526 1202 601 1125.5 c 128,-1,35
 676 1049 676 1049 676 923 c 0,36,37
 676 736 676 736 509 604 c 1,38,-1
 508 601 l 1,39,40
 623 523 623 523 676 448.5 c 128,-1,41
 729 374 729 374 729 281 c 0,42,43
 729 148 729 148 618.5 60.5 c 128,-1,44
 508 -27 508 -27 362 -27 c 0,45,46
 226 -27 226 -27 138 61.5 c 128,-1,47
 50 150 50 150 50 281 c 0,25,26
EndSplineSet
Colour: ffffff
EndChar

StartChar: emdash
Encoding: 8212 8212 102
Width: 1261
VWidth: 0
Flags: MW
LayerCount: 2
Fore
SplineSet
66 430 m 1,0,-1
 79 493 l 1,1,-1
 1198 498 l 1,2,-1
 1186 437 l 1,3,-1
 66 430 l 1,0,-1
EndSplineSet
Colour: ffffff
EndChar

StartChar: endash
Encoding: 8211 8211 103
Width: 750
VWidth: 0
Flags: MW
LayerCount: 2
Fore
SplineSet
66 430 m 1,0,-1
 78 493 l 1,1,-1
 687 498 l 1,2,-1
 678 437 l 1,3,-1
 66 430 l 1,0,-1
EndSplineSet
Colour: ffffff
EndChar

StartChar: equal
Encoding: 61 61 104
Width: 755
VWidth: 0
Flags: MW
LayerCount: 2
Fore
SplineSet
65 580 m 1,0,-1
 78 645 l 1,1,-1
 691 645 l 1,2,-1
 680 580 l 1,3,-1
 65 580 l 1,0,-1
62 340 m 1,4,-1
 74 405 l 1,5,-1
 689 405 l 1,6,-1
 678 340 l 1,7,-1
 62 340 l 1,4,-1
EndSplineSet
Colour: ffffff
EndChar

StartChar: eth
Encoding: 240 240 105
Width: 1267
VWidth: 0
Flags: MW
LayerCount: 2
Fore
SplineSet
292 54 m 1,0,-1
 381 54 l 2,1,2
 584 54 584 54 690.5 161.5 c 128,-1,3
 797 269 797 269 797 461 c 0,4,5
 797 664 797 664 689.5 772 c 128,-1,6
 582 880 582 880 385 880 c 0,7,8
 368 880 368 880 292 876 c 1,9,-1
 292 484 l 1,10,-1
 502 500 l 1,11,-1
 494 440 l 1,12,-1
 292 424 l 1,13,-1
 292 54 l 1,0,-1
48 405 m 1,14,-1
 57 466 l 1,15,-1
 191 476 l 1,16,-1
 191 838 l 1,17,-1
 49 860 l 1,18,-1
 59 896 l 1,19,20
 289 934 289 934 422 934 c 0,21,22
 511 934 511 934 583.5 917 c 128,-1,23
 656 900 656 900 707 869 c 128,-1,24
 758 838 758 838 795 798 c 128,-1,25
 832 758 832 758 853 707.5 c 128,-1,26
 874 657 874 657 884 605.5 c 128,-1,27
 894 554 894 554 894 497 c 0,28,29
 894 335 894 335 819 221 c 128,-1,30
 744 107 744 107 620 53.5 c 128,-1,31
 496 0 496 0 334 0 c 2,32,-1
 44 0 l 1,33,-1
 52 42 l 1,34,-1
 191 72 l 1,35,-1
 191 416 l 1,36,-1
 48 405 l 1,14,-1
EndSplineSet
Colour: ffffff
EndChar

StartChar: exclam
Encoding: 33 33 106
Width: 248
VWidth: 0
Flags: MW
LayerCount: 2
Fore
SplineSet
68 1253 m 0,0,1
 68 1272 68 1272 88 1283 c 128,-1,2
 108 1294 108 1294 137 1294 c 0,3,4
 190 1294 190 1294 190 1253 c 0,5,6
 190 946 190 946 141 360 c 1,7,-1
 97 369 l 1,8,9
 68 986 68 986 68 1253 c 0,0,1
62 66 m 0,10,11
 62 107 62 107 78 133 c 128,-1,12
 94 159 94 159 119 159 c 0,13,14
 146 159 146 159 162.5 133 c 128,-1,15
 179 107 179 107 179 66 c 0,16,17
 179 -33 179 -33 120 -33 c 0,18,19
 62 -33 62 -33 62 66 c 0,10,11
EndSplineSet
Colour: ffffff
EndChar

StartChar: exclamdown
Encoding: 161 161 107
Width: 249
VWidth: 0
Flags: MW
LayerCount: 2
Fore
SplineSet
70 809 m 0,0,1
 70 910 70 910 129 910 c 0,2,3
 186 910 186 910 186 809 c 0,4,5
 186 768 186 768 170 742.5 c 128,-1,6
 154 717 154 717 129 717 c 0,7,8
 102 717 102 717 86 742.5 c 128,-1,9
 70 768 70 768 70 809 c 0,0,1
58 -375 m 0,10,11
 58 -71 58 -71 107 515 c 1,12,-1
 113 517 l 1,13,-1
 153 509 l 1,14,-1
 153 507 l 1,15,16
 182 -106 182 -106 182 -374 c 2,17,-1
 182 -375 l 1,18,19
 168 -416 168 -416 112 -416 c 0,20,21
 58 -416 58 -416 58 -375 c 0,10,11
EndSplineSet
Colour: ffffff
EndChar

StartChar: f
Encoding: 102 102 108
Width: 838
VWidth: 0
Flags: MW
LayerCount: 2
Fore
SplineSet
50 872 m 1,0,-1
 57 914 l 1,1,-1
 787 914 l 1,2,-1
 754 643 l 1,3,-1
 705 651 l 1,4,-1
 694 863 l 1,5,-1
 300 863 l 1,6,-1
 300 450 l 1,7,-1
 577 450 l 1,8,-1
 604 549 l 1,9,-1
 657 556 l 1,10,-1
 626 271 l 1,11,-1
 574 263 l 1,12,-1
 566 397 l 1,13,-1
 300 397 l 1,14,-1
 300 70 l 1,15,-1
 496 53 l 1,16,-1
 484 0 l 1,17,-1
 54 0 l 1,18,-1
 57 42 l 1,19,-1
 197 72 l 1,20,-1
 197 845 l 1,21,-1
 50 872 l 1,0,-1
EndSplineSet
Colour: ffffff
EndChar

StartChar: five
Encoding: 53 53 109
Width: 823
VWidth: 0
Flags: MW
LayerCount: 2
Fore
SplineSet
42 -136 m 0,0,1
 42 -98 42 -98 70.5 -57.5 c 128,-1,2
 99 -17 99 -17 133 -15 c 1,3,4
 161 -125 161 -125 217 -180 c 128,-1,5
 273 -235 273 -235 368 -235 c 0,6,7
 419 -235 419 -235 468 -217.5 c 128,-1,8
 517 -200 517 -200 560 -165.5 c 128,-1,9
 603 -131 603 -131 629.5 -71.5 c 128,-1,10
 656 -12 656 -12 656 64 c 0,11,12
 656 211 656 211 535 298.5 c 128,-1,13
 414 386 414 386 205 401 c 1,14,-1
 291 912 l 1,15,-1
 737 948 l 1,16,-1
 720 831 l 1,17,-1
 346 804 l 1,18,-1
 291 503 l 1,19,20
 511 484 511 484 642 385 c 128,-1,21
 773 286 773 286 773 120 c 0,22,23
 773 -63 773 -63 649 -180 c 128,-1,24
 525 -297 525 -297 328 -297 c 0,25,26
 260 -297 260 -297 197 -281 c 128,-1,27
 134 -265 134 -265 88 -227 c 128,-1,28
 42 -189 42 -189 42 -136 c 0,0,1
EndSplineSet
Colour: ffffff
EndChar

StartChar: four
Encoding: 52 52 110
Width: 954
VWidth: 0
Flags: MW
LayerCount: 2
Fore
SplineSet
158 200 m 1,0,-1
 558 200 l 1,1,-1
 558 751 l 1,2,-1
 158 200 l 1,0,-1
42 154 m 1,3,-1
 644 969 l 1,4,-1
 678 958 l 1,5,6
 667 773 667 773 667 476 c 2,7,-1
 667 200 l 1,8,-1
 872 200 l 1,9,-1
 857 125 l 1,10,-1
 667 125 l 1,11,-1
 667 -271 l 1,12,-1
 562 -297 l 1,13,-1
 562 127 l 1,14,-1
 57 127 l 1,15,-1
 42 154 l 1,3,-1
EndSplineSet
Colour: ffffff
EndChar

StartChar: g
Encoding: 103 103 111
Width: 966
VWidth: 0
Flags: MW
LayerCount: 2
Fore
SplineSet
46 421 m 0,0,1
 46 525 46 525 82 619 c 128,-1,2
 118 713 118 713 181.5 782.5 c 128,-1,3
 245 852 245 852 335.5 893 c 128,-1,4
 426 934 426 934 530 934 c 0,5,6
 721 934 721 934 823 862 c 1,7,-1
 793 604 l 1,8,-1
 748 609 l 1,9,-1
 737 785 l 1,10,11
 706 824 706 824 640.5 851.5 c 128,-1,12
 575 879 575 879 485 879 c 0,13,14
 334 879 334 879 245 763.5 c 128,-1,15
 156 648 156 648 156 470 c 0,16,17
 156 385 156 385 174.5 311 c 128,-1,18
 193 237 193 237 232 173.5 c 128,-1,19
 271 110 271 110 340.5 73 c 128,-1,20
 410 36 410 36 502 36 c 0,21,22
 635 36 635 36 724 88 c 1,23,-1
 724 325 l 1,24,-1
 513 350 l 1,25,-1
 519 389 l 1,26,-1
 929 389 l 1,27,-1
 922 350 l 1,28,-1
 828 329 l 1,29,-1
 828 39 l 1,30,31
 664 -20 664 -20 458 -20 c 0,32,33
 276 -20 276 -20 161 97 c 128,-1,34
 46 214 46 214 46 421 c 0,0,1
EndSplineSet
Colour: ffffff
EndChar

StartChar: germandbls
Encoding: 223 223 112
Width: 1037
VWidth: 0
Flags: MW
LayerCount: 2
Back
SplineSet
459.388 152 m 0,0,1
 459.388 232.629 459.388 232.629 538.388 256 c 1,2,3
 555.626 123.346 555.626 123.346 604.47 69.1728 c 0
 653.314 15 653.314 15 755.388 15 c 0,4,5
 826.916 15 826.916 15 874.152 58.1638 c 0
 921.388 101.328 921.388 101.328 921.388 154 c 0,6,7
 921.388 193.384 921.388 193.384 898.059 229.725 c 0
 874.731 266.066 874.731 266.066 837.425 295.473 c 0
 800.12 324.881 800.12 324.881 755.004 354.098 c 0
 709.888 383.316 709.888 383.316 664.772 414.371 c 0
 619.656 445.427 619.656 445.427 582.351 478.751 c 0
 545.045 512.076 545.045 512.076 521.717 556.01 c 0
 498.388 599.944 498.388 599.944 498.388 649 c 0,8,9
 498.388 694.599 498.388 694.599 513.429 734.631 c 0
 528.471 774.663 528.471 774.663 558.253 807.025 c 0
 588.035 839.387 588.035 839.387 637.992 858.193 c 0
 687.949 877 687.949 877 752.388 877 c 0,10,11
 850.537 877 850.537 877 914.963 820.68 c 0
 979.388 764.36 979.388 764.36 979.388 692 c 0,12,13
 979.388 611.562 979.388 611.562 909.388 605 c 1,14,-1
 900.388 640 l 1,15,16
 872.592 735.583 872.592 735.583 834.12 782.654 c 0
 795.649 829.725 795.649 829.725 722 829.725 c 0,17,18
 656.736 829.725 656.736 829.725 616.562 793.291 c 0
 576.388 756.856 576.388 756.856 576.388 702 c 0,19,20
 576.388 659.306 576.388 659.306 600.379 619.646 c 0
 624.369 579.986 624.369 579.986 662.733 548.194 c 0
 701.097 516.402 701.097 516.402 747.493 485.418 c 0
 793.889 454.435 793.889 454.435 840.285 423.255 c 0
 886.681 392.076 886.681 392.076 925.045 359.867 c 0
 963.409 327.659 963.409 327.659 987.399 287.191 c 0
 1011.39 246.723 1011.39 246.723 1011.39 203 c 0,21,22
 1011.39 131.435 1011.39 131.435 971.048 76.1042 c 0
 930.706 20.7737 930.706 20.7737 865.397 -7.61317 c 0
 800.087 -36 800.087 -36 722.388 -36 c 0,23,24
 612.66 -36 612.66 -36 536.024 15.3613 c 0
 459.388 66.7226 459.388 66.7226 459.388 152 c 0,0,1
EndSplineSet
Fore
SplineSet
29 0 m 1,0,-1
 34 42 l 1,1,-1
 184 72 l 1,2,-1
 184 529 l 2,3,4
 184 633 184 633 218.5 711.5 c 128,-1,5
 253 790 253 790 316 838 c 128,-1,6
 379 886 379 886 462 910 c 128,-1,7
 545 934 545 934 646 934 c 0,8,9
 727 934 727 934 795.5 917.5 c 128,-1,10
 864 901 864 901 909.5 866 c 128,-1,11
 955 831 955 831 955 783 c 0,12,13
 955 749 955 749 929 728.5 c 128,-1,14
 903 708 903 708 868 708 c 1,15,16
 834 883 834 883 684 883 c 0,17,18
 616 883 616 883 573 842.5 c 128,-1,19
 530 802 530 802 530 732 c 0,20,21
 530 681 530 681 556 639.5 c 128,-1,22
 582 598 582 598 624 568.5 c 128,-1,23
 666 539 666 539 716.5 512.5 c 128,-1,24
 767 486 767 486 817.5 459.5 c 128,-1,25
 868 433 868 433 910 403 c 128,-1,26
 952 373 952 373 978 330.5 c 128,-1,27
 1004 288 1004 288 1004 236 c 0,28,29
 1004 123 1004 123 909 48.5 c 128,-1,30
 814 -26 814 -26 657 -26 c 0,31,32
 588 -26 588 -26 522 -4.5 c 128,-1,33
 456 17 456 17 417 49 c 1,34,-1
 446 294 l 1,35,-1
 495 286 l 1,36,-1
 511 107 l 1,37,38
 562 37 562 37 710 37 c 0,39,40
 786 37 786 37 840.5 74.5 c 128,-1,41
 895 112 895 112 895 180 c 0,42,43
 895 224 895 224 869.5 260.5 c 128,-1,44
 844 297 844 297 803 324 c 128,-1,45
 762 351 762 351 712.5 376 c 128,-1,46
 663 401 663 401 613.5 428 c 128,-1,47
 564 455 564 455 523.5 486.5 c 128,-1,48
 483 518 483 518 457 563.5 c 128,-1,49
 431 609 431 609 431 665 c 0,50,51
 431 751 431 751 474.5 810.5 c 128,-1,52
 518 870 518 870 575 892 c 1,53,-1
 575 896 l 1,54,55
 503 886 503 886 452.5 865 c 128,-1,56
 402 844 402 844 363 805.5 c 128,-1,57
 324 767 324 767 305.5 704 c 128,-1,58
 287 641 287 641 287 552 c 2,59,-1
 287 0 l 1,60,-1
 29 0 l 1,0,-1
EndSplineSet
AlternateSubs2: "Alternate Substitution in Latin lookup 0-1" germandbls.alt
Colour: ffffff
EndChar

StartChar: grave
Encoding: 96 96 113
Width: 384
VWidth: 0
Flags: MW
LayerCount: 2
Fore
SplineSet
78 1661 m 1,0,-1
 172 1698 l 1,1,-1
 305 1362 l 1,2,-1
 259 1335 l 1,3,-1
 78 1661 l 1,0,-1
EndSplineSet
Colour: ffffff
EndChar

StartChar: greater
Encoding: 62 62 114
Width: 747
VWidth: 0
Flags: MW
LayerCount: 2
Fore
SplineSet
44 -37 m 1,0,-1
 564 444 l 1,1,-1
 63 926 l 1,2,-1
 79 973 l 1,3,-1
 698 456 l 1,4,-1
 700 426 l 1,5,-1
 66 -82 l 1,6,-1
 44 -37 l 1,0,-1
EndSplineSet
Colour: ffffff
EndChar

StartChar: guillemotleft
Encoding: 171 171 115
Width: 644
VWidth: 0
Flags: MW
LayerCount: 2
Fore
SplineSet
268 469 m 1,0,-1
 536 822 l 1,1,-1
 564 786 l 1,2,-1
 376 462 l 1,3,-1
 563 116 l 1,4,-1
 531 78 l 1,5,-1
 271 449 l 1,6,-1
 268 469 l 1,0,-1
21 469 m 1,7,-1
 289 822 l 1,8,-1
 317 786 l 1,9,-1
 129 462 l 1,10,-1
 316 116 l 1,11,-1
 284 78 l 1,12,-1
 24 449 l 1,13,-1
 21 469 l 1,7,-1
EndSplineSet
Colour: ffffff
EndChar

StartChar: guillemotright
Encoding: 187 187 116
Width: 645
VWidth: 0
Flags: MW
LayerCount: 2
Fore
SplineSet
403 469 m 1,0,-1
 400 449 l 1,1,-1
 140 78 l 1,2,-1
 108 116 l 1,3,-1
 295 462 l 1,4,-1
 107 786 l 1,5,-1
 135 822 l 1,6,-1
 403 469 l 1,0,-1
650 469 m 1,7,-1
 647 449 l 1,8,-1
 387 78 l 1,9,-1
 355 116 l 1,10,-1
 542 462 l 1,11,-1
 354 786 l 1,12,-1
 382 822 l 1,13,-1
 650 469 l 1,7,-1
EndSplineSet
Colour: ffffff
EndChar

StartChar: guilsinglleft
Encoding: 8249 8249 117
Width: 397
VWidth: 0
Flags: MW
LayerCount: 2
Fore
SplineSet
49 469 m 1,0,-1
 317 822 l 1,1,-1
 345 786 l 1,2,-1
 157 462 l 1,3,-1
 344 116 l 1,4,-1
 312 78 l 1,5,-1
 52 449 l 1,6,-1
 49 469 l 1,0,-1
EndSplineSet
Colour: ffffff
EndChar

StartChar: guilsinglright
Encoding: 8250 8250 118
Width: 398
VWidth: 0
Flags: MW
LayerCount: 2
Fore
SplineSet
377 469 m 1,0,-1
 374 449 l 1,1,-1
 114 78 l 1,2,-1
 82 116 l 1,3,-1
 269 462 l 1,4,-1
 81 786 l 1,5,-1
 109 822 l 1,6,-1
 377 469 l 1,0,-1
EndSplineSet
Colour: ffffff
EndChar

StartChar: h
Encoding: 104 104 119
Width: 1105
VWidth: 0
Flags: MW
LayerCount: 2
Fore
SplineSet
49 875 m 1,0,-1
 52 914 l 1,1,-1
 448 914 l 1,2,-1
 443 875 l 1,3,-1
 304 852 l 1,4,-1
 304 486 l 1,5,-1
 795 486 l 1,6,-1
 795 850 l 1,7,-1
 641 875 l 1,8,-1
 648 914 l 1,9,-1
 1043 914 l 1,10,-1
 1035 875 l 1,11,-1
 898 852 l 1,12,-1
 898 65 l 1,13,-1
 1051 46 l 1,14,-1
 1044 0 l 1,15,-1
 651 0 l 1,16,-1
 659 42 l 1,17,-1
 795 72 l 1,18,-1
 795 426 l 1,19,-1
 304 426 l 1,20,-1
 304 65 l 1,21,-1
 460 46 l 1,22,-1
 449 0 l 1,23,-1
 57 0 l 1,24,-1
 62 42 l 1,25,-1
 199 72 l 1,26,-1
 199 850 l 1,27,-1
 49 875 l 1,0,-1
EndSplineSet
Colour: ffffff
EndChar

StartChar: hyphen
Encoding: 45 45 120
Width: 544
VWidth: 0
Flags: MW
LayerCount: 2
Fore
SplineSet
66 419 m 1,0,-1
 76 480 l 1,1,-1
 482 497 l 1,2,-1
 473 437 l 1,3,-1
 66 419 l 1,0,-1
EndSplineSet
Colour: ffffff
EndChar

StartChar: i
Encoding: 105 105 121
Width: 512
VWidth: 0
Flags: MW
LayerCount: 2
Fore
SplineSet
47 875 m 1,0,-1
 53 914 l 1,1,-1
 450 914 l 1,2,-1
 443 875 l 1,3,-1
 298 852 l 1,4,-1
 298 65 l 1,5,-1
 461 46 l 1,6,-1
 452 0 l 1,7,-1
 57 0 l 1,8,-1
 62 42 l 1,9,-1
 190 72 l 1,10,-1
 190 850 l 1,11,-1
 47 875 l 1,0,-1
EndSplineSet
Colour: ffffff
EndChar

StartChar: iacute
Encoding: 237 237 122
Width: 512
VWidth: 0
Flags: MW
LayerCount: 2
Fore
SplineSet
206 1007 m 1,0,-1
 338 1344 l 1,1,-1
 434 1305 l 1,2,-1
 252 981 l 1,3,-1
 206 1007 l 1,0,-1
47 875 m 1,4,-1
 53 914 l 1,5,-1
 450 914 l 1,6,-1
 443 875 l 1,7,-1
 298 852 l 1,8,-1
 298 65 l 1,9,-1
 461 46 l 1,10,-1
 452 0 l 1,11,-1
 57 0 l 1,12,-1
 62 42 l 1,13,-1
 190 72 l 1,14,-1
 190 850 l 1,15,-1
 47 875 l 1,4,-1
EndSplineSet
Colour: ffffff
EndChar

StartChar: icircumflex
Encoding: 238 238 123
Width: 512
VWidth: 0
Flags: MW
LayerCount: 2
Fore
SplineSet
52 1007 m 1,0,-1
 218 1188 l 1,1,-1
 272 1201 l 1,2,-1
 452 1015 l 1,3,-1
 420 978 l 1,4,-1
 238 1113 l 1,5,-1
 230 1113 l 1,6,-1
 72 977 l 1,7,-1
 52 1007 l 1,0,-1
47 875 m 1,8,-1
 53 914 l 1,9,-1
 450 914 l 1,10,-1
 443 875 l 1,11,-1
 298 852 l 1,12,-1
 298 65 l 1,13,-1
 461 46 l 1,14,-1
 452 0 l 1,15,-1
 57 0 l 1,16,-1
 62 42 l 1,17,-1
 190 72 l 1,18,-1
 190 850 l 1,19,-1
 47 875 l 1,8,-1
EndSplineSet
Colour: ffffff
EndChar

StartChar: idieresis
Encoding: 239 239 124
Width: 512
VWidth: 0
Flags: MW
LayerCount: 2
Fore
SplineSet
326 1091 m 0,0,1
 326 1169 326 1169 380 1169 c 0,2,3
 438 1169 438 1169 438 1091 c 0,4,5
 438 1010 438 1010 381 1010 c 0,6,7
 326 1010 326 1010 326 1091 c 0,0,1
57 1091 m 0,8,9
 57 1169 57 1169 112 1169 c 0,10,11
 170 1169 170 1169 170 1091 c 0,12,13
 170 1050 170 1050 157.5 1030 c 128,-1,14
 145 1010 145 1010 114 1010 c 0,15,16
 57 1010 57 1010 57 1091 c 0,8,9
47 875 m 1,17,-1
 53 914 l 1,18,-1
 450 914 l 1,19,-1
 443 875 l 1,20,-1
 298 852 l 1,21,-1
 298 65 l 1,22,-1
 461 46 l 1,23,-1
 452 0 l 1,24,-1
 57 0 l 1,25,-1
 62 42 l 1,26,-1
 190 72 l 1,27,-1
 190 850 l 1,28,-1
 47 875 l 1,17,-1
EndSplineSet
Colour: ffffff
EndChar

StartChar: igrave
Encoding: 236 236 125
Width: 512
VWidth: 0
Flags: MW
LayerCount: 2
Fore
SplineSet
68 1304 m 1,0,-1
 162 1341 l 1,1,-1
 294 1005 l 1,2,-1
 248 978 l 1,3,-1
 68 1304 l 1,0,-1
47 875 m 1,4,-1
 53 914 l 1,5,-1
 450 914 l 1,6,-1
 443 875 l 1,7,-1
 298 852 l 1,8,-1
 298 65 l 1,9,-1
 461 46 l 1,10,-1
 452 0 l 1,11,-1
 57 0 l 1,12,-1
 62 42 l 1,13,-1
 190 72 l 1,14,-1
 190 850 l 1,15,-1
 47 875 l 1,4,-1
EndSplineSet
Colour: ffffff
EndChar

StartChar: j
Encoding: 106 106 126
Width: 583
VWidth: 0
Flags: MW
LayerCount: 2
Fore
SplineSet
33 -281 m 1,0,1
 166 -188 166 -188 225 -85.5 c 128,-1,2
 284 17 284 17 284 184 c 2,3,-1
 284 850 l 1,4,-1
 134 875 l 1,5,-1
 139 914 l 1,6,-1
 538 914 l 1,7,-1
 532 875 l 1,8,-1
 395 852 l 1,9,-1
 391 262 l 2,10,11
 390 136 390 136 374 51 c 128,-1,12
 358 -34 358 -34 315 -101.5 c 128,-1,13
 272 -169 272 -169 213.5 -217 c 128,-1,14
 155 -265 155 -265 55 -325 c 1,15,-1
 33 -281 l 1,0,1
EndSplineSet
Colour: ffffff
EndChar

StartChar: k
Encoding: 107 107 127
Width: 1017
VWidth: 0
Flags: MW
LayerCount: 2
Fore
SplineSet
362 460 m 1,0,1
 441 539 441 539 499 603 c 1,2,-1
 738 850 l 1,3,-1
 605 875 l 1,4,-1
 609 914 l 1,5,-1
 946 914 l 1,6,-1
 943 875 l 1,7,-1
 820 852 l 1,8,-1
 456 474 l 1,9,-1
 580 314 l 2,10,11
 695 166 695 166 772.5 111 c 128,-1,12
 850 56 850 56 928 46 c 2,13,-1
 958 42 l 1,14,-1
 956 -1 l 1,15,16
 920 -20 920 -20 864 -20 c 0,17,18
 816 -20 816 -20 774.5 -7 c 128,-1,19
 733 6 733 6 701 25 c 128,-1,20
 669 44 669 44 634.5 79.5 c 128,-1,21
 600 115 600 115 575.5 146.5 c 128,-1,22
 551 178 551 178 515 230 c 2,23,-1
 364 445 l 1,24,-1
 362 460 l 1,0,1
47 875 m 1,25,-1
 52 914 l 1,26,-1
 446 914 l 1,27,-1
 443 875 l 1,28,-1
 298 852 l 1,29,-1
 298 65 l 1,30,-1
 464 46 l 1,31,-1
 461 0 l 1,32,-1
 57 0 l 1,33,-1
 63 42 l 1,34,-1
 190 72 l 1,35,-1
 190 850 l 1,36,-1
 47 875 l 1,25,-1
EndSplineSet
Colour: ffffff
EndChar

StartChar: l
Encoding: 108 108 128
Width: 867
VWidth: 0
Flags: MW
LayerCount: 2
Fore
SplineSet
53 874 m 1,0,-1
 57 914 l 1,1,-1
 452 914 l 1,2,-1
 448 874 l 1,3,-1
 302 853 l 1,4,-1
 302 54 l 1,5,-1
 716 54 l 1,6,-1
 783 288 l 1,7,-1
 827 280 l 1,8,-1
 815 0 l 1,9,-1
 51 0 l 1,10,-1
 56 42 l 1,11,-1
 195 72 l 1,12,-1
 195 849 l 1,13,-1
 53 874 l 1,0,-1
EndSplineSet
Colour: ffffff
EndChar

StartChar: less
Encoding: 60 60 129
Width: 745
VWidth: 0
Flags: MW
LayerCount: 2
Fore
SplineSet
714 -37 m 1,0,-1
 692 -82 l 1,1,-1
 58 426 l 1,2,-1
 60 456 l 1,3,-1
 679 973 l 1,4,-1
 695 926 l 1,5,-1
 194 444 l 1,6,-1
 714 -37 l 1,0,-1
EndSplineSet
Colour: ffffff
EndChar

StartChar: logicalnot
Encoding: 172 172 130
Width: 878
VWidth: 0
Flags: MW
LayerCount: 2
Fore
SplineSet
54 609 m 1,0,-1
 66 664 l 1,1,-1
 812 664 l 1,2,-1
 812 351 l 1,3,-1
 740 333 l 1,4,-1
 740 609 l 1,5,-1
 54 609 l 1,0,-1
EndSplineSet
Colour: ffffff
EndChar

StartChar: m
Encoding: 109 109 131
Width: 1324
VWidth: 0
Flags: MW
LayerCount: 2
Fore
SplineSet
39 0 m 1,0,-1
 44 33 l 1,1,-1
 181 64 l 1,2,-1
 215 845 l 1,3,-1
 61 878 l 1,4,-1
 68 914 l 1,5,-1
 358 914 l 1,6,-1
 438 726 l 1,7,-1
 652 227 l 1,8,-1
 895 769 l 1,9,-1
 961 914 l 1,10,-1
 1251 914 l 1,11,-1
 1246 878 l 1,12,-1
 1104 848 l 1,13,-1
 1124 60 l 1,14,-1
 1274 40 l 1,15,-1
 1272 0 l 1,16,-1
 870 0 l 1,17,-1
 876 33 l 1,18,-1
 1017 64 l 1,19,-1
 995 839 l 1,20,-1
 646 60 l 1,21,-1
 596 50 l 1,22,-1
 278 821 l 1,23,-1
 248 61 l 1,24,-1
 399 37 l 1,25,-1
 394 0 l 1,26,-1
 39 0 l 1,0,-1
EndSplineSet
Colour: ffffff
EndChar

StartChar: macron
Encoding: 175 175 132
Width: 609
VWidth: 0
Flags: MW
LayerCount: 2
Fore
SplineSet
80 1380 m 1,0,-1
 89 1432 l 1,1,-1
 529 1432 l 1,2,-1
 521 1380 l 1,3,-1
 80 1380 l 1,0,-1
EndSplineSet
Colour: ffffff
EndChar

StartChar: multiply
Encoding: 215 215 133
Width: 562
VWidth: 0
Flags: MW
LayerCount: 2
Fore
SplineSet
56 294 m 1,0,-1
 240 462 l 1,1,-1
 58 630 l 1,2,-1
 116 678 l 1,3,-1
 280 496 l 1,4,-1
 452 680 l 1,5,-1
 498 622 l 1,6,-1
 318 459 l 1,7,-1
 506 287 l 1,8,-1
 448 242 l 1,9,-1
 277 425 l 1,10,-1
 102 236 l 1,11,-1
 56 294 l 1,0,-1
EndSplineSet
Colour: ffffff
EndChar

StartChar: n
Encoding: 110 110 134
Width: 1083
VWidth: 0
Flags: MW
LayerCount: 2
Fore
SplineSet
47 878 m 1,0,-1
 55 914 l 1,1,-1
 308 914 l 1,2,-1
 821 187 l 1,3,-1
 821 850 l 1,4,-1
 668 875 l 1,5,-1
 674 914 l 1,6,-1
 1038 914 l 1,7,-1
 1030 875 l 1,8,-1
 894 852 l 1,9,-1
 894 -7 l 1,10,-1
 840 -18 l 1,11,-1
 276 783 l 1,12,-1
 276 65 l 1,13,-1
 430 46 l 1,14,-1
 420 0 l 1,15,-1
 59 0 l 1,16,-1
 65 42 l 1,17,-1
 202 72 l 1,18,-1
 202 845 l 1,19,-1
 47 878 l 1,0,-1
EndSplineSet
Colour: ffffff
EndChar

StartChar: nine
Encoding: 57 57 136
Width: 780
VWidth: 0
Flags: MW
LayerCount: 2
Fore
SplineSet
170 597 m 0,0,1
 170 462 170 462 231.5 377 c 128,-1,2
 293 292 293 292 403 292 c 0,3,4
 473 292 473 292 523.5 316 c 128,-1,5
 574 340 574 340 598 372 c 1,6,7
 605 408 605 408 605 516 c 0,8,9
 605 693 605 693 538.5 794 c 128,-1,10
 472 895 472 895 375 895 c 0,11,12
 273 895 273 895 221.5 817.5 c 128,-1,13
 170 740 170 740 170 597 c 0,0,1
52 571 m 0,14,15
 52 728 52 728 149.5 836.5 c 128,-1,16
 247 945 247 945 399 945 c 0,17,18
 473 945 473 945 530.5 921 c 128,-1,19
 588 897 588 897 624 856.5 c 128,-1,20
 660 816 660 816 683.5 757.5 c 128,-1,21
 707 699 707 699 716 637 c 128,-1,22
 725 575 725 575 725 501 c 0,23,24
 725 253 725 253 559 40.5 c 128,-1,25
 393 -172 393 -172 139 -261 c 1,26,-1
 117 -217 l 1,27,28
 493 -35 493 -35 595 306 c 1,29,-1
 589 306 l 1,30,31
 551 277 551 277 524 260.5 c 128,-1,32
 497 244 497 244 445 229.5 c 128,-1,33
 393 215 393 215 329 215 c 0,34,35
 243 215 243 215 178.5 266.5 c 128,-1,36
 114 318 114 318 83 398 c 128,-1,37
 52 478 52 478 52 571 c 0,14,15
EndSplineSet
Colour: ffffff
EndChar

StartChar: ntilde
Encoding: 241 241 137
Width: 1083
VWidth: 0
Flags: MW
LayerCount: 2
Fore
SplineSet
274 1014 m 1,0,1
 285 1072 285 1072 308 1108 c 128,-1,2
 331 1144 331 1144 359 1155.5 c 128,-1,3
 387 1167 387 1167 415.5 1164.5 c 128,-1,4
 444 1162 444 1162 473 1146 c 2,5,-1
 546 1105 l 2,6,7
 566 1094 566 1094 579.5 1088 c 128,-1,8
 593 1082 593 1082 609.5 1077 c 128,-1,9
 626 1072 626 1072 638.5 1075.5 c 128,-1,10
 651 1079 651 1079 664.5 1088 c 128,-1,11
 678 1097 678 1097 689.5 1116.5 c 128,-1,12
 701 1136 701 1136 712 1166 c 1,13,-1
 744 1158 l 1,14,15
 723 1053 723 1053 667.5 1019 c 128,-1,16
 612 985 612 985 544 1026 c 1,17,-1
 472 1066 l 2,18,19
 446 1080 446 1080 433 1086 c 128,-1,20
 420 1092 420 1092 398.5 1096 c 128,-1,21
 377 1100 377 1100 363.5 1092.5 c 128,-1,22
 350 1085 350 1085 334 1064 c 128,-1,23
 318 1043 318 1043 305 1006 c 1,24,-1
 274 1014 l 1,0,1
47 878 m 1,25,-1
 55 914 l 1,26,-1
 308 914 l 1,27,-1
 821 187 l 1,28,-1
 821 850 l 1,29,-1
 668 875 l 1,30,-1
 674 914 l 1,31,-1
 1038 914 l 1,32,-1
 1030 875 l 1,33,-1
 894 852 l 1,34,-1
 894 -7 l 1,35,-1
 840 -18 l 1,36,-1
 276 783 l 1,37,-1
 276 65 l 1,38,-1
 430 46 l 1,39,-1
 420 0 l 1,40,-1
 59 0 l 1,41,-1
 65 42 l 1,42,-1
 202 72 l 1,43,-1
 202 845 l 1,44,-1
 47 878 l 1,25,-1
EndSplineSet
Colour: ffffff
EndChar

StartChar: numbersign
Encoding: 35 35 138
Width: 1065
VWidth: 0
Flags: MW
LayerCount: 2
Back
SplineSet
263.058 102.03 m 17,0,-1
 204.754 95.7832 l 1,1,-1
 319.972 858.579 l 1,2,-1
 378.275 866.908 l 1,3,-1
 263.058 102.03 l 17,0,-1
89.5371 591.357 m 17,4,-1
 104.112 650.354 l 1,5,-1
 793.335 650.354 l 1,6,-1
 780.842 591.357 l 1,7,-1
 89.5371 591.357 l 17,4,-1
43.0332 324.137 m 17,8,-1
 61.7734 383.133 l 1,9,-1
 748.914 383.133 l 1,10,-1
 730.868 324.137 l 1,11,-1
 43.0332 324.137 l 17,8,-1
524.726 102.03 m 17,12,-1
 465.729 95.7832 l 1,13,-1
 580.947 858.579 l 1,14,-1
 639.943 866.213 l 1,15,-1
 524.726 102.03 l 17,12,-1
EndSplineSet
Fore
SplineSet
75 556 m 1,0,-1
 97 633 l 1,1,-1
 300 633 l 1,2,-1
 344 925 l 1,3,-1
 412 935 l 1,4,-1
 366 633 l 1,5,-1
 564 633 l 1,6,-1
 609 925 l 1,7,-1
 677 934 l 1,8,-1
 632 633 l 1,9,-1
 859 633 l 1,10,-1
 840 556 l 1,11,-1
 620 556 l 1,12,-1
 585 323 l 1,13,-1
 799 323 l 1,14,-1
 778 246 l 1,15,-1
 573 246 l 1,16,-1
 533 -19 l 1,17,-1
 464 -26 l 1,18,-1
 505 246 l 1,19,-1
 307 246 l 1,20,-1
 267 -19 l 1,21,-1
 200 -26 l 1,22,-1
 241 246 l 1,23,-1
 18 246 l 1,24,-1
 39 323 l 1,25,-1
 253 323 l 1,26,-1
 288 556 l 1,27,-1
 75 556 l 1,0,-1
354 556 m 1,28,-1
 319 323 l 1,29,-1
 517 323 l 1,30,-1
 553 556 l 1,31,-1
 354 556 l 1,28,-1
EndSplineSet
Colour: ffffff
EndChar

StartChar: o
Encoding: 111 111 139
Width: 968
VWidth: 0
Flags: MW
LayerCount: 2
Fore
SplineSet
156 479 m 0,0,1
 156 277 156 277 256 157 c 128,-1,2
 356 37 356 37 503 37 c 0,3,4
 669 37 669 37 759 147.5 c 128,-1,5
 849 258 849 258 849 430 c 0,6,7
 849 626 849 626 751 752 c 128,-1,8
 653 878 653 878 496 878 c 0,9,10
 329 878 329 878 242.5 769 c 128,-1,11
 156 660 156 660 156 479 c 0,0,1
46 430 m 0,12,13
 46 651 46 651 179 792.5 c 128,-1,14
 312 934 312 934 534 934 c 0,15,16
 734 934 734 934 843.5 805.5 c 128,-1,17
 953 677 953 677 953 472 c 0,18,19
 953 400 953 400 935.5 330.5 c 128,-1,20
 918 261 918 261 879.5 196 c 128,-1,21
 841 131 841 131 786 81.5 c 128,-1,22
 731 32 731 32 650.5 2.5 c 128,-1,23
 570 -27 570 -27 475 -27 c 0,24,25
 348 -27 348 -27 249 35.5 c 128,-1,26
 150 98 150 98 98 201.5 c 128,-1,27
 46 305 46 305 46 430 c 0,12,13
EndSplineSet
Colour: ffffff
EndChar

StartChar: oacute
Encoding: 243 243 140
Width: 870
VWidth: 0
Flags: MW
LayerCount: 2
Fore
SplineSet
444 1007 m 1,0,-1
 576 1344 l 1,1,-1
 672 1305 l 1,2,-1
 489 981 l 1,3,-1
 444 1007 l 1,0,-1
134 479 m 0,4,5
 134 277 134 277 234 157 c 128,-1,6
 334 37 334 37 481 37 c 0,7,8
 647 37 647 37 737 147.5 c 128,-1,9
 827 258 827 258 827 430 c 0,10,11
 827 626 827 626 729 752 c 128,-1,12
 631 878 631 878 474 878 c 0,13,14
 307 878 307 878 220.5 769 c 128,-1,15
 134 660 134 660 134 479 c 0,4,5
24 430 m 0,16,17
 24 651 24 651 157 792.5 c 128,-1,18
 290 934 290 934 512 934 c 0,19,20
 712 934 712 934 821.5 805.5 c 128,-1,21
 931 677 931 677 931 472 c 0,22,23
 931 400 931 400 913.5 330.5 c 128,-1,24
 896 261 896 261 857.5 196 c 128,-1,25
 819 131 819 131 764 81.5 c 128,-1,26
 709 32 709 32 628.5 2.5 c 128,-1,27
 548 -27 548 -27 453 -27 c 0,28,29
 326 -27 326 -27 227 35.5 c 128,-1,30
 128 98 128 98 76 201.5 c 128,-1,31
 24 305 24 305 24 430 c 0,16,17
EndSplineSet
Colour: ffffff
EndChar

StartChar: ocircumflex
Encoding: 244 244 141
Width: 870
VWidth: 0
Flags: MW
LayerCount: 2
Fore
SplineSet
291 1037 m 1,0,-1
 458 1218 l 1,1,-1
 512 1231 l 1,2,-1
 691 1045 l 1,3,-1
 659 1008 l 1,4,-1
 478 1143 l 1,5,-1
 469 1143 l 1,6,-1
 312 1007 l 1,7,-1
 291 1037 l 1,0,-1
134 479 m 0,8,9
 134 277 134 277 234 157 c 128,-1,10
 334 37 334 37 481 37 c 0,11,12
 647 37 647 37 737 147.5 c 128,-1,13
 827 258 827 258 827 430 c 0,14,15
 827 626 827 626 729 752 c 128,-1,16
 631 878 631 878 474 878 c 0,17,18
 307 878 307 878 220.5 769 c 128,-1,19
 134 660 134 660 134 479 c 0,8,9
24 430 m 0,20,21
 24 651 24 651 157 792.5 c 128,-1,22
 290 934 290 934 512 934 c 0,23,24
 712 934 712 934 821.5 805.5 c 128,-1,25
 931 677 931 677 931 472 c 0,26,27
 931 400 931 400 913.5 330.5 c 128,-1,28
 896 261 896 261 857.5 196 c 128,-1,29
 819 131 819 131 764 81.5 c 128,-1,30
 709 32 709 32 628.5 2.5 c 128,-1,31
 548 -27 548 -27 453 -27 c 0,32,33
 326 -27 326 -27 227 35.5 c 128,-1,34
 128 98 128 98 76 201.5 c 128,-1,35
 24 305 24 305 24 430 c 0,20,21
EndSplineSet
Colour: ffffff
EndChar

StartChar: odieresis
Encoding: 246 246 142
Width: 870
VWidth: 0
Flags: MW
LayerCount: 2
Fore
SplineSet
563 1089 m 0,0,1
 563 1167 563 1167 617 1167 c 0,2,3
 675 1167 675 1167 675 1089 c 0,4,5
 675 1008 675 1008 618 1008 c 0,6,7
 563 1008 563 1008 563 1089 c 0,0,1
294 1089 m 0,8,9
 294 1167 294 1167 349 1167 c 0,10,11
 407 1167 407 1167 407 1089 c 0,12,13
 407 1048 407 1048 394.5 1028 c 128,-1,14
 382 1008 382 1008 351 1008 c 0,15,16
 294 1008 294 1008 294 1089 c 0,8,9
135 479 m 0,17,18
 135 277 135 277 235 157 c 128,-1,19
 335 37 335 37 482 37 c 0,20,21
 648 37 648 37 738 147.5 c 128,-1,22
 828 258 828 258 828 430 c 0,23,24
 828 626 828 626 730 752 c 128,-1,25
 632 878 632 878 475 878 c 0,26,27
 308 878 308 878 221.5 769 c 128,-1,28
 135 660 135 660 135 479 c 0,17,18
25 430 m 0,29,30
 25 651 25 651 158 792.5 c 128,-1,31
 291 934 291 934 513 934 c 0,32,33
 713 934 713 934 822.5 805.5 c 128,-1,34
 932 677 932 677 932 472 c 0,35,36
 932 400 932 400 914.5 330.5 c 128,-1,37
 897 261 897 261 858.5 196 c 128,-1,38
 820 131 820 131 765 81.5 c 128,-1,39
 710 32 710 32 629.5 2.5 c 128,-1,40
 549 -27 549 -27 454 -27 c 0,41,42
 327 -27 327 -27 228 35.5 c 128,-1,43
 129 98 129 98 77 201.5 c 128,-1,44
 25 305 25 305 25 430 c 0,29,30
EndSplineSet
Colour: ffffff
EndChar

StartChar: ograve
Encoding: 242 242 143
Width: 870
VWidth: 0
Flags: MW
LayerCount: 2
Fore
SplineSet
298 1298 m 1,0,-1
 392 1335 l 1,1,-1
 525 999 l 1,2,-1
 479 972 l 1,3,-1
 298 1298 l 1,0,-1
134 479 m 0,4,5
 134 277 134 277 234 157 c 128,-1,6
 334 37 334 37 481 37 c 0,7,8
 647 37 647 37 737 147.5 c 128,-1,9
 827 258 827 258 827 430 c 0,10,11
 827 626 827 626 729 752 c 128,-1,12
 631 878 631 878 474 878 c 0,13,14
 307 878 307 878 220.5 769 c 128,-1,15
 134 660 134 660 134 479 c 0,4,5
24 430 m 0,16,17
 24 651 24 651 157 792.5 c 128,-1,18
 290 934 290 934 512 934 c 0,19,20
 712 934 712 934 821.5 805.5 c 128,-1,21
 931 677 931 677 931 472 c 0,22,23
 931 400 931 400 913.5 330.5 c 128,-1,24
 896 261 896 261 857.5 196 c 128,-1,25
 819 131 819 131 764 81.5 c 128,-1,26
 709 32 709 32 628.5 2.5 c 128,-1,27
 548 -27 548 -27 453 -27 c 0,28,29
 326 -27 326 -27 227 35.5 c 128,-1,30
 128 98 128 98 76 201.5 c 128,-1,31
 24 305 24 305 24 430 c 0,16,17
EndSplineSet
Colour: ffffff
EndChar

StartChar: one
Encoding: 49 49 144
Width: 617
VWidth: 0
Flags: MW
LayerCount: 2
Fore
SplineSet
15 3 m 1,0,-1
 18 48 l 1,1,-1
 259 85 l 1,2,-1
 259 837 l 1,3,-1
 32 837 l 1,4,-1
 38 881 l 1,5,-1
 346 935 l 1,6,-1
 371 935 l 1,7,-1
 371 82 l 1,8,-1
 613 58 l 1,9,-1
 608 3 l 1,10,-1
 15 3 l 1,0,-1
EndSplineSet
Colour: ffffff
EndChar

StartChar: onehalf
Encoding: 189 189 145
Width: 1303
VWidth: 0
Flags: MW
LayerCount: 2
Fore
SplineSet
727 47 m 1,0,-1
 878 172 l 2,1,2
 1008 280 1008 280 1057 349 c 128,-1,3
 1106 418 1106 418 1106 508 c 0,4,5
 1106 576 1106 576 1069.5 622 c 128,-1,6
 1033 668 1033 668 968 668 c 0,7,8
 872 668 872 668 843 647 c 1,9,-1
 817 497 l 1,10,-1
 775 501 l 1,11,-1
 780 660 l 1,12,13
 807 686 807 686 865 705 c 128,-1,14
 923 724 923 724 996 724 c 0,15,16
 1095 724 1095 724 1156 671.5 c 128,-1,17
 1217 619 1217 619 1217 511 c 0,18,19
 1217 479 1217 479 1208 448.5 c 128,-1,20
 1199 418 1199 418 1188.5 394 c 128,-1,21
 1178 370 1178 370 1149 337 c 128,-1,22
 1120 304 1120 304 1101 283.5 c 128,-1,23
 1082 263 1082 263 1033.5 223 c 128,-1,24
 985 183 985 183 957.5 161.5 c 128,-1,25
 930 140 930 140 864 88 c 1,26,-1
 860 85 l 1,27,-1
 1176 85 l 1,28,-1
 1220 233 l 1,29,-1
 1255 230 l 1,30,-1
 1235 0 l 1,31,-1
 730 0 l 1,32,-1
 727 47 l 1,0,-1
227 -43 m 1,33,-1
 573 588 l 1,34,-1
 889 1212 l 1,35,-1
 986 1207 l 1,36,-1
 983 1203 l 1,37,-1
 652 591 l 1,38,-1
 328 -47 l 1,39,-1
 227 -43 l 1,33,-1
44 570 m 1,40,-1
 45 615 l 1,41,-1
 210 636 l 1,42,-1
 210 1204 l 1,43,-1
 54 1204 l 1,44,-1
 57 1248 l 1,45,-1
 293 1276 l 1,46,-1
 311 1276 l 1,47,-1
 311 634 l 1,48,-1
 470 625 l 1,49,-1
 465 570 l 1,50,-1
 44 570 l 1,40,-1
EndSplineSet
Colour: ffffff
EndChar

StartChar: onequarter
Encoding: 188 188 146
Width: 1221
VWidth: 0
Flags: MW
LayerCount: 2
Fore
SplineSet
718 277 m 1,0,-1
 936 277 l 1,1,-1
 936 557 l 1,2,-1
 718 277 l 1,0,-1
612 231 m 1,3,-1
 995 723 l 1,4,-1
 1039 716 l 1,5,6
 1031 621 1031 621 1031 420 c 2,7,-1
 1031 277 l 1,8,-1
 1179 277 l 1,9,-1
 1170 202 l 1,10,-1
 1031 202 l 1,11,-1
 1031 64 l 1,12,-1
 1148 45 l 1,13,-1
 1142 -1 l 1,14,-1
 768 -1 l 1,15,-1
 774 41 l 1,16,-1
 938 68 l 1,17,-1
 938 205 l 1,18,-1
 621 205 l 1,19,-1
 612 231 l 1,3,-1
227 -43 m 1,20,-1
 573 588 l 1,21,-1
 889 1212 l 1,22,-1
 986 1207 l 1,23,-1
 983 1203 l 1,24,-1
 652 591 l 1,25,-1
 328 -47 l 1,26,-1
 227 -43 l 1,20,-1
44 570 m 1,27,-1
 45 615 l 1,28,-1
 210 636 l 1,29,-1
 210 1204 l 1,30,-1
 54 1204 l 1,31,-1
 57 1248 l 1,32,-1
 293 1276 l 1,33,-1
 311 1276 l 1,34,-1
 311 634 l 1,35,-1
 470 625 l 1,36,-1
 465 570 l 1,37,-1
 44 570 l 1,27,-1
EndSplineSet
Colour: ffffff
EndChar

StartChar: one.superior
Encoding: 185 185 147
Width: 527
VWidth: 0
Flags: MW
LayerCount: 2
Fore
SplineSet
51 566 m 1,0,-1
 52 611 l 1,1,-1
 217 632 l 1,2,-1
 217 1200 l 1,3,-1
 61 1200 l 1,4,-1
 64 1244 l 1,5,-1
 300 1272 l 1,6,-1
 318 1272 l 1,7,-1
 318 630 l 1,8,-1
 477 621 l 1,9,-1
 472 566 l 1,10,-1
 51 566 l 1,0,-1
EndSplineSet
Colour: ffffff
EndChar

StartChar: ordfeminine
Encoding: 170 170 148
Width: 667
VWidth: 0
Flags: MW
LayerCount: 2
Fore
SplineSet
150 734 m 0,0,1
 150 622 150 622 246 622 c 0,2,3
 301 622 301 622 348 653.5 c 128,-1,4
 395 685 395 685 424 735 c 1,5,-1
 424 927 l 1,6,7
 359 918 359 918 313 905 c 128,-1,8
 267 892 267 892 228 870 c 128,-1,9
 189 848 189 848 169.5 814 c 128,-1,10
 150 780 150 780 150 734 c 0,0,1
54 711 m 0,11,12
 54 814 54 814 147.5 885 c 128,-1,13
 241 956 241 956 424 967 c 1,14,-1
 424 994 l 2,15,16
 424 1125 424 1125 392 1180 c 128,-1,17
 360 1235 360 1235 271 1235 c 0,18,19
 245 1235 245 1235 226.5 1226 c 128,-1,20
 208 1217 208 1217 197.5 1205.5 c 128,-1,21
 187 1194 187 1194 179.5 1167.5 c 128,-1,22
 172 1141 172 1141 169.5 1123.5 c 128,-1,23
 167 1106 167 1106 162 1068 c 1,24,25
 133 1068 133 1068 107 1082.5 c 128,-1,26
 81 1097 81 1097 81 1122 c 0,27,28
 81 1186 81 1186 154 1234 c 128,-1,29
 227 1282 227 1282 314 1282 c 0,30,31
 409 1282 409 1282 460.5 1221 c 128,-1,32
 512 1160 512 1160 512 1036 c 2,33,-1
 512 764 l 2,34,35
 512 752 512 752 511 730 c 128,-1,36
 510 708 510 708 510 698 c 128,-1,37
 510 688 510 688 512.5 673.5 c 128,-1,38
 515 659 515 659 521 651.5 c 128,-1,39
 527 644 527 644 538 637.5 c 128,-1,40
 549 631 549 631 566 628 c 2,41,-1
 619 617 l 1,42,-1
 615 583 l 1,43,44
 576 566 576 566 534 566 c 0,45,46
 487 566 487 566 460.5 597 c 128,-1,47
 434 628 434 628 434 674 c 2,48,-1
 434 685 l 1,49,-1
 430 685 l 1,50,51
 414 642 414 642 355 601 c 128,-1,52
 296 560 296 560 220 560 c 0,53,54
 152 560 152 560 103 600.5 c 128,-1,55
 54 641 54 641 54 711 c 0,11,12
EndSplineSet
Colour: ffffff
EndChar

StartChar: ordmasculine
Encoding: 186 186 149
Width: 730
VWidth: 0
Flags: MW
LayerCount: 2
Fore
SplineSet
152 954 m 0,0,1
 152 801 152 801 216 708.5 c 128,-1,2
 280 616 280 616 391 616 c 0,3,4
 477 616 477 616 527.5 694.5 c 128,-1,5
 578 773 578 773 578 900 c 0,6,7
 578 1036 578 1036 516 1129.5 c 128,-1,8
 454 1223 454 1223 348 1223 c 0,9,10
 259 1223 259 1223 205.5 1147.5 c 128,-1,11
 152 1072 152 1072 152 954 c 0,0,1
54 896 m 0,12,13
 54 1072 54 1072 149 1177.5 c 128,-1,14
 244 1283 244 1283 383 1283 c 0,15,16
 510 1283 510 1283 593 1178.5 c 128,-1,17
 676 1074 676 1074 676 929 c 0,18,19
 676 766 676 766 583 662 c 128,-1,20
 490 558 490 558 362 558 c 0,21,22
 231 558 231 558 142.5 650.5 c 128,-1,23
 54 743 54 743 54 896 c 0,12,13
EndSplineSet
Colour: ffffff
EndChar

StartChar: oslash
Encoding: 248 248 150
Width: 968
VWidth: 0
Flags: MW
LayerCount: 2
Fore
SplineSet
46 430 m 0,0,1
 46 651 46 651 179 792.5 c 128,-1,2
 312 934 312 934 534 934 c 0,3,4
 710 934 710 934 820 830 c 1,5,-1
 888 895 l 1,6,-1
 1002 905 l 1,7,-1
 866 777 l 1,8,9
 953 656 953 656 953 472 c 0,10,11
 953 400 953 400 935.5 330.5 c 128,-1,12
 918 261 918 261 879.5 196 c 128,-1,13
 841 131 841 131 786 81.5 c 128,-1,14
 731 32 731 32 650.5 2.5 c 128,-1,15
 570 -27 570 -27 475 -27 c 0,16,17
 293 -27 293 -27 173 97 c 1,18,-1
 100 28 l 1,19,-1
 -12 20 l 1,20,-1
 127 154 l 1,21,22
 46 273 46 273 46 430 c 0,0,1
240 179 m 1,23,24
 288 111 288 111 356.5 74 c 128,-1,25
 425 37 425 37 503 37 c 0,26,27
 669 37 669 37 759 147.5 c 128,-1,28
 849 258 849 258 849 430 c 0,29,30
 849 591 849 591 781 708 c 1,31,-1
 240 179 l 1,23,24
214 220 m 1,32,-1
 752 750 l 1,33,34
 705 811 705 811 639.5 844.5 c 128,-1,35
 574 878 574 878 496 878 c 0,36,37
 329 878 329 878 242.5 769 c 128,-1,38
 156 660 156 660 156 479 c 0,39,40
 156 330 156 330 214 220 c 1,32,-1
EndSplineSet
Colour: ffffff
EndChar

StartChar: otilde
Encoding: 245 245 151
Width: 968
VWidth: 0
Flags: MW
LayerCount: 2
Fore
SplineSet
276 1015 m 1,0,1
 287 1073 287 1073 310 1109 c 128,-1,2
 333 1145 333 1145 361.5 1156.5 c 128,-1,3
 390 1168 390 1168 418.5 1165.5 c 128,-1,4
 447 1163 447 1163 476 1147 c 2,5,-1
 548 1106 l 2,6,7
 568 1095 568 1095 581.5 1089 c 128,-1,8
 595 1083 595 1083 611.5 1078 c 128,-1,9
 628 1073 628 1073 640.5 1076.5 c 128,-1,10
 653 1080 653 1080 666.5 1089 c 128,-1,11
 680 1098 680 1098 691.5 1117.5 c 128,-1,12
 703 1137 703 1137 714 1167 c 1,13,-1
 746 1159 l 1,14,15
 725 1054 725 1054 669.5 1020 c 128,-1,16
 614 986 614 986 546 1027 c 1,17,-1
 474 1067 l 2,18,19
 448 1081 448 1081 435 1087 c 128,-1,20
 422 1093 422 1093 401 1097 c 128,-1,21
 380 1101 380 1101 366.5 1093.5 c 128,-1,22
 353 1086 353 1086 337 1065 c 128,-1,23
 321 1044 321 1044 308 1007 c 1,24,-1
 276 1015 l 1,0,1
156 479 m 0,25,26
 156 277 156 277 256 157 c 128,-1,27
 356 37 356 37 503 37 c 0,28,29
 669 37 669 37 759 147.5 c 128,-1,30
 849 258 849 258 849 430 c 0,31,32
 849 626 849 626 751 752 c 128,-1,33
 653 878 653 878 496 878 c 0,34,35
 329 878 329 878 242.5 769 c 128,-1,36
 156 660 156 660 156 479 c 0,25,26
46 430 m 0,37,38
 46 651 46 651 179 792.5 c 128,-1,39
 312 934 312 934 534 934 c 0,40,41
 734 934 734 934 843.5 805.5 c 128,-1,42
 953 677 953 677 953 472 c 0,43,44
 953 400 953 400 935.5 330.5 c 128,-1,45
 918 261 918 261 879.5 196 c 128,-1,46
 841 131 841 131 786 81.5 c 128,-1,47
 731 32 731 32 650.5 2.5 c 128,-1,48
 570 -27 570 -27 475 -27 c 0,49,50
 348 -27 348 -27 249 35.5 c 128,-1,51
 150 98 150 98 98 201.5 c 128,-1,52
 46 305 46 305 46 430 c 0,37,38
EndSplineSet
Colour: ffffff
EndChar

StartChar: p
Encoding: 112 112 152
Width: 857
VWidth: 0
Flags: MW
LayerCount: 2
Fore
SplineSet
48 0 m 1,0,-1
 53 42 l 1,1,-1
 211 72 l 1,2,-1
 211 841 l 1,3,-1
 49 863 l 1,4,-1
 58 899 l 1,5,6
 76 901 76 901 143 910.5 c 128,-1,7
 210 920 210 920 239.5 923 c 128,-1,8
 269 926 269 926 326.5 930 c 128,-1,9
 384 934 384 934 442 934 c 0,10,11
 548 934 548 934 630 904 c 128,-1,12
 712 874 712 874 764 806 c 128,-1,13
 816 738 816 738 816 638 c 0,14,15
 816 533 816 533 758.5 453 c 128,-1,16
 701 373 701 373 608.5 336 c 128,-1,17
 516 299 516 299 409 307 c 1,18,-1
 400 348 l 1,19,-1
 454 351 l 1,20,21
 581 357 581 357 641.5 431 c 128,-1,22
 702 505 702 505 702 618 c 0,23,24
 702 730 702 730 626 810 c 128,-1,25
 550 890 550 890 411 890 c 1,26,-1
 321 884 l 1,27,-1
 321 66 l 1,28,-1
 555 46 l 1,29,-1
 547 0 l 1,30,-1
 48 0 l 1,0,-1
EndSplineSet
Colour: ffffff
EndChar

StartChar: paragraph
Encoding: 182 182 153
Width: 979
VWidth: 0
Flags: MW
LayerCount: 2
Fore
SplineSet
652 0 m 1,0,-1
 652 914 l 1,1,-1
 905 914 l 1,2,-1
 901 875 l 1,3,-1
 754 854 l 1,4,-1
 754 64 l 1,5,-1
 912 46 l 1,6,-1
 906 0 l 1,7,-1
 652 0 l 1,0,-1
42 590 m 0,8,9
 42 742 42 742 163 828 c 128,-1,10
 284 914 284 914 475 914 c 2,11,-1
 592 914 l 1,12,-1
 592 1 l 1,13,-1
 302 1 l 1,14,-1
 308 44 l 1,15,-1
 494 73 l 1,16,-1
 494 854 l 1,17,18
 458 857 458 857 424 857 c 0,19,20
 294 857 294 857 224.5 797.5 c 128,-1,21
 155 738 155 738 155 617 c 0,22,23
 155 518 155 518 230 455.5 c 128,-1,24
 305 393 305 393 432 393 c 1,25,-1
 417 339 l 1,26,27
 311 339 311 339 228.5 364.5 c 128,-1,28
 146 390 146 390 94 448 c 128,-1,29
 42 506 42 506 42 590 c 0,8,9
EndSplineSet
Colour: ffffff
EndChar

StartChar: parenleft
Encoding: 40 40 154
Width: 461
VWidth: 0
Flags: MW
LayerCount: 2
Fore
SplineSet
428 1213 m 1,0,1
 391 1164 391 1164 368 1130.5 c 128,-1,2
 345 1097 345 1097 305 1021 c 128,-1,3
 265 945 265 945 241 872 c 128,-1,4
 217 799 217 799 198 688 c 128,-1,5
 179 577 179 577 179 456 c 0,6,7
 179 55 179 55 420 -333 c 0,8,9
 424 -339 424 -339 426 -342 c 1,10,-1
 398 -374 l 1,11,12
 371 -350 371 -350 342.5 -319.5 c 128,-1,13
 314 -289 314 -289 260 -211 c 128,-1,14
 206 -133 206 -133 167 -46.5 c 128,-1,15
 128 40 128 40 97 175 c 128,-1,16
 66 310 66 310 66 455 c 0,17,18
 66 563 66 563 82.5 662.5 c 128,-1,19
 99 762 99 762 120.5 833 c 128,-1,20
 142 904 142 904 179.5 974 c 128,-1,21
 217 1044 217 1044 242 1082 c 128,-1,22
 267 1120 267 1120 309.5 1165 c 128,-1,23
 352 1210 352 1210 363.5 1220.5 c 128,-1,24
 375 1231 375 1231 404 1256 c 1,25,-1
 428 1213 l 1,0,1
EndSplineSet
Colour: ffffff
EndChar

StartChar: parenright
Encoding: 41 41 155
Width: 461
VWidth: 0
Flags: MW
LayerCount: 2
Fore
SplineSet
43 1213 m 1,0,-1
 67 1256 l 1,1,2
 96 1231 96 1231 107.5 1220.5 c 128,-1,3
 119 1210 119 1210 161.5 1165 c 128,-1,4
 204 1120 204 1120 229 1082 c 128,-1,5
 254 1044 254 1044 291.5 974 c 128,-1,6
 329 904 329 904 350.5 833 c 128,-1,7
 372 762 372 762 388.5 662.5 c 128,-1,8
 405 563 405 563 405 455 c 0,9,10
 405 310 405 310 374 175 c 128,-1,11
 343 40 343 40 304 -46.5 c 128,-1,12
 265 -133 265 -133 211 -211 c 128,-1,13
 157 -289 157 -289 128.5 -319.5 c 128,-1,14
 100 -350 100 -350 73 -374 c 1,15,-1
 45 -342 l 1,16,17
 147 -177 147 -177 202 -30 c 0,18,19
 292 213 292 213 292 456 c 0,20,21
 292 577 292 577 273 688 c 128,-1,22
 254 799 254 799 230 872 c 128,-1,23
 206 945 206 945 166 1021 c 128,-1,24
 126 1097 126 1097 103 1130.5 c 128,-1,25
 80 1164 80 1164 43 1213 c 1,0,-1
EndSplineSet
Colour: ffffff
EndChar

StartChar: percent
Encoding: 37 37 156
Width: 1090
VWidth: 0
Flags: MW
LayerCount: 2
Fore
SplineSet
704 212 m 0,0,1
 704 137 704 137 739 72 c 128,-1,2
 774 7 774 7 827 7 c 0,3,4
 886 7 886 7 921.5 71 c 128,-1,5
 957 135 957 135 957 215 c 0,6,7
 957 290 957 290 917.5 357.5 c 128,-1,8
 878 425 878 425 824 425 c 0,9,10
 766 425 766 425 735 357.5 c 128,-1,11
 704 290 704 290 704 212 c 0,0,1
611 212 m 0,12,13
 611 314 611 314 672 388.5 c 128,-1,14
 733 463 733 463 824 463 c 0,15,16
 928 463 928 463 988.5 391.5 c 128,-1,17
 1049 320 1049 320 1049 211 c 0,18,19
 1049 112 1049 112 982.5 38 c 128,-1,20
 916 -36 916 -36 827 -36 c 0,21,22
 731 -36 731 -36 671 32.5 c 128,-1,23
 611 101 611 101 611 212 c 0,12,13
160 -33 m 1,24,-1
 506 459 l 1,25,-1
 789 897 l 1,26,-1
 422 897 l 1,27,28
 442 875 442 875 457 805 c 128,-1,29
 472 735 472 735 472 698 c 0,30,31
 472 597 472 597 406 524 c 128,-1,32
 340 451 340 451 251 451 c 0,33,34
 155 451 155 451 96 519 c 128,-1,35
 37 587 37 587 37 700 c 0,36,37
 37 802 37 802 97.5 875.5 c 128,-1,38
 158 949 158 949 249 949 c 0,39,40
 283 949 283 949 292 946 c 1,41,-1
 284 897 l 1,42,43
 264 910 264 910 249 910 c 0,44,45
 191 910 191 910 159 842.5 c 128,-1,46
 127 775 127 775 127 698 c 0,47,48
 127 624 127 624 162.5 560 c 128,-1,49
 198 496 198 496 251 496 c 0,50,51
 310 496 310 496 345.5 559.5 c 128,-1,52
 381 623 381 623 381 700 c 0,53,54
 381 817 381 817 326 933 c 1,55,-1
 822 948 l 1,56,-1
 927 943 l 1,57,-1
 927 941 l 1,58,-1
 585 463 l 1,59,-1
 270 -37 l 1,60,-1
 160 -33 l 1,24,-1
EndSplineSet
Colour: ffffff
EndChar

StartChar: period
Encoding: 46 46 157
Width: 256
VWidth: 0
Flags: MW
LayerCount: 2
Fore
SplineSet
66 70 m 0,0,1
 66 167 66 167 129 167 c 128,-1,2
 192 167 192 167 192 70 c 0,3,4
 192 -33 192 -33 129 -33 c 128,-1,5
 66 -33 66 -33 66 70 c 0,0,1
EndSplineSet
Colour: ffffff
EndChar

StartChar: periodcentered
Encoding: 183 183 158
Width: 251
VWidth: 0
Flags: MW
LayerCount: 2
Fore
SplineSet
63 502 m 0,0,1
 63 599 63 599 126 599 c 128,-1,2
 189 599 189 599 189 502 c 0,3,4
 189 451 189 451 174.5 426 c 128,-1,5
 160 401 160 401 127 401 c 0,6,7
 63 401 63 401 63 502 c 0,0,1
EndSplineSet
Colour: ffffff
EndChar

StartChar: plus
Encoding: 43 43 159
Width: 612
VWidth: 0
Flags: MW
LayerCount: 2
Fore
SplineSet
51 426 m 1,0,-1
 64 495 l 1,1,-1
 272 495 l 1,2,-1
 272 742 l 1,3,-1
 339 730 l 1,4,-1
 341 495 l 1,5,-1
 561 495 l 1,6,-1
 550 426 l 1,7,-1
 341 426 l 1,8,-1
 342 172 l 1,9,-1
 272 187 l 1,10,-1
 272 426 l 1,11,-1
 51 426 l 1,0,-1
EndSplineSet
Colour: ffffff
EndChar

StartChar: plusminus
Encoding: 177 177 160
Width: 727
VWidth: 0
Flags: MW
LayerCount: 2
Fore
SplineSet
52 36 m 1,0,-1
 69 100 l 1,1,-1
 680 100 l 1,2,-1
 663 36 l 1,3,-1
 52 36 l 1,0,-1
47 492 m 1,4,-1
 60 561 l 1,5,-1
 268 561 l 1,6,-1
 268 808 l 1,7,-1
 335 796 l 1,8,-1
 337 561 l 1,9,-1
 557 561 l 1,10,-1
 546 492 l 1,11,-1
 337 492 l 1,12,-1
 338 238 l 1,13,-1
 268 253 l 1,14,-1
 268 492 l 1,15,-1
 47 492 l 1,4,-1
EndSplineSet
Colour: ffffff
EndChar

StartChar: q
Encoding: 113 113 161
Width: 990
VWidth: 0
Flags: MW
LayerCount: 2
Fore
SplineSet
140 495 m 0,0,1
 140 295 140 295 255.5 162.5 c 128,-1,2
 371 30 371 30 540 23 c 1,3,4
 667 55 667 55 757.5 162 c 128,-1,5
 848 269 848 269 848 425 c 0,6,7
 848 632 848 632 746.5 755 c 128,-1,8
 645 878 645 878 474 878 c 0,9,10
 336 878 336 878 238 776 c 128,-1,11
 140 674 140 674 140 495 c 0,0,1
36 450 m 0,12,13
 36 654 36 654 176 794 c 128,-1,14
 316 934 316 934 519 934 c 0,15,16
 651 934 651 934 749.5 871 c 128,-1,17
 848 808 848 808 897.5 706 c 128,-1,18
 947 604 947 604 947 479 c 0,19,20
 947 290 947 290 842.5 161 c 128,-1,21
 738 32 738 32 573 -12 c 1,22,23
 624 -147 624 -147 703.5 -198.5 c 128,-1,24
 783 -250 783 -250 925 -249 c 1,25,26
 924 -252 924 -252 921 -271.5 c 128,-1,27
 918 -291 918 -291 916 -294 c 1,28,29
 848 -325 848 -325 782 -325 c 0,30,31
 667 -325 667 -325 592.5 -238.5 c 128,-1,32
 518 -152 518 -152 523 -22 c 1,33,34
 387 -38 387 -38 275 19 c 128,-1,35
 163 76 163 76 99.5 190 c 128,-1,36
 36 304 36 304 36 450 c 0,12,13
EndSplineSet
Colour: ffffff
EndChar

StartChar: question
Encoding: 63 63 162
Width: 606
VWidth: 0
Flags: MW
LayerCount: 2
Fore
SplineSet
235 66 m 0,0,1
 235 107 235 107 251 133 c 128,-1,2
 267 159 267 159 292 159 c 0,3,4
 319 159 319 159 335 133 c 128,-1,5
 351 107 351 107 351 66 c 0,6,7
 351 -33 351 -33 292 -33 c 0,8,9
 235 -33 235 -33 235 66 c 0,0,1
44 1166 m 0,10,11
 44 1212 44 1212 108.5 1249 c 128,-1,12
 173 1286 173 1286 243 1286 c 0,13,14
 373 1286 373 1286 466 1174.5 c 128,-1,15
 559 1063 559 1063 559 925 c 0,16,17
 559 879 559 879 542 840 c 128,-1,18
 525 801 525 801 497.5 773.5 c 128,-1,19
 470 746 470 746 437 721 c 128,-1,20
 404 696 404 696 371 673.5 c 128,-1,21
 338 651 338 651 310.5 628 c 128,-1,22
 283 605 283 605 266 574 c 128,-1,23
 249 543 249 543 249 508 c 0,24,25
 249 443 249 443 295 358 c 1,26,-1
 256 342 l 1,27,28
 220 377 220 377 195 431.5 c 128,-1,29
 170 486 170 486 170 544 c 0,30,31
 170 604 170 604 202 653.5 c 128,-1,32
 234 703 234 703 280 737 c 128,-1,33
 326 771 326 771 371.5 801.5 c 128,-1,34
 417 832 417 832 449 868.5 c 128,-1,35
 481 905 481 905 481 946 c 0,36,37
 481 1041 481 1041 427 1111.5 c 128,-1,38
 373 1182 373 1182 279 1182 c 0,39,40
 223 1182 223 1182 172.5 1161 c 128,-1,41
 122 1140 122 1140 89 1105 c 1,42,43
 44 1128 44 1128 44 1166 c 0,10,11
EndSplineSet
Colour: ffffff
EndChar

StartChar: questiondown
Encoding: 191 191 163
Width: 605
VWidth: 0
Flags: MW
LayerCount: 2
Fore
SplineSet
381 833 m 0,0,1
 381 792 381 792 365 766 c 128,-1,2
 349 740 349 740 324 740 c 0,3,4
 297 740 297 740 281 766 c 128,-1,5
 265 792 265 792 265 833 c 0,6,7
 265 932 265 932 324 932 c 0,8,9
 381 932 381 932 381 833 c 0,0,1
572 -267 m 0,10,11
 572 -313 572 -313 507.5 -350 c 128,-1,12
 443 -387 443 -387 373 -387 c 0,13,14
 243 -387 243 -387 150 -275.5 c 128,-1,15
 57 -164 57 -164 57 -26 c 0,16,17
 57 20 57 20 74 59 c 128,-1,18
 91 98 91 98 118.5 125.5 c 128,-1,19
 146 153 146 153 179 178 c 128,-1,20
 212 203 212 203 245 225.5 c 128,-1,21
 278 248 278 248 305.5 271 c 128,-1,22
 333 294 333 294 350 325 c 128,-1,23
 367 356 367 356 367 391 c 0,24,25
 367 456 367 456 321 541 c 1,26,-1
 360 557 l 1,27,28
 396 522 396 522 421 467.5 c 128,-1,29
 446 413 446 413 446 355 c 0,30,31
 446 295 446 295 414 245.5 c 128,-1,32
 382 196 382 196 336 162 c 128,-1,33
 290 128 290 128 244.5 97.5 c 128,-1,34
 199 67 199 67 167 30.5 c 128,-1,35
 135 -6 135 -6 135 -47 c 0,36,37
 135 -142 135 -142 189 -212.5 c 128,-1,38
 243 -283 243 -283 337 -283 c 0,39,40
 393 -283 393 -283 443.5 -262 c 128,-1,41
 494 -241 494 -241 527 -206 c 1,42,43
 572 -229 572 -229 572 -267 c 0,10,11
EndSplineSet
Colour: ffffff
EndChar

StartChar: quotedbl
Encoding: 34 34 164
Width: 396
VWidth: 0
Flags: MW
LayerCount: 2
Fore
SplineSet
226 1302 m 1,0,-1
 336 1296 l 1,1,-1
 300 895 l 1,2,-1
 247 891 l 1,3,-1
 226 1302 l 1,0,-1
61 1302 m 1,4,-1
 170 1296 l 1,5,-1
 134 895 l 1,6,-1
 82 891 l 1,7,-1
 61 1302 l 1,4,-1
EndSplineSet
Colour: ffffff
EndChar

StartChar: quotedblleft
Encoding: 8220 8220 165
Width: 698
VWidth: 0
Flags: MW
LayerCount: 2
Fore
SplineSet
691 1211 m 1,0,1
 590 1171 590 1171 551.5 1121.5 c 128,-1,2
 513 1072 513 1072 513 1005 c 0,3,4
 513 941 513 941 544.5 902 c 128,-1,5
 576 863 576 863 622 863 c 0,6,7
 640 863 640 863 649 867 c 1,8,9
 652 858 652 858 652 848 c 0,10,11
 652 807 652 807 625.5 782 c 128,-1,12
 599 757 599 757 556 757 c 0,13,14
 496 757 496 757 454.5 812 c 128,-1,15
 413 867 413 867 413 966 c 0,16,17
 413 1004 413 1004 426 1042 c 128,-1,18
 439 1080 439 1080 467 1120.5 c 128,-1,19
 495 1161 495 1161 549.5 1196.5 c 128,-1,20
 604 1232 604 1232 679 1256 c 1,21,-1
 691 1211 l 1,0,1
377 1211 m 1,22,23
 276 1171 276 1171 237.5 1121.5 c 128,-1,24
 199 1072 199 1072 199 1005 c 0,25,26
 199 941 199 941 230.5 902 c 128,-1,27
 262 863 262 863 308 863 c 0,28,29
 326 863 326 863 335 867 c 1,30,31
 338 858 338 858 338 848 c 0,32,33
 338 807 338 807 311.5 782 c 128,-1,34
 285 757 285 757 242 757 c 0,35,36
 182 757 182 757 140.5 812 c 128,-1,37
 99 867 99 867 99 966 c 0,38,39
 99 1004 99 1004 112 1042 c 128,-1,40
 125 1080 125 1080 153 1120.5 c 128,-1,41
 181 1161 181 1161 235.5 1196.5 c 128,-1,42
 290 1232 290 1232 365 1256 c 1,43,-1
 377 1211 l 1,22,23
EndSplineSet
Colour: ffffff
EndChar

StartChar: quotedblright
Encoding: 8221 8221 166
Width: 700
VWidth: 0
Flags: MW
LayerCount: 2
Fore
SplineSet
8 833 m 1,0,1
 109 873 109 873 147.5 922.5 c 128,-1,2
 186 972 186 972 186 1039 c 0,3,4
 186 1103 186 1103 154.5 1142 c 128,-1,5
 123 1181 123 1181 77 1181 c 0,6,7
 59 1181 59 1181 50 1177 c 1,8,9
 47 1186 47 1186 47 1196 c 0,10,11
 47 1237 47 1237 73.5 1262 c 128,-1,12
 100 1287 100 1287 143 1287 c 0,13,14
 203 1287 203 1287 244.5 1232 c 128,-1,15
 286 1177 286 1177 286 1078 c 0,16,17
 286 1040 286 1040 273 1002 c 128,-1,18
 260 964 260 964 232 923.5 c 128,-1,19
 204 883 204 883 149.5 847.5 c 128,-1,20
 95 812 95 812 20 788 c 1,21,-1
 8 833 l 1,0,1
325 833 m 1,22,23
 426 873 426 873 464.5 922.5 c 128,-1,24
 503 972 503 972 503 1039 c 0,25,26
 503 1103 503 1103 471.5 1142 c 128,-1,27
 440 1181 440 1181 394 1181 c 0,28,29
 376 1181 376 1181 367 1177 c 1,30,31
 364 1186 364 1186 364 1196 c 0,32,33
 364 1237 364 1237 390.5 1262 c 128,-1,34
 417 1287 417 1287 460 1287 c 0,35,36
 520 1287 520 1287 561.5 1232 c 128,-1,37
 603 1177 603 1177 603 1078 c 0,38,39
 603 1040 603 1040 590 1002 c 128,-1,40
 577 964 577 964 549 923.5 c 128,-1,41
 521 883 521 883 466.5 847.5 c 128,-1,42
 412 812 412 812 337 788 c 1,43,-1
 325 833 l 1,22,23
EndSplineSet
Colour: ffffff
EndChar

StartChar: quoteleft
Encoding: 8216 8216 167
Width: 384
VWidth: 0
Flags: MW
LayerCount: 2
Fore
SplineSet
377 1208 m 1,0,1
 276 1168 276 1168 237.5 1118.5 c 128,-1,2
 199 1069 199 1069 199 1002 c 0,3,4
 199 938 199 938 230.5 899 c 128,-1,5
 262 860 262 860 308 860 c 0,6,7
 326 860 326 860 335 864 c 1,8,9
 338 855 338 855 338 845 c 0,10,11
 338 804 338 804 311.5 779 c 128,-1,12
 285 754 285 754 242 754 c 0,13,14
 182 754 182 754 140.5 809 c 128,-1,15
 99 864 99 864 99 963 c 0,16,17
 99 1001 99 1001 112 1039 c 128,-1,18
 125 1077 125 1077 153 1117.5 c 128,-1,19
 181 1158 181 1158 235.5 1193.5 c 128,-1,20
 290 1229 290 1229 365 1253 c 1,21,-1
 377 1208 l 1,0,1
EndSplineSet
Colour: ffffff
EndChar

StartChar: quoteright
Encoding: 8217 8217 168
Width: 383
VWidth: 0
Flags: MW
LayerCount: 2
Fore
SplineSet
8 827 m 1,0,1
 109 867 109 867 147.5 916.5 c 128,-1,2
 186 966 186 966 186 1033 c 0,3,4
 186 1097 186 1097 154.5 1136 c 128,-1,5
 123 1175 123 1175 77 1175 c 0,6,7
 59 1175 59 1175 50 1171 c 1,8,9
 47 1180 47 1180 47 1190 c 0,10,11
 47 1231 47 1231 73.5 1256 c 128,-1,12
 100 1281 100 1281 143 1281 c 0,13,14
 203 1281 203 1281 244.5 1226 c 128,-1,15
 286 1171 286 1171 286 1072 c 0,16,17
 286 1034 286 1034 273 996 c 128,-1,18
 260 958 260 958 232 917.5 c 128,-1,19
 204 877 204 877 149.5 841.5 c 128,-1,20
 95 806 95 806 20 782 c 1,21,-1
 8 827 l 1,0,1
EndSplineSet
Colour: ffffff
EndChar

StartChar: quotesinglbase
Encoding: 8218 8218 169
Width: 394
VWidth: 0
Flags: MW
LayerCount: 2
Fore
SplineSet
10 -236 m 1,0,1
 111 -196 111 -196 149.5 -146.5 c 128,-1,2
 188 -97 188 -97 188 -30 c 0,3,4
 188 34 188 34 156.5 73 c 128,-1,5
 125 112 125 112 79 112 c 0,6,7
 61 112 61 112 52 108 c 1,8,9
 49 117 49 117 49 127 c 0,10,11
 49 168 49 168 75.5 193 c 128,-1,12
 102 218 102 218 145 218 c 0,13,14
 205 218 205 218 246.5 163 c 128,-1,15
 288 108 288 108 288 9 c 0,16,17
 288 -29 288 -29 275 -67 c 128,-1,18
 262 -105 262 -105 234 -145.5 c 128,-1,19
 206 -186 206 -186 151.5 -221.5 c 128,-1,20
 97 -257 97 -257 22 -281 c 1,21,-1
 10 -236 l 1,0,1
EndSplineSet
Colour: ffffff
EndChar

StartChar: quotesingle
Encoding: 39 39 170
Width: 230
VWidth: 0
Flags: MW
LayerCount: 2
Fore
SplineSet
61 1302 m 1,0,-1
 170 1296 l 1,1,-1
 134 895 l 1,2,-1
 82 891 l 1,3,-1
 61 1302 l 1,0,-1
EndSplineSet
Colour: ffffff
EndChar

StartChar: r
Encoding: 114 114 171
Width: 994
VWidth: 0
Flags: MW
LayerCount: 2
Back
SplineSet
96.4775 -0.694336 m 5,0,-1
 100.642 25.6807 l 1,1,-1
 234.6 48.5859 l 1,2,-1
 234.6 672.565 l 1,3,-1
 100.642 697.553 l 1,4,-1
 103.417 721.15 l 1,5,-1
 302.619 738.503 l 1,6,-1
 310.254 730.868 l 1,7,-1
 303.313 508.762 l 1,8,-1
 310.254 508.762 l 1,9,10
 328.189 618.478 328.189 618.478 387.137 686.819 c 0
 446.086 755.16 446.086 755.16 526.809 755.16 c 0,11,12
 564.728 755.16 564.728 755.16 593.66 734.296 c 0
 622.591 713.432 622.591 713.432 622.591 678.812 c 0,13,14
 622.591 657.98 622.591 657.98 613.166 643.346 c 0
 603.74 628.711 603.74 628.711 582.335 614.263 c 1,15,16
 545.787 682.282 545.787 682.282 485.857 682.282 c 0,17,18
 446.416 682.282 446.416 682.282 415.078 652.274 c 0
 383.739 622.265 383.739 622.265 364.322 571.284 c 0
 344.904 520.302 344.904 520.302 333.414 469.687 c 0
 321.924 419.072 321.924 419.072 315.113 361.617 c 1,19,-1
 315.113 47.1982 l 1,20,-1
 510.844 30.54 l 1,21,-1
 504.599 -0.694336 l 1,22,-1
 96.4775 -0.694336 l 5,0,-1
318.583 0 m 4
EndSplineSet
Fore
SplineSet
284 438 m 1,0,-1
 526 438 l 1,1,2
 593 459 593 459 629 521 c 128,-1,3
 665 583 665 583 665 662 c 0,4,5
 665 772 665 772 596 830 c 128,-1,6
 527 888 527 888 405 888 c 1,7,-1
 284 883 l 1,8,-1
 284 438 l 1,0,-1
48 0 m 1,9,-1
 55 42 l 1,10,-1
 181 72 l 1,11,-1
 181 844 l 1,12,-1
 51 865 l 1,13,-1
 60 901 l 1,14,15
 313 934 313 934 455 934 c 0,16,17
 592 934 592 934 682 870 c 128,-1,18
 772 806 772 806 772 689 c 0,19,20
 772 607 772 607 731.5 542.5 c 128,-1,21
 691 478 691 478 593 421 c 1,22,-1
 593 420 l 1,23,-1
 655 323 l 1,24,25
 740 180 740 180 803 119.5 c 128,-1,26
 866 59 866 59 923 42 c 2,27,-1
 951 34 l 1,28,-1
 945 -3 l 1,29,30
 907 -18 907 -18 862 -18 c 0,31,32
 784 -18 784 -18 719.5 47.5 c 128,-1,33
 655 113 655 113 595 238 c 1,34,-1
 520 382 l 1,35,-1
 284 382 l 1,36,-1
 284 65 l 1,37,-1
 465 46 l 1,38,-1
 455 0 l 1,39,-1
 48 0 l 1,9,-1
EndSplineSet
Colour: ffffff
EndChar

StartChar: registered
Encoding: 174 174 172
Width: 1056
VWidth: 0
Flags: MW
LayerCount: 2
Fore
SplineSet
429 1055 m 1,0,-1
 531 1055 l 1,1,2
 629 1117 629 1117 629 1191 c 0,3,4
 629 1250 629 1250 593 1274.5 c 128,-1,5
 557 1299 557 1299 483 1299 c 1,6,-1
 429 1297 l 1,7,-1
 429 1055 l 1,0,-1
289 771 m 1,8,-1
 292 802 l 1,9,-1
 363 815 l 1,10,-1
 363 1284 l 1,11,-1
 291 1293 l 1,12,-1
 295 1316 l 1,13,14
 411 1335 411 1335 506 1335 c 0,15,16
 585 1335 585 1335 642 1300 c 128,-1,17
 699 1265 699 1265 699 1203 c 0,18,19
 699 1107 699 1107 562 1040 c 1,20,-1
 562 1039 l 1,21,-1
 651 916 l 2,22,23
 683 872 683 872 704.5 848.5 c 128,-1,24
 726 825 726 825 737 818 c 128,-1,25
 748 811 748 811 766 804 c 2,26,-1
 788 796 l 1,27,-1
 785 770 l 1,28,29
 766 763 766 763 743 763 c 0,30,31
 702 763 702 763 668 788.5 c 128,-1,32
 634 814 634 814 597 880 c 2,33,-1
 518 1020 l 1,34,-1
 429 1020 l 1,35,-1
 429 812 l 1,36,-1
 524 804 l 1,37,-1
 519 771 l 1,38,-1
 289 771 l 1,8,-1
103 1036 m 0,39,40
 103 840 103 840 217 716 c 128,-1,41
 331 592 331 592 517 592 c 0,42,43
 635 592 635 592 733 642 c 128,-1,44
 831 692 831 692 891 790 c 128,-1,45
 951 888 951 888 951 1016 c 0,46,47
 951 1224 951 1224 830.5 1346 c 128,-1,48
 710 1468 710 1468 519 1472 c 0,49,50
 434 1474 434 1474 360 1447.5 c 128,-1,51
 286 1421 286 1421 228 1368.5 c 128,-1,52
 170 1316 170 1316 136.5 1230.5 c 128,-1,53
 103 1145 103 1145 103 1036 c 0,39,40
48 1022 m 0,54,55
 48 1248 48 1248 183 1383 c 128,-1,56
 318 1518 318 1518 519 1518 c 0,57,58
 658 1518 658 1518 768 1460.5 c 128,-1,59
 878 1403 878 1403 943 1290 c 128,-1,60
 1008 1177 1008 1177 1008 1026 c 0,61,62
 1008 882 1008 882 938.5 770.5 c 128,-1,63
 869 659 869 659 756 601.5 c 128,-1,64
 643 544 643 544 509 544 c 0,65,66
 414 544 414 544 329.5 579 c 128,-1,67
 245 614 245 614 183 675.5 c 128,-1,68
 121 737 121 737 84.5 827 c 128,-1,69
 48 917 48 917 48 1022 c 0,54,55
EndSplineSet
Colour: ffffff
EndChar

StartChar: ring
Encoding: 730 730 173
Width: 485
VWidth: 0
Flags: MW
LayerCount: 2
Fore
SplineSet
145 1540 m 0,0,1
 145 1487 145 1487 171.5 1445.5 c 128,-1,2
 198 1404 198 1404 246 1404 c 0,3,4
 290 1404 290 1404 315 1435 c 128,-1,5
 340 1466 340 1466 340 1523 c 0,6,7
 340 1576 340 1576 311.5 1618 c 128,-1,8
 283 1660 283 1660 236 1660 c 0,9,10
 191 1660 191 1660 168 1625 c 128,-1,11
 145 1590 145 1590 145 1540 c 0,0,1
80 1529 m 0,12,13
 80 1599 80 1599 129 1649.5 c 128,-1,14
 178 1700 178 1700 248 1700 c 0,15,16
 320 1700 320 1700 363 1654.5 c 128,-1,17
 406 1609 406 1609 406 1538 c 128,-1,18
 406 1467 406 1467 358 1415 c 128,-1,19
 310 1363 310 1363 236 1363 c 0,20,21
 166 1363 166 1363 123 1408 c 128,-1,22
 80 1453 80 1453 80 1529 c 0,12,13
EndSplineSet
Colour: ffffff
EndChar

StartChar: s
Encoding: 115 115 174
Width: 666
VWidth: 0
Flags: MW
LayerCount: 2
Back
SplineSet
51 152 m 4,0,1
 51 233 51 233 130 256 c 1,2,3
 147 123 147 123 196 69 c 0
 245 15 245 15 347 15 c 0,4,5
 419 15 419 15 466 58 c 0
 513 101 513 101 513 154 c 0,6,7
 513 207 513 207 469.5 255.5 c 0
 426 304 426 304 364 344 c 0
 302 384 302 384 239.5 425.5 c 0
 177 467 177 467 133.5 524.5 c 0
 90 582 90 582 90 649 c 0,8,9
 90 746 90 746 154 811.5 c 0
 218 877 218 877 344 877 c 0,10,11
 442 877 442 877 506.5 820.5 c 0
 571 764 571 764 571 692 c 0,12,13
 571 612 571 612 501 605 c 1,14,-1
 492 640 l 1,15,16
 464.204 735.583 464.204 735.583 425.733 782.654 c 0
 387.261 829.725 387.261 829.725 313.612 829.725 c 0,17,18
 248.348 829.725 248.348 829.725 208.174 793.291 c 0
 168 756.856 168 756.856 168 702 c 0,19,20
 168 644 168 644 213 591 c 0
 258 538 258 538 322 496 c 0
 386 454 386 454 449.5 412 c 0
 513 370 513 370 558 316 c 0
 603 262 603 262 603 203 c 0,21,22
 603 96 603 96 518.5 30 c 0
 434 -36 434 -36 314 -36 c 0,23,24
 204 -36 204 -36 127.5 15.5 c 0
 51 67 51 67 51 152 c 4,0,1
EndSplineSet
Fore
SplineSet
44 56 m 1,0,-1
 72 291 l 1,1,-1
 126 283 l 1,2,-1
 140 113 l 1,3,4
 162 77 162 77 216 56 c 128,-1,5
 270 35 270 35 332 35 c 0,6,7
 411 35 411 35 466 73.5 c 128,-1,8
 521 112 521 112 521 180 c 0,9,10
 521 223 521 223 496 261.5 c 128,-1,11
 471 300 471 300 431.5 329.5 c 128,-1,12
 392 359 392 359 344 387.5 c 128,-1,13
 296 416 296 416 248 447.5 c 128,-1,14
 200 479 200 479 160.5 513 c 128,-1,15
 121 547 121 547 96 594.5 c 128,-1,16
 71 642 71 642 71 697 c 0,17,18
 71 804 71 804 153.5 869 c 128,-1,19
 236 934 236 934 341 934 c 0,20,21
 406 934 406 934 466.5 916 c 128,-1,22
 527 898 527 898 564 864 c 1,23,-1
 547 634 l 1,24,-1
 491 641 l 1,25,-1
 475 804 l 1,26,27
 455 837 455 837 408.5 858.5 c 128,-1,28
 362 880 362 880 315 880 c 0,29,30
 243 880 243 880 204.5 844 c 128,-1,31
 166 808 166 808 166 744 c 0,32,33
 166 702 166 702 191.5 662.5 c 128,-1,34
 217 623 217 623 257.5 591.5 c 128,-1,35
 298 560 298 560 347.5 529.5 c 128,-1,36
 397 499 397 499 446.5 466.5 c 128,-1,37
 496 434 496 434 536.5 399.5 c 128,-1,38
 577 365 577 365 602.5 320.5 c 128,-1,39
 628 276 628 276 628 226 c 0,40,41
 628 116 628 116 536 45 c 128,-1,42
 444 -26 444 -26 290 -26 c 0,43,44
 213 -26 213 -26 147.5 -3 c 128,-1,45
 82 20 82 20 44 56 c 1,0,-1
EndSplineSet
Colour: ffffff
EndChar

StartChar: section
Encoding: 167 167 175
Width: 822
VWidth: 0
Flags: MW
LayerCount: 2
Fore
SplineSet
90 959 m 0,0,1
 90 1100 90 1100 191.5 1185.5 c 128,-1,2
 293 1271 293 1271 422 1271 c 0,3,4
 508 1271 508 1271 587 1243 c 128,-1,5
 666 1215 666 1215 714 1161 c 1,6,-1
 681 851 l 1,7,-1
 635 858 l 1,8,-1
 608 1101 l 1,9,10
 581 1150 581 1150 520 1182 c 128,-1,11
 459 1214 459 1214 396 1214 c 0,12,13
 309 1214 309 1214 248.5 1157.5 c 128,-1,14
 188 1101 188 1101 188 1006 c 0,15,16
 188 943 188 943 219 887.5 c 128,-1,17
 250 832 250 832 299.5 790 c 128,-1,18
 349 748 349 748 409.5 707.5 c 128,-1,19
 470 667 470 667 531 627.5 c 128,-1,20
 592 588 592 588 644 546.5 c 128,-1,21
 696 505 696 505 731.5 450.5 c 128,-1,22
 767 396 767 396 772 335 c 1,23,-1
 423 564 l 2,24,25
 413 571 413 571 392 584 c 0,26,27
 350 611 350 611 328 625.5 c 128,-1,28
 306 640 306 640 268.5 668 c 128,-1,29
 231 696 231 696 210.5 715.5 c 128,-1,30
 190 735 190 735 163.5 765 c 128,-1,31
 137 795 137 795 123.5 822.5 c 128,-1,32
 110 850 110 850 100 885.5 c 128,-1,33
 90 921 90 921 90 959 c 0,0,1
43 -239 m 1,34,-1
 72 46 l 1,35,-1
 119 42 l 1,36,-1
 147 -179 l 1,37,38
 180 -242 180 -242 258 -279.5 c 128,-1,39
 336 -317 336 -317 424 -317 c 0,40,41
 524 -317 524 -317 594 -257.5 c 128,-1,42
 664 -198 664 -198 664 -92 c 0,43,44
 664 -35 664 -35 634.5 16 c 128,-1,45
 605 67 605 67 557 107 c 128,-1,46
 509 147 509 147 451 185.5 c 128,-1,47
 393 224 393 224 333.5 263 c 128,-1,48
 274 302 274 302 224 342.5 c 128,-1,49
 174 383 174 383 139.5 435.5 c 128,-1,50
 105 488 105 488 99 547 c 1,51,-1
 437 333 l 1,52,53
 586 241 586 241 640 196 c 0,54,55
 773 84 773 84 773 -46 c 0,56,57
 773 -191 773 -191 664 -284.5 c 128,-1,58
 555 -378 555 -378 372 -378 c 0,59,60
 268 -378 268 -378 180.5 -339.5 c 128,-1,61
 93 -301 93 -301 43 -239 c 1,34,-1
EndSplineSet
Colour: ffffff
EndChar

StartChar: semicolon
Encoding: 59 59 176
Width: 363
VWidth: 0
Flags: MW
LayerCount: 2
Fore
SplineSet
10 -222 m 1,0,1
 104 -185 104 -185 140 -139 c 128,-1,2
 176 -93 176 -93 176 -31 c 0,3,4
 176 28 176 28 146.5 64.5 c 128,-1,5
 117 101 117 101 74 101 c 0,6,7
 57 101 57 101 49 97 c 1,8,9
 46 105 46 105 46 115 c 0,10,11
 46 153 46 153 71 176.5 c 128,-1,12
 96 200 96 200 136 200 c 0,13,14
 192 200 192 200 230.5 148.5 c 128,-1,15
 269 97 269 97 269 5 c 0,16,17
 269 -31 269 -31 257 -66 c 128,-1,18
 245 -101 245 -101 218.5 -138.5 c 128,-1,19
 192 -176 192 -176 141.5 -209 c 128,-1,20
 91 -242 91 -242 21 -264 c 1,21,-1
 10 -222 l 1,0,1
13 723 m 0,22,23
 13 816 13 816 73.5 816 c 128,-1,24
 134 816 134 816 134 723 c 0,25,26
 134 674 134 674 120 649 c 128,-1,27
 106 624 106 624 74 624 c 0,28,29
 13 624 13 624 13 723 c 0,22,23
EndSplineSet
Colour: ffffff
EndChar

StartChar: seven
Encoding: 55 55 177
Width: 769
VWidth: 0
Flags: MW
LayerCount: 2
Fore
SplineSet
50 587 m 1,0,-1
 63 921 l 1,1,-1
 722 921 l 1,2,-1
 722 867 l 1,3,4
 552 564 552 564 491 429 c 0,5,6
 345 111 345 111 329 -180 c 0,7,8
 326 -240 326 -240 327 -302 c 1,9,10
 319 -304 319 -304 313 -304 c 0,11,12
 196 -304 196 -304 196 -181 c 0,13,14
 196 -95 196 -95 248.5 56 c 128,-1,15
 301 207 301 207 376.5 359.5 c 128,-1,16
 452 512 452 512 519 635 c 128,-1,17
 586 758 586 758 630 825 c 1,18,-1
 137 825 l 1,19,-1
 104 579 l 1,20,-1
 50 587 l 1,0,-1
EndSplineSet
Colour: ffffff
EndChar

StartChar: six
Encoding: 54 54 178
Width: 775
VWidth: 0
Flags: MW
LayerCount: 2
Fore
SplineSet
177 408 m 0,0,1
 177 232 177 232 243.5 134 c 128,-1,2
 310 36 310 36 408 36 c 0,3,4
 475 36 475 36 521 79 c 128,-1,5
 567 122 567 122 586 185.5 c 128,-1,6
 605 249 605 249 605 327 c 0,7,8
 605 463 605 463 546 543 c 128,-1,9
 487 623 487 623 371 623 c 0,10,11
 319 623 319 623 270.5 602.5 c 128,-1,12
 222 582 222 582 191 553 c 1,13,14
 177 481 177 481 177 408 c 0,0,1
56 422 m 0,15,16
 56 535 56 535 94.5 654.5 c 128,-1,17
 133 774 133 774 202 882 c 128,-1,18
 271 990 271 990 376.5 1077 c 128,-1,19
 482 1164 482 1164 606 1206 c 1,20,-1
 627 1162 l 1,21,22
 529 1122 529 1122 450.5 1058 c 128,-1,23
 372 994 372 994 322 917.5 c 128,-1,24
 272 841 272 841 241.5 765.5 c 128,-1,25
 211 690 211 690 195 609 c 1,26,-1
 203 609 l 1,27,28
 322 700 322 700 446 700 c 0,29,30
 576 700 576 700 649.5 599 c 128,-1,31
 723 498 723 498 723 353 c 0,32,33
 723 204 723 204 622.5 91 c 128,-1,34
 522 -22 522 -22 383 -22 c 0,35,36
 309 -22 309 -22 251.5 2 c 128,-1,37
 194 26 194 26 157.5 66.5 c 128,-1,38
 121 107 121 107 98 165.5 c 128,-1,39
 75 224 75 224 65.5 286 c 128,-1,40
 56 348 56 348 56 422 c 0,15,16
EndSplineSet
Colour: ffffff
EndChar

StartChar: slash
Encoding: 47 47 179
Width: 626
VWidth: 0
Flags: MW
LayerCount: 2
Fore
SplineSet
40 -358 m 1,0,-1
 502 1241 l 1,1,-1
 584 1244 l 1,2,-1
 119 -354 l 1,3,-1
 40 -358 l 1,0,-1
EndSplineSet
Colour: ffffff
EndChar

StartChar: softhyphen
Encoding: 173 173 180
Width: 538
VWidth: 0
Flags: MW
LayerCount: 2
Fore
SplineSet
62 435 m 1,0,-1
 70 497 l 1,1,-1
 479 558 l 1,2,-1
 469 495 l 1,3,-1
 62 435 l 1,0,-1
EndSplineSet
Colour: ffffff
EndChar

StartChar: sterling
Encoding: 163 163 182
Width: 917
VWidth: 0
Flags: MW
LayerCount: 2
Fore
SplineSet
32 0 m 1,0,-1
 38 42 l 1,1,-1
 206 72 l 1,2,3
 246 157 246 157 246 296 c 2,4,-1
 246 408 l 1,5,-1
 69 399 l 1,6,-1
 80 459 l 1,7,-1
 250 468 l 1,8,-1
 253 589 l 2,9,10
 254 638 254 638 264 684 c 128,-1,11
 274 730 274 730 297.5 776.5 c 128,-1,12
 321 823 321 823 356 857 c 128,-1,13
 391 891 391 891 446.5 912.5 c 128,-1,14
 502 934 502 934 572 934 c 0,15,16
 658 934 658 934 719.5 889.5 c 128,-1,17
 781 845 781 845 781 780 c 0,18,19
 781 745 781 745 760 721 c 128,-1,20
 739 697 739 697 706 691 c 1,21,22
 663 881 663 881 534 881 c 0,23,24
 488 881 488 881 457 867 c 128,-1,25
 426 853 426 853 407.5 829 c 128,-1,26
 389 805 389 805 379.5 759 c 128,-1,27
 370 713 370 713 367 664.5 c 128,-1,28
 364 616 364 616 364 538 c 2,29,-1
 364 476 l 1,30,-1
 621 490 l 1,31,-1
 611 431 l 1,32,-1
 361 414 l 1,33,-1
 361 351 l 2,34,35
 361 232 361 232 345 166 c 128,-1,36
 329 100 329 100 288 58 c 1,37,-1
 746 58 l 1,38,-1
 836 299 l 1,39,-1
 877 288 l 1,40,-1
 847 0 l 1,41,-1
 32 0 l 1,0,-1
EndSplineSet
Colour: ffffff
EndChar

StartChar: t
Encoding: 116 116 183
Width: 948
VWidth: 0
Flags: MW
LayerCount: 2
Fore
SplineSet
71 914 m 1,0,-1
 875 914 l 1,1,-1
 848 632 l 1,2,-1
 798 638 l 1,3,-1
 781 863 l 1,4,-1
 522 863 l 1,5,-1
 522 73 l 1,6,-1
 669 46 l 1,7,-1
 658 0 l 1,8,-1
 265 0 l 1,9,-1
 270 42 l 1,10,-1
 415 72 l 1,11,-1
 415 863 l 1,12,-1
 158 863 l 1,13,-1
 133 634 l 1,14,-1
 81 642 l 1,15,-1
 71 914 l 1,0,-1
EndSplineSet
Colour: ffffff
EndChar

StartChar: thorn
Encoding: 254 254 184
Width: 848
VWidth: 0
Flags: MW
LayerCount: 2
Fore
SplineSet
47 875 m 1,0,-1
 53 914 l 1,1,-1
 450 914 l 1,2,-1
 443 875 l 1,3,-1
 298 852 l 1,4,-1
 298 746 l 1,5,6
 349 749 349 749 410 749 c 0,7,8
 566 749 566 749 666 682 c 128,-1,9
 766 615 766 615 766 483 c 0,10,11
 766 386 766 386 711 313.5 c 128,-1,12
 656 241 656 241 567.5 207.5 c 128,-1,13
 479 174 479 174 377 182 c 1,14,-1
 368 223 l 1,15,-1
 422 226 l 2,16,17
 540 232 540 232 596 297.5 c 128,-1,18
 652 363 652 363 652 463 c 128,-1,19
 652 563 652 563 580.5 634 c 128,-1,20
 509 705 509 705 379 705 c 0,21,22
 349 705 349 705 298 702 c 1,23,-1
 298 65 l 1,24,-1
 461 46 l 1,25,-1
 452 0 l 1,26,-1
 57 0 l 1,27,-1
 62 42 l 1,28,-1
 190 72 l 1,29,-1
 190 850 l 1,30,-1
 47 875 l 1,0,-1
EndSplineSet
Colour: ffffff
EndChar

StartChar: three
Encoding: 51 51 185
Width: 758
VWidth: 0
Flags: MW
LayerCount: 2
Fore
SplineSet
42 -112 m 0,0,1
 42 -76 42 -76 70 -43.5 c 128,-1,2
 98 -11 98 -11 133 -9 c 1,3,4
 155 -121 155 -121 211.5 -175 c 128,-1,5
 268 -229 268 -229 365 -229 c 0,6,7
 478 -229 478 -229 539.5 -167.5 c 128,-1,8
 601 -106 601 -106 601 17 c 0,9,10
 601 92 601 92 574.5 147.5 c 128,-1,11
 548 203 548 203 499 236 c 128,-1,12
 450 269 450 269 389.5 286 c 128,-1,13
 329 303 329 303 253 307 c 1,14,-1
 251 340 l 1,15,16
 301 359 301 359 348.5 387.5 c 128,-1,17
 396 416 396 416 441 456 c 128,-1,18
 486 496 486 496 513.5 550.5 c 128,-1,19
 541 605 541 605 541 665 c 0,20,21
 541 710 541 710 532 749 c 128,-1,22
 523 788 523 788 503.5 822 c 128,-1,23
 484 856 484 856 449.5 875 c 128,-1,24
 415 894 415 894 368 893 c 0,25,26
 226 890 226 890 151 717 c 1,27,-1
 96 735 l 1,28,29
 120 792 120 792 160 842 c 128,-1,30
 200 892 200 892 267.5 929.5 c 128,-1,31
 335 967 335 967 413 967 c 0,32,33
 519 967 519 967 589 891.5 c 128,-1,34
 659 816 659 816 659 704 c 0,35,36
 659 593 659 593 583 503.5 c 128,-1,37
 507 414 507 414 411 375 c 1,38,-1
 411 371 l 1,39,40
 524 364 524 364 618 276.5 c 128,-1,41
 712 189 712 189 712 66 c 0,42,43
 712 -97 712 -97 597.5 -194.5 c 128,-1,44
 483 -292 483 -292 322 -292 c 0,45,46
 192 -292 192 -292 117 -244 c 128,-1,47
 42 -196 42 -196 42 -112 c 0,0,1
EndSplineSet
Colour: ffffff
EndChar

StartChar: threequarters
Encoding: 190 190 186
Width: 1229
VWidth: 0
Flags: MW
LayerCount: 2
Fore
SplineSet
726 277 m 1,0,-1
 944 277 l 1,1,-1
 944 557 l 1,2,-1
 726 277 l 1,0,-1
620 231 m 1,3,-1
 1003 723 l 1,4,-1
 1047 716 l 1,5,6
 1039 621 1039 621 1039 420 c 2,7,-1
 1039 277 l 1,8,-1
 1187 277 l 1,9,-1
 1178 202 l 1,10,-1
 1039 202 l 1,11,-1
 1039 64 l 1,12,-1
 1156 45 l 1,13,-1
 1150 -1 l 1,14,-1
 776 -1 l 1,15,-1
 782 41 l 1,16,-1
 946 68 l 1,17,-1
 946 205 l 1,18,-1
 629 205 l 1,19,-1
 620 231 l 1,3,-1
235 -43 m 1,20,-1
 581 588 l 1,21,-1
 897 1212 l 1,22,-1
 994 1207 l 1,23,-1
 991 1203 l 1,24,-1
 660 591 l 1,25,-1
 336 -47 l 1,26,-1
 235 -43 l 1,20,-1
45 644 m 1,27,-1
 82 786 l 1,28,-1
 126 781 l 1,29,-1
 130 662 l 1,30,31
 146 634 146 634 185 612.5 c 128,-1,32
 224 591 224 591 269 591 c 0,33,34
 336 591 336 591 380.5 635 c 128,-1,35
 425 679 425 679 425 750 c 0,36,37
 425 824 425 824 350.5 869.5 c 128,-1,38
 276 915 276 915 183 919 c 1,39,-1
 182 939 l 1,40,41
 184 940 184 940 200.5 947 c 128,-1,42
 217 954 217 954 225.5 958 c 128,-1,43
 234 962 234 962 252.5 971.5 c 128,-1,44
 271 981 271 981 283 989 c 128,-1,45
 295 997 295 997 311.5 1009 c 128,-1,46
 328 1021 328 1021 338.5 1033.5 c 128,-1,47
 349 1046 349 1046 359 1061 c 128,-1,48
 369 1076 369 1076 374 1093.5 c 128,-1,49
 379 1111 379 1111 379 1130 c 0,50,51
 379 1177 379 1177 349 1217 c 128,-1,52
 319 1257 319 1257 272 1257 c 0,53,54
 195 1257 195 1257 168 1225 c 1,55,-1
 137 1100 l 1,56,-1
 87 1106 l 1,57,-1
 91 1245 l 1,58,59
 155 1309 155 1309 313 1309 c 0,60,61
 384 1309 384 1309 435 1264.5 c 128,-1,62
 486 1220 486 1220 486 1153 c 0,63,64
 486 1084 486 1084 434.5 1036 c 128,-1,65
 383 988 383 988 309 964 c 1,66,-1
 309 958 l 1,67,68
 406 946 406 946 467 892 c 128,-1,69
 528 838 528 838 528 766 c 0,70,71
 528 669 528 669 443 604 c 128,-1,72
 358 539 358 539 250 539 c 0,73,74
 176 539 176 539 123 567.5 c 128,-1,75
 70 596 70 596 45 644 c 1,27,-1
EndSplineSet
Colour: ffffff
EndChar

StartChar: three.superior
Encoding: 179 179 187
Width: 588
VWidth: 0
Flags: MW
LayerCount: 2
Fore
SplineSet
51 632 m 1,0,-1
 88 774 l 1,1,-1
 132 769 l 1,2,-1
 136 650 l 1,3,4
 152 622 152 622 191 600.5 c 128,-1,5
 230 579 230 579 275 579 c 0,6,7
 342 579 342 579 386.5 623 c 128,-1,8
 431 667 431 667 431 738 c 0,9,10
 431 812 431 812 356.5 857.5 c 128,-1,11
 282 903 282 903 189 907 c 1,12,-1
 188 927 l 1,13,14
 190 928 190 928 206.5 935 c 128,-1,15
 223 942 223 942 231.5 946 c 128,-1,16
 240 950 240 950 258.5 959.5 c 128,-1,17
 277 969 277 969 289 977 c 128,-1,18
 301 985 301 985 317.5 997 c 128,-1,19
 334 1009 334 1009 344.5 1021.5 c 128,-1,20
 355 1034 355 1034 365 1049 c 128,-1,21
 375 1064 375 1064 380 1081.5 c 128,-1,22
 385 1099 385 1099 385 1118 c 0,23,24
 385 1165 385 1165 355 1205 c 128,-1,25
 325 1245 325 1245 278 1245 c 0,26,27
 201 1245 201 1245 174 1213 c 1,28,-1
 143 1088 l 1,29,-1
 93 1094 l 1,30,-1
 97 1233 l 1,31,32
 161 1297 161 1297 319 1297 c 0,33,34
 390 1297 390 1297 441 1252.5 c 128,-1,35
 492 1208 492 1208 492 1141 c 0,36,37
 492 1072 492 1072 440.5 1024 c 128,-1,38
 389 976 389 976 315 952 c 1,39,-1
 315 946 l 1,40,41
 412 934 412 934 473 880 c 128,-1,42
 534 826 534 826 534 754 c 0,43,44
 534 657 534 657 449 592 c 128,-1,45
 364 527 364 527 256 527 c 0,46,47
 182 527 182 527 129 555.5 c 128,-1,48
 76 584 76 584 51 632 c 1,0,-1
EndSplineSet
Colour: ffffff
EndChar

StartChar: tilde
Encoding: 732 732 188
Width: 627
VWidth: 0
Flags: MW
LayerCount: 2
Fore
SplineSet
77 1379 m 1,0,1
 88.4703 1436.71 88.4703 1436.71 111.095 1472.95 c 128,-1,2
 133.72 1509.2 133.72 1509.2 161.759 1520.92 c 128,-1,3
 189.798 1532.64 189.798 1532.64 218.595 1529.92 c 128,-1,4
 247.392 1527.19 247.392 1527.19 276 1511.2 c 2,5,-1
 349 1470.37 l 2,6,7
 369.005 1459.18 369.005 1459.18 382.293 1453.13 c 128,-1,8
 395.581 1447.07 395.581 1447.07 412.447 1442.36 c 128,-1,9
 429.312 1437.64 429.312 1437.64 441.751 1440.92 c 128,-1,10
 454.189 1444.2 454.189 1444.2 467.674 1453.13 c 128,-1,11
 481.158 1462.06 481.158 1462.06 492.827 1481.75 c 128,-1,12
 504.495 1501.44 504.495 1501.44 515 1531 c 1,13,-1
 547 1523 l 1,14,15
 532.828 1452.63 532.828 1452.63 502.675 1413.58 c 128,-1,16
 472.523 1374.54 472.523 1374.54 433.24 1370.88 c 128,-1,17
 393.956 1367.23 393.956 1367.23 347 1391.22 c 1,18,-1
 275 1430.9 l 2,19,20
 256.708 1440.98 256.708 1440.98 247.186 1445.8 c 128,-1,21
 237.664 1450.61 237.664 1450.61 221.606 1456.64 c 128,-1,22
 205.548 1462.67 205.548 1462.67 195.897 1462.39 c 128,-1,23
 186.247 1462.12 186.247 1462.12 172.735 1458.62 c 128,-1,24
 159.223 1455.13 159.223 1455.13 149.421 1444.52 c 128,-1,25
 139.619 1433.91 139.619 1433.91 128.63 1415.66 c 128,-1,26
 117.641 1397.41 117.641 1397.41 108 1371 c 1,27,-1
 77 1379 l 1,0,1
EndSplineSet
Colour: ffffff
EndChar

StartChar: two
Encoding: 50 50 189
Width: 799
VWidth: 0
Flags: MW
LayerCount: 2
Back
SplineSet
596.216 0 m 5,0,-1
 65.9375 0 l 1,1,-1
 61.7734 70.7969 l 1,2,-1
 225.577 213.083 l 2,3,4
 269.304 250.563 269.304 250.563 297.066 276.245 c 128,-1,5
 324.83 301.924 324.83 301.924 361.27 341.487 c 128,-1,6
 397.708 381.051 397.708 381.051 418.531 413.673 c 128,-1,7
 439.354 446.294 439.354 446.294 454.624 487.592 c 128,-1,8
 469.893 528.89 469.893 528.89 469.894 569.842 c 0,9,10
 469.894 745.444 469.894 745.444 327.607 744.75 c 0,11,12
 213.778 744.75 213.778 744.75 144.368 568.453 c 1,13,-1
 87.4541 589.275 l 1,14,15
 97.8647 633.698 97.8647 633.698 123.2 677.771 c 128,-1,16
 148.534 721.844 148.534 721.844 184.278 757.938 c 128,-1,17
 220.024 794.03 220.024 794.03 268.61 816.588 c 128,-1,18
 317.195 839.145 317.195 839.145 369.251 839.146 c 0,19,20
 481 839.146 481 839.146 538.607 777.371 c 128,-1,21
 596.217 715.598 596.217 715.598 596.216 600.38 c 0,22,23
 596.216 564.288 596.216 564.288 585.805 528.196 c 128,-1,24
 575.394 492.105 575.394 492.105 560.124 461.564 c 128,-1,25
 544.852 431.025 544.852 431.025 519.868 397.708 c 128,-1,26
 494.88 364.393 494.88 364.393 471.976 339.753 c 128,-1,27
 449.071 315.112 449.071 315.112 416.449 284.573 c 128,-1,28
 383.827 254.034 383.827 254.034 361.27 235.294 c 128,-1,29
 338.713 216.551 338.713 216.551 305.396 188.79 c 128,-1,30
 272.08 161.026 272.08 161.026 256.811 147.839 c 2,31,-1
 193.649 93.0078 l 1,32,-1
 520.562 93.0078 l 1,33,-1
 587.193 216.555 l 1,34,-1
 635.085 209.612 l 1,35,-1
 596.216 0 l 5,0,-1
EndSplineSet
Fore
SplineSet
46 46 m 1,0,-1
 262 203 l 1,1,2
 432 324 432 324 504 421 c 128,-1,3
 576 518 576 518 576 648 c 0,4,5
 576 752 576 752 520.5 824.5 c 128,-1,6
 465 897 465 897 368 897 c 0,7,8
 290 897 290 897 226.5 824 c 128,-1,9
 163 751 163 751 139 649 c 1,10,-1
 83 668 l 1,11,12
 107 789 107 789 204 879 c 128,-1,13
 301 969 301 969 415 969 c 0,14,15
 546 969 546 969 622 893 c 128,-1,16
 698 817 698 817 698 681 c 0,17,18
 698 535 698 535 606.5 421.5 c 128,-1,19
 515 308 515 308 271 144 c 2,20,-1
 183 85 l 1,21,-1
 635 85 l 1,22,-1
 714 290 l 1,23,-1
 753 281 l 1,24,-1
 724 0 l 1,25,-1
 53 0 l 1,26,-1
 46 46 l 1,0,-1
EndSplineSet
Colour: ffffff
EndChar

StartChar: two.superior
Encoding: 178 178 190
Width: 634
VWidth: 0
Flags: MW
LayerCount: 2
Fore
SplineSet
50 613 m 1,0,-1
 201 738 l 2,1,2
 331 846 331 846 380 915 c 128,-1,3
 429 984 429 984 429 1074 c 0,4,5
 429 1142 429 1142 392.5 1188 c 128,-1,6
 356 1234 356 1234 291 1234 c 0,7,8
 195 1234 195 1234 166 1213 c 1,9,-1
 140 1063 l 1,10,-1
 98 1067 l 1,11,-1
 103 1226 l 1,12,13
 130 1252 130 1252 188 1271 c 128,-1,14
 246 1290 246 1290 319 1290 c 0,15,16
 418 1290 418 1290 479 1237.5 c 128,-1,17
 540 1185 540 1185 540 1077 c 0,18,19
 540 1045 540 1045 531 1014.5 c 128,-1,20
 522 984 522 984 511.5 960 c 128,-1,21
 501 936 501 936 472 903 c 128,-1,22
 443 870 443 870 424 849.5 c 128,-1,23
 405 829 405 829 356.5 789 c 128,-1,24
 308 749 308 749 280.5 727.5 c 128,-1,25
 253 706 253 706 187 654 c 1,26,-1
 183 651 l 1,27,-1
 499 651 l 1,28,-1
 543 799 l 1,29,-1
 578 796 l 1,30,-1
 558 566 l 1,31,-1
 53 566 l 1,32,-1
 50 613 l 1,0,-1
EndSplineSet
Colour: ffffff
EndChar

StartChar: u
Encoding: 117 117 191
Width: 1111
VWidth: 0
Flags: MW
LayerCount: 2
Fore
SplineSet
42 875 m 1,0,-1
 46 914 l 1,1,-1
 440 914 l 1,2,-1
 436 875 l 1,3,-1
 297 852 l 1,4,-1
 297 361 l 2,5,6
 297 188 297 188 372 115 c 128,-1,7
 447 42 447 42 584 42 c 0,8,9
 716 42 716 42 784 110.5 c 128,-1,10
 852 179 852 179 852 335 c 2,11,-1
 852 850 l 1,12,-1
 696 875 l 1,13,-1
 701 914 l 1,14,-1
 1066 914 l 1,15,-1
 1058 875 l 1,16,-1
 922 852 l 1,17,-1
 919 356 l 2,18,19
 916 -27 916 -27 551 -27 c 0,20,21
 473 -27 473 -27 412.5 -9.5 c 128,-1,22
 352 8 352 8 300.5 48.5 c 128,-1,23
 249 89 249 89 221 165 c 128,-1,24
 193 241 193 241 193 348 c 2,25,-1
 193 850 l 1,26,-1
 42 875 l 1,0,-1
EndSplineSet
Colour: ffffff
EndChar

StartChar: uacute
Encoding: 250 250 192
Width: 999
VWidth: 0
Flags: MW
LayerCount: 2
Fore
SplineSet
536 1007 m 1,0,-1
 668 1344 l 1,1,-1
 764 1305 l 1,2,-1
 581 981 l 1,3,-1
 536 1007 l 1,0,-1
49 875 m 1,4,-1
 53 914 l 1,5,-1
 447 914 l 1,6,-1
 443 875 l 1,7,-1
 304 852 l 1,8,-1
 304 361 l 2,9,10
 304 188 304 188 379 115 c 128,-1,11
 454 42 454 42 591 42 c 0,12,13
 723 42 723 42 791 110.5 c 128,-1,14
 859 179 859 179 859 335 c 2,15,-1
 859 850 l 1,16,-1
 703 875 l 1,17,-1
 708 914 l 1,18,-1
 1073 914 l 1,19,-1
 1065 875 l 1,20,-1
 929 852 l 1,21,-1
 926 356 l 2,22,23
 923 -27 923 -27 558 -27 c 0,24,25
 480 -27 480 -27 419.5 -9.5 c 128,-1,26
 359 8 359 8 307.5 48.5 c 128,-1,27
 256 89 256 89 228 165 c 128,-1,28
 200 241 200 241 200 348 c 2,29,-1
 200 850 l 1,30,-1
 49 875 l 1,4,-1
EndSplineSet
Colour: ffffff
EndChar

StartChar: ucircumflex
Encoding: 251 251 193
Width: 999
VWidth: 0
Flags: MW
LayerCount: 2
Fore
SplineSet
376 1005 m 1,0,-1
 543 1186 l 1,1,-1
 597 1199 l 1,2,-1
 776 1013 l 1,3,-1
 744 976 l 1,4,-1
 563 1111 l 1,5,-1
 554 1111 l 1,6,-1
 397 975 l 1,7,-1
 376 1005 l 1,0,-1
49 875 m 1,8,-1
 53 914 l 1,9,-1
 447 914 l 1,10,-1
 443 875 l 1,11,-1
 304 852 l 1,12,-1
 304 361 l 2,13,14
 304 188 304 188 379 115 c 128,-1,15
 454 42 454 42 591 42 c 0,16,17
 723 42 723 42 791 110.5 c 128,-1,18
 859 179 859 179 859 335 c 2,19,-1
 859 850 l 1,20,-1
 703 875 l 1,21,-1
 708 914 l 1,22,-1
 1073 914 l 1,23,-1
 1065 875 l 1,24,-1
 929 852 l 1,25,-1
 926 356 l 2,26,27
 923 -27 923 -27 558 -27 c 0,28,29
 480 -27 480 -27 419.5 -9.5 c 128,-1,30
 359 8 359 8 307.5 48.5 c 128,-1,31
 256 89 256 89 228 165 c 128,-1,32
 200 241 200 241 200 348 c 2,33,-1
 200 850 l 1,34,-1
 49 875 l 1,8,-1
EndSplineSet
Colour: ffffff
EndChar

StartChar: udieresis
Encoding: 252 252 194
Width: 999
VWidth: 0
Flags: MW
LayerCount: 2
Fore
SplineSet
649 1093 m 0,0,1
 649 1171 649 1171 703 1171 c 0,2,3
 761 1171 761 1171 761 1093 c 0,4,5
 761 1012 761 1012 704 1012 c 0,6,7
 649 1012 649 1012 649 1093 c 0,0,1
380 1093 m 0,8,9
 380 1171 380 1171 435 1171 c 0,10,11
 493 1171 493 1171 493 1093 c 0,12,13
 493 1052 493 1052 480.5 1032 c 128,-1,14
 468 1012 468 1012 437 1012 c 0,15,16
 380 1012 380 1012 380 1093 c 0,8,9
49 875 m 1,17,-1
 53 914 l 1,18,-1
 447 914 l 1,19,-1
 443 875 l 1,20,-1
 304 852 l 1,21,-1
 304 361 l 2,22,23
 304 188 304 188 379 115 c 128,-1,24
 454 42 454 42 591 42 c 0,25,26
 723 42 723 42 791 110.5 c 128,-1,27
 859 179 859 179 859 335 c 2,28,-1
 859 850 l 1,29,-1
 703 875 l 1,30,-1
 708 914 l 1,31,-1
 1073 914 l 1,32,-1
 1065 875 l 1,33,-1
 929 852 l 1,34,-1
 926 356 l 2,35,36
 923 -27 923 -27 558 -27 c 0,37,38
 480 -27 480 -27 419.5 -9.5 c 128,-1,39
 359 8 359 8 307.5 48.5 c 128,-1,40
 256 89 256 89 228 165 c 128,-1,41
 200 241 200 241 200 348 c 2,42,-1
 200 850 l 1,43,-1
 49 875 l 1,17,-1
EndSplineSet
Colour: ffffff
EndChar

StartChar: ugrave
Encoding: 249 249 195
Width: 999
VWidth: 0
Flags: MW
LayerCount: 2
Fore
SplineSet
381 1298 m 1,0,-1
 475 1335 l 1,1,-1
 608 999 l 1,2,-1
 562 972 l 1,3,-1
 381 1298 l 1,0,-1
49 875 m 1,4,-1
 53 914 l 1,5,-1
 447 914 l 1,6,-1
 443 875 l 1,7,-1
 304 852 l 1,8,-1
 304 361 l 2,9,10
 304 188 304 188 379 115 c 128,-1,11
 454 42 454 42 591 42 c 0,12,13
 723 42 723 42 791 110.5 c 128,-1,14
 859 179 859 179 859 335 c 2,15,-1
 859 850 l 1,16,-1
 703 875 l 1,17,-1
 708 914 l 1,18,-1
 1073 914 l 1,19,-1
 1065 875 l 1,20,-1
 929 852 l 1,21,-1
 926 356 l 2,22,23
 923 -27 923 -27 558 -27 c 0,24,25
 480 -27 480 -27 419.5 -9.5 c 128,-1,26
 359 8 359 8 307.5 48.5 c 128,-1,27
 256 89 256 89 228 165 c 128,-1,28
 200 241 200 241 200 348 c 2,29,-1
 200 850 l 1,30,-1
 49 875 l 1,4,-1
EndSplineSet
Colour: ffffff
EndChar

StartChar: tilde
Encoding: 732 732 196
Width: 627
VWidth: 0
Flags: MW
LayerCount: 2
Back
SplineSet
77 1379 m 5,0,1
 77.5812 1382.17 77.5812 1382.17 78.7868 1387.62 c 0
 79.9923 1393.08 79.9923 1393.08 84.8008 1408.83 c 0
 89.6093 1424.57 89.6093 1424.57 95.5876 1438.89 c 0
 101.566 1453.21 101.566 1453.21 112.143 1470.7 c 0
 122.72 1488.19 122.72 1488.19 134.982 1500.76 c 0
 147.244 1513.34 147.244 1513.34 165.101 1521.97 c 0
 182.958 1530.59 182.958 1530.59 203.045 1530.59 c 0,2,3
 236.114 1530.59 236.114 1530.59 276 1511.2 c 1,4,-1
 349 1470.37 l 2,5,6
 397.146 1444.4 397.146 1444.4 433.312 1444.4 c 0,7,8
 458.951 1444.4 458.951 1444.4 479.373 1466.05 c 0
 499.795 1487.7 499.795 1487.7 507.398 1509.35 c 2
 515 1531 l 1,9,-1
 547 1523 l 1,10,11
 545.773 1516.81 545.773 1516.81 543.198 1506.54 c 0
 540.622 1496.27 540.622 1496.27 530.415 1470.01 c 0
 520.207 1443.76 520.207 1443.76 507.5 1423.69 c 0
 494.793 1403.62 494.793 1403.62 472.359 1387.16 c 0
 449.924 1370.7 449.924 1370.7 423.839 1370.7 c 0,12,13
 389.188 1370.7 389.188 1370.7 347 1391.22 c 1,14,-1
 275 1430.9 l 2,15,16
 225.831 1456.98 225.831 1456.98 189.082 1456.98 c 0,17,18
 165.711 1456.98 165.711 1456.98 145.44 1435.48 c 0
 125.17 1413.99 125.17 1413.99 116.585 1392.49 c 2
 108 1371 l 1,19,-1
 77 1379 l 5,0,1
EndSplineSet
Fore
SplineSet
77 1379 m 1,0,1
 88 1437 88 1437 111 1473 c 128,-1,2
 134 1509 134 1509 162 1520.5 c 128,-1,3
 190 1532 190 1532 218.5 1529.5 c 128,-1,4
 247 1527 247 1527 276 1511 c 2,5,-1
 349 1470 l 2,6,7
 369 1459 369 1459 382.5 1453 c 128,-1,8
 396 1447 396 1447 412.5 1442 c 128,-1,9
 429 1437 429 1437 441.5 1440.5 c 128,-1,10
 454 1444 454 1444 467.5 1453 c 128,-1,11
 481 1462 481 1462 492.5 1481.5 c 128,-1,12
 504 1501 504 1501 515 1531 c 1,13,-1
 547 1523 l 1,14,15
 526 1418 526 1418 470.5 1384 c 128,-1,16
 415 1350 415 1350 347 1391 c 1,17,-1
 275 1431 l 2,18,19
 249 1445 249 1445 236 1451 c 128,-1,20
 223 1457 223 1457 201.5 1461 c 128,-1,21
 180 1465 180 1465 166.5 1457.5 c 128,-1,22
 153 1450 153 1450 137 1429 c 128,-1,23
 121 1408 121 1408 108 1371 c 1,24,-1
 77 1379 l 1,0,1
EndSplineSet
Colour: ffffff
EndChar

StartChar: Germandbls
Encoding: 7838 7838 197
Width: 1244
VWidth: 0
Flags: MW
LayerCount: 2
Fore
SplineSet
50 0 m 1,0,-1
 55 42 l 1,1,-1
 225 72 l 1,2,-1
 225 763 l 2,3,4
 225 1024 225 1024 344 1147.5 c 128,-1,5
 463 1271 463 1271 693 1271 c 0,6,7
 791 1271 791 1271 890 1245.5 c 128,-1,8
 989 1220 989 1220 1059.5 1170.5 c 128,-1,9
 1130 1121 1130 1121 1130 1062 c 0,10,11
 1130 1023 1130 1023 1110 1001.5 c 128,-1,12
 1090 980 1090 980 1047 966 c 1,13,14
 1029 1057 1029 1057 967.5 1125.5 c 128,-1,15
 906 1194 906 1194 811 1194 c 0,16,17
 737 1194 737 1194 670.5 1132 c 128,-1,18
 604 1070 604 1070 604 964 c 0,19,20
 604 901 604 901 636.5 846 c 128,-1,21
 669 791 669 791 720.5 750.5 c 128,-1,22
 772 710 772 710 834 672 c 128,-1,23
 896 634 896 634 958.5 596 c 128,-1,24
 1021 558 1021 558 1072.5 518 c 128,-1,25
 1124 478 1124 478 1156.5 424 c 128,-1,26
 1189 370 1189 370 1189 308 c 0,27,28
 1189 163 1189 163 1079 68.5 c 128,-1,29
 969 -26 969 -26 786 -26 c 0,30,31
 682 -26 682 -26 595.5 14 c 128,-1,32
 509 54 509 54 458 116 c 1,33,-1
 487 401 l 1,34,-1
 536 393 l 1,35,-1
 562 174 l 1,36,37
 595 111 595 111 673 74 c 128,-1,38
 751 37 751 37 839 37 c 0,39,40
 939 37 939 37 1009.5 96.5 c 128,-1,41
 1080 156 1080 156 1080 262 c 0,42,43
 1080 319 1080 319 1048.5 369.5 c 128,-1,44
 1017 420 1017 420 966 458.5 c 128,-1,45
 915 497 915 497 854 534.5 c 128,-1,46
 793 572 793 572 732 611 c 128,-1,47
 671 650 671 650 620 692.5 c 128,-1,48
 569 735 569 735 537.5 793 c 128,-1,49
 506 851 506 851 506 918 c 0,50,51
 506 979 506 979 528.5 1038.5 c 128,-1,52
 551 1098 551 1098 600.5 1147.5 c 128,-1,53
 650 1197 650 1197 717 1213 c 1,54,-1
 718 1218 l 1,55,56
 698 1221 698 1221 630 1221 c 0,57,58
 484 1221 484 1221 406 1103 c 128,-1,59
 328 985 328 985 328 786 c 2,60,-1
 328 0 l 1,61,-1
 50 0 l 1,0,-1
EndSplineSet
AlternateSubs2: "Alternate Substitution in Latin lookup 0-1" Germandbls.alt
Colour: ffffff
EndChar

StartChar: Germandbls.alt
Encoding: 65536 -1 198
Width: 1231
VWidth: 0
Flags: MW
LayerCount: 2
Fore
SplineSet
44 0 m 1,0,-1
 49 42 l 1,1,-1
 219 72 l 1,2,-1
 219 763 l 2,3,4
 219 1024 219 1024 338 1147.5 c 128,-1,5
 457 1271 457 1271 687 1271 c 0,6,7
 808 1271 808 1271 922 1259.5 c 128,-1,8
 1036 1248 1036 1248 1082 1233 c 1,9,-1
 1082 1202 l 1,10,-1
 735 736 l 1,11,12
 759 721 759 721 815 690.5 c 128,-1,13
 871 660 871 660 913.5 636 c 128,-1,14
 956 612 956 612 1009.5 573 c 128,-1,15
 1063 534 1063 534 1098.5 497.5 c 128,-1,16
 1134 461 1134 461 1158.5 411 c 128,-1,17
 1183 361 1183 361 1183 308 c 0,18,19
 1183 163 1183 163 1073 68.5 c 128,-1,20
 963 -26 963 -26 780 -26 c 0,21,22
 676 -26 676 -26 589.5 14 c 128,-1,23
 503 54 503 54 452 116 c 1,24,-1
 481 401 l 1,25,-1
 530 393 l 1,26,-1
 556 174 l 1,27,28
 589 111 589 111 667 74 c 128,-1,29
 745 37 745 37 833 37 c 0,30,31
 933 37 933 37 1003.5 96.5 c 128,-1,32
 1074 156 1074 156 1074 262 c 0,33,34
 1074 309 1074 309 1051 354.5 c 128,-1,35
 1028 400 1028 400 994.5 434.5 c 128,-1,36
 961 469 961 469 909.5 506.5 c 128,-1,37
 858 544 858 544 815 569 c 128,-1,38
 772 594 772 594 714.5 627 c 128,-1,39
 657 660 657 660 627 680 c 1,40,-1
 606 721 l 1,41,-1
 945 1171 l 1,42,-1
 945 1174 l 1,43,44
 892 1195 892 1195 795.5 1208 c 128,-1,45
 699 1221 699 1221 624 1221 c 0,46,47
 478 1221 478 1221 400 1103 c 128,-1,48
 322 985 322 985 322 786 c 2,49,-1
 322 0 l 1,50,-1
 44 0 l 1,0,-1
EndSplineSet
Colour: ffffff
EndChar

StartChar: v
Encoding: 118 118 199
Width: 986
VWidth: 0
Flags: MW
LayerCount: 2
Fore
SplineSet
45 878 m 1,0,-1
 49 914 l 1,1,-1
 413 914 l 1,2,-1
 409 878 l 1,3,-1
 271 852 l 1,4,-1
 506 160 l 1,5,-1
 759 848 l 1,6,-1
 603 878 l 1,7,-1
 606 914 l 1,8,-1
 936 914 l 1,9,-1
 932 878 l 1,10,-1
 833 852 l 1,11,-1
 516 -11 l 1,12,-1
 465 -26 l 1,13,-1
 162 848 l 1,14,-1
 45 878 l 1,0,-1
EndSplineSet
Colour: ffffff
EndChar

StartChar: w
Encoding: 119 119 200
Width: 1358
VWidth: 0
Flags: MW
LayerCount: 2
Fore
SplineSet
53 877 m 1,0,-1
 60 914 l 1,1,-1
 383 914 l 1,2,-1
 380 882 l 1,3,-1
 255 852 l 1,4,-1
 466 178 l 1,5,-1
 664 872 l 1,6,-1
 710 878 l 1,7,-1
 926 168 l 1,8,-1
 1128 845 l 1,9,-1
 971 880 l 1,10,-1
 976 914 l 1,11,-1
 1299 914 l 1,12,-1
 1296 878 l 1,13,-1
 1208 848 l 1,14,-1
 936 -13 l 1,15,-1
 881 -26 l 1,16,-1
 668 675 l 1,17,-1
 476 -13 l 1,18,-1
 415 -25 l 1,19,-1
 145 848 l 1,20,-1
 53 877 l 1,0,-1
EndSplineSet
Colour: ffffff
EndChar

StartChar: x
Encoding: 120 120 201
Width: 1021
VWidth: 0
Flags: MW
LayerCount: 2
Fore
SplineSet
50 0 m 1,0,-1
 56 36 l 1,1,-1
 150 64 l 1,2,-1
 446 454 l 1,3,-1
 163 854 l 1,4,-1
 57 882 l 1,5,-1
 61 914 l 1,6,-1
 421 914 l 1,7,-1
 416 882 l 1,8,-1
 290 852 l 1,9,-1
 521 527 l 1,10,-1
 755 854 l 1,11,-1
 613 877 l 1,12,-1
 618 914 l 1,13,-1
 926 914 l 1,14,-1
 926 878 l 1,15,-1
 830 857 l 1,16,-1
 555 479 l 1,17,-1
 851 53 l 1,18,-1
 958 36 l 1,19,-1
 951 0 l 1,20,-1
 586 0 l 1,21,-1
 590 27 l 1,22,-1
 723 60 l 1,23,-1
 482 403 l 1,24,-1
 229 60 l 1,25,-1
 364 42 l 1,26,-1
 356 0 l 1,27,-1
 50 0 l 1,0,-1
EndSplineSet
Colour: ffffff
EndChar

StartChar: y
Encoding: 121 121 202
Width: 957
VWidth: 0
Flags: MW
LayerCount: 2
Fore
SplineSet
45 877 m 1,0,-1
 49 913 l 1,1,-1
 410 913 l 1,2,-1
 406 877 l 1,3,-1
 270 851 l 1,4,-1
 499 461 l 1,5,-1
 729 848 l 1,6,-1
 574 878 l 1,7,-1
 576 914 l 1,8,-1
 906 914 l 1,9,-1
 903 878 l 1,10,-1
 804 852 l 1,11,-1
 535 379 l 1,12,-1
 535 67 l 1,13,-1
 686 46 l 1,14,-1
 678 0 l 1,15,-1
 278 0 l 1,16,-1
 284 42 l 1,17,-1
 429 72 l 1,18,-1
 429 379 l 1,19,-1
 154 847 l 1,20,-1
 45 877 l 1,0,-1
EndSplineSet
Colour: ffffff
EndChar

StartChar: yacute
Encoding: 253 253 203
Width: 979
VWidth: 0
Flags: MW
LayerCount: 2
Fore
SplineSet
463 1007 m 1,0,-1
 595 1344 l 1,1,-1
 691 1305 l 1,2,-1
 508 981 l 1,3,-1
 463 1007 l 1,0,-1
62 877 m 1,4,-1
 66 913 l 1,5,-1
 427 913 l 1,6,-1
 423 877 l 1,7,-1
 287 851 l 1,8,-1
 516 461 l 1,9,-1
 746 848 l 1,10,-1
 591 878 l 1,11,-1
 593 914 l 1,12,-1
 923 914 l 1,13,-1
 920 878 l 1,14,-1
 821 852 l 1,15,-1
 552 379 l 1,16,-1
 552 67 l 1,17,-1
 703 46 l 1,18,-1
 695 0 l 1,19,-1
 295 0 l 1,20,-1
 301 42 l 1,21,-1
 446 72 l 1,22,-1
 446 379 l 1,23,-1
 171 847 l 1,24,-1
 62 877 l 1,4,-1
EndSplineSet
Colour: ffffff
EndChar

StartChar: ydieresis
Encoding: 255 255 204
Width: 979
VWidth: 0
Flags: MW
LayerCount: 2
Fore
SplineSet
566 1085 m 0,0,1
 566 1163 566 1163 620 1163 c 0,2,3
 678 1163 678 1163 678 1085 c 0,4,5
 678 1004 678 1004 621 1004 c 0,6,7
 566 1004 566 1004 566 1085 c 0,0,1
297 1085 m 0,8,9
 297 1163 297 1163 352 1163 c 0,10,11
 410 1163 410 1163 410 1085 c 0,12,13
 410 1044 410 1044 397.5 1024 c 128,-1,14
 385 1004 385 1004 354 1004 c 0,15,16
 297 1004 297 1004 297 1085 c 0,8,9
62 877 m 1,17,-1
 66 913 l 1,18,-1
 427 913 l 1,19,-1
 423 877 l 1,20,-1
 287 851 l 1,21,-1
 516 461 l 1,22,-1
 746 848 l 1,23,-1
 591 878 l 1,24,-1
 593 914 l 1,25,-1
 923 914 l 1,26,-1
 920 878 l 1,27,-1
 821 852 l 1,28,-1
 552 379 l 1,29,-1
 552 67 l 1,30,-1
 703 46 l 1,31,-1
 695 0 l 1,32,-1
 295 0 l 1,33,-1
 301 42 l 1,34,-1
 446 72 l 1,35,-1
 446 379 l 1,36,-1
 171 847 l 1,37,-1
 62 877 l 1,17,-1
EndSplineSet
Colour: ffffff
EndChar

StartChar: yen
Encoding: 165 165 205
Width: 926
VWidth: 0
Flags: MW
LayerCount: 2
Fore
SplineSet
65 503 m 1,0,-1
 75 549 l 1,1,-1
 316 549 l 1,2,-1
 177 848 l 1,3,-1
 35 880 l 1,4,-1
 41 914 l 1,5,-1
 416 914 l 1,6,-1
 413 880 l 1,7,-1
 286 851 l 1,8,-1
 483 408 l 1,9,-1
 677 848 l 1,10,-1
 540 880 l 1,11,-1
 542 913 l 1,12,-1
 885 913 l 1,13,-1
 881 880 l 1,14,-1
 754 850 l 1,15,-1
 607 549 l 1,16,-1
 879 549 l 1,17,-1
 868 503 l 1,18,-1
 585 503 l 1,19,-1
 513 355 l 1,20,-1
 879 355 l 1,21,-1
 868 307 l 1,22,-1
 513 307 l 1,23,-1
 513 67 l 1,24,-1
 696 46 l 1,25,-1
 687 0 l 1,26,-1
 227 0 l 1,27,-1
 232 42 l 1,28,-1
 407 72 l 1,29,-1
 407 307 l 1,30,-1
 65 307 l 1,31,-1
 75 355 l 1,32,-1
 407 355 l 1,33,-1
 338 503 l 1,34,-1
 65 503 l 1,0,-1
EndSplineSet
Colour: ffffff
EndChar

StartChar: z
Encoding: 122 122 206
Width: 843
VWidth: 0
Flags: MW
LayerCount: 2
Fore
SplineSet
43 37 m 1,0,-1
 645 859 l 1,1,-1
 197 859 l 1,2,-1
 131 623 l 1,3,-1
 91 634 l 1,4,-1
 100 914 l 1,5,-1
 776 914 l 1,6,-1
 781 877 l 1,7,-1
 176 58 l 1,8,-1
 676 58 l 1,9,-1
 752 292 l 1,10,-1
 796 285 l 1,11,-1
 776 0 l 1,12,-1
 48 0 l 1,13,-1
 43 37 l 1,0,-1
EndSplineSet
Colour: ffffff
EndChar

StartChar: zero
Encoding: 48 48 207
Width: 891
VWidth: 0
Flags: MW
LayerCount: 2
Fore
SplineSet
174 465 m 0,0,1
 174 342 174 342 207 243.5 c 128,-1,2
 240 145 240 145 303 87 c 128,-1,3
 366 29 366 29 448 29 c 0,4,5
 575 29 575 29 645.5 148.5 c 128,-1,6
 716 268 716 268 716 469 c 0,7,8
 716 555 716 555 700.5 632 c 128,-1,9
 685 709 685 709 654 773.5 c 128,-1,10
 623 838 623 838 569 876 c 128,-1,11
 515 914 515 914 444 914 c 0,12,13
 367 914 367 914 312 876 c 128,-1,14
 257 838 257 838 228 771.5 c 128,-1,15
 199 705 199 705 186.5 630 c 128,-1,16
 174 555 174 555 174 465 c 0,0,1
56 469 m 0,17,18
 56 541 56 541 72.5 612.5 c 128,-1,19
 89 684 89 684 122.5 747.5 c 128,-1,20
 156 811 156 811 202 860 c 128,-1,21
 248 909 248 909 312 938 c 128,-1,22
 376 967 376 967 448 967 c 0,23,24
 569 967 569 967 658.5 897.5 c 128,-1,25
 748 828 748 828 792 716.5 c 128,-1,26
 836 605 836 605 836 469 c 0,27,28
 836 359 836 359 804 265.5 c 128,-1,29
 772 172 772 172 717.5 108.5 c 128,-1,30
 663 45 663 45 591.5 9.5 c 128,-1,31
 520 -26 520 -26 442 -26 c 0,32,33
 274 -26 274 -26 165 114 c 128,-1,34
 56 254 56 254 56 469 c 0,17,18
EndSplineSet
Colour: ffffff
EndChar

StartChar: micro
Encoding: 181 181 208
Width: 986
VWidth: 0
Flags: MW
LayerCount: 2
Fore
SplineSet
42 816 m 1,0,-1
 46 843 l 1,1,-1
 276 863 l 1,2,-1
 284 854 l 1,3,-1
 284 317 l 2,4,5
 284 59 284 59 471 59 c 0,6,7
 534 59 534 59 596 96.5 c 128,-1,8
 658 134 658 134 699 183 c 1,9,-1
 699 786 l 1,10,-1
 544 816 l 1,11,-1
 546 843 l 1,12,-1
 783 863 l 1,13,-1
 790 854 l 1,14,-1
 790 230 l 2,15,16
 790 195 790 195 791 174 c 128,-1,17
 792 153 792 153 797 128.5 c 128,-1,18
 802 104 802 104 811.5 90.5 c 128,-1,19
 821 77 821 77 838.5 65.5 c 128,-1,20
 856 54 856 54 881 50 c 1,21,-1
 943 37 l 1,22,-1
 937 3 l 1,23,24
 890 -18 890 -18 835 -18 c 0,25,26
 776 -18 776 -18 743 21.5 c 128,-1,27
 710 61 710 61 710 117 c 2,28,-1
 710 133 l 1,29,-1
 699 133 l 1,30,31
 649 60 649 60 574 18 c 128,-1,32
 499 -24 499 -24 430 -24 c 0,33,34
 375 -24 375 -24 329.5 -3 c 128,-1,35
 284 18 284 18 263 60 c 1,36,-1
 257 60 l 1,37,38
 258 52 258 52 258.5 30.5 c 128,-1,39
 259 9 259 9 259.5 -25 c 128,-1,40
 260 -59 260 -59 261 -85 c 2,41,-1
 272 -389 l 1,42,-1
 182 -363 l 1,43,44
 184 -348 184 -348 187.5 -209 c 128,-1,45
 191 -70 191 -70 194 135.5 c 128,-1,46
 197 341 197 341 197 495 c 2,47,-1
 197 786 l 1,48,-1
 42 816 l 1,0,-1
EndSplineSet
Colour: ffffff
EndChar

StartChar: germandbls.alt
Encoding: 65537 -1 209
Width: 1031
VWidth: 0
Flags: MW
LayerCount: 2
Back
SplineSet
90 0 m 1,0,-1
 95 42 l 1,1,-1
 225 72 l 1,2,-1
 225 529 l 2,3,4
 225 632.734 225 632.734 261.324 711.445 c 0
 297.647 790.157 297.647 790.157 363.664 838.14 c 0
 429.68 886.123 429.68 886.123 516.601 909.911 c 0
 603.522 933.7 603.522 933.7 709.999 933.7 c 0,5,-1
 784.997 933.7 784.997 933.7 854.583 911.797 c 0
 924.168 889.894 924.168 889.894 970.084 847.975 c 0
 1016 806.055 1016 806.055 1016 754.7 c 0,8,9
 1016 723.879 1016 723.879 998.554 706.902 c 0
 981.109 689.926 981.109 689.926 943 678.7 c 1,10,11
 905.994 884 905.994 884 746 884 c 0,12,13
 684.203 884 684.203 884 639.754 833.64 c 0
 595.305 783.281 595.305 783.281 595.305 712.958 c 0,14,15
 595.305 679.437 595.305 679.437 614.628 646.848 c 0
 633.951 614.26 633.951 614.26 665.57 587.657 c 0
 697.189 561.054 697.189 561.054 737.591 532.374 c 0
 777.994 503.694 777.994 503.694 820.152 478.263 c 0
 862.311 452.832 862.311 452.832 902.714 422.296 c 0
 943.116 391.76 943.116 391.76 974.735 361.736 c 0
 1006.35 331.712 1006.35 331.712 1025.68 293.556 c 0
 1045 255.4 1045 255.4 1045 215 c 0,16,17
 1045 111 1045 111 947.5 42.5 c 0
 850 -26 850 -26 688 -26 c 0,18,19
 621 -26 621 -26 558.5 -4.5 c 0
 496 17 496 17 458 49 c 1,20,-1
 487 294 l 1,21,-1
 536 286 l 1,22,-1
 552 107 l 1,23,24
 574 75 574 75 627.5 56 c 0
 681 37 681 37 741 37 c 0,25,26
 822 37 822 37 879 72 c 0
 936 107 936 107 936 169 c 0,27,28
 936 203.043 936 203.043 917.331 234.878 c 0
 898.661 266.713 898.661 266.713 868.111 291.714 c 0
 837.561 316.716 837.561 316.716 798.525 343.586 c 0
 759.489 370.456 759.489 370.456 718.756 394.157 c 0
 678.023 417.858 678.023 417.858 638.987 447.532 c 0
 599.951 477.206 599.951 477.206 569.401 507.376 c 0
 538.851 537.545 538.851 537.545 520.181 577.792 c 0
 501.512 618.039 501.512 618.039 501.512 662.474 c 0,29,30
 501.512 739.136 501.512 739.136 544.085 798.946 c 0
 586.659 858.757 586.659 858.757 656 891.7 c 1,31,-1
 656 895.7 l 1,32,33
 624.213 894.046 624.213 894.046 597.143 890.367 c 0
 570.072 886.689 570.072 886.689 535.244 876.778 c 0
 500.415 866.868 500.415 866.868 472.762 851.823 c 0
 445.109 836.778 445.109 836.778 417.062 810.476 c 0
 389.015 784.173 389.015 784.173 370.276 749.754 c 0
 351.538 715.335 351.538 715.335 339.769 664.632 c 0
 328 613.929 328 613.929 328 552 c 2,34,-1
 328 0 l 1,35,-1
 90 0 l 1,0,-1
EndSplineSet
Fore
SplineSet
28 0 m 1,0,-1
 33 42 l 1,1,-1
 173 72 l 1,2,-1
 173 532 l 2,3,4
 173 737 173 737 289.5 835.5 c 128,-1,5
 406 934 406 934 621 934 c 0,6,7
 712 934 712 934 804.5 915.5 c 128,-1,8
 897 897 897 897 936 876 c 1,9,-1
 936 835 l 1,10,-1
 679 523 l 1,11,12
 810 452 810 452 860 416 c 0,13,14
 999 316 999 316 999 215 c 0,15,16
 999 111 999 111 901.5 42.5 c 128,-1,17
 804 -26 804 -26 642 -26 c 0,18,19
 575 -26 575 -26 512.5 -4.5 c 128,-1,20
 450 17 450 17 412 49 c 1,21,-1
 441 294 l 1,22,-1
 490 286 l 1,23,-1
 506 107 l 1,24,25
 529 75 529 75 582 56 c 128,-1,26
 635 37 635 37 695 37 c 0,27,28
 775 37 775 37 832.5 72 c 128,-1,29
 890 107 890 107 890 169 c 0,30,31
 890 190 890 190 880.5 212 c 128,-1,32
 871 234 871 234 857.5 252.5 c 128,-1,33
 844 271 844 271 819.5 292 c 128,-1,34
 795 313 795 313 775.5 328 c 128,-1,35
 756 343 756 343 723.5 363.5 c 128,-1,36
 691 384 691 384 672.5 394.5 c 128,-1,37
 654 405 654 405 620.5 424 c 128,-1,38
 587 443 587 443 576 449 c 1,39,-1
 555 490 l 1,40,-1
 829 821 l 1,41,-1
 829 824 l 1,42,43
 723 884 723 884 568 884 c 0,44,45
 425 884 425 884 350.5 798 c 128,-1,46
 276 712 276 712 276 555 c 2,47,-1
 276 0 l 1,48,-1
 28 0 l 1,0,-1
EndSplineSet
Colour: ffffff
EndChar
